<mxfile host="app.diagrams.net" modified="2021-03-10T14:47:28.373Z" agent="5.0 (Windows NT 10.0; Win64; x64) AppleWebKit/537.36 (KHTML, like Gecko) Chrome/88.0.4324.190 Safari/537.36" etag="unG_1qG_F5KMTUgLt0Pj" version="14.4.4" type="github">
  <diagram id="_rRTll6MJaY4lGHnkNoq" name="Page-1">
    <mxGraphModel dx="2249" dy="762" grid="1" gridSize="10" guides="1" tooltips="1" connect="1" arrows="1" fold="1" page="1" pageScale="1" pageWidth="827" pageHeight="1169" math="0" shadow="0">
      <root>
        <mxCell id="0" />
        <mxCell id="1" parent="0" />
        <mxCell id="jwVD1ns5xO-XV_3Hdo6c-1" value="" style="shape=note;whiteSpace=wrap;size=16;html=1;dropTarget=0;" parent="1" vertex="1">
          <mxGeometry x="-110" y="435" width="40" height="60" as="geometry" />
        </mxCell>
        <mxCell id="jwVD1ns5xO-XV_3Hdo6c-2" value="" style="html=1;shape=singleArrow;arrowWidth=0.4;arrowSize=0.4;outlineConnect=0;" parent="jwVD1ns5xO-XV_3Hdo6c-1" vertex="1">
          <mxGeometry width="14" height="14" relative="1" as="geometry">
            <mxPoint x="2" y="2" as="offset" />
          </mxGeometry>
        </mxCell>
        <mxCell id="jwVD1ns5xO-XV_3Hdo6c-3" value="" style="html=1;whiteSpace=wrap;shape=parallelMarker;outlineConnect=0;" parent="jwVD1ns5xO-XV_3Hdo6c-1" vertex="1">
          <mxGeometry x="0.5" y="1" width="14" height="14" relative="1" as="geometry">
            <mxPoint x="-7" y="-14" as="offset" />
          </mxGeometry>
        </mxCell>
        <mxCell id="jwVD1ns5xO-XV_3Hdo6c-4" value="" style="shape=image;verticalLabelPosition=bottom;labelBackgroundColor=#ffffff;verticalAlign=top;aspect=fixed;imageAspect=0;image=data:image/svg+xml,PHN2ZyB4bWxucz0iaHR0cDovL3d3dy53My5vcmcvMjAwMC9zdmciIHdpZHRoPSIzNzkuMjAzODU3NDIxODc1IiBoZWlnaHQ9IjE2My45MTg0ODc1NDg4MjgxMiIgdmlld0JveD0iLTAuMDAzODczMzUzODI0MDE5NDMyIDAuMDAzNDU2OTQ3MzkzNzE1MzgxNiAzNzkuMjAzODU3NDIxODc1IDE2My45MTg0ODc1NDg4MjgxMiI+JiN4YTsgIDx0aXRsZT5ETy1sb2dvMDwvdGl0bGU+JiN4YTsgIDxnPiYjeGE7ICAgIDxwYXRoIGQ9Ik03OS4xLDEwMC41MzlWODkuNjcyYTMxLjgyNSwzMS44MjUsMCwxLDAtOS45NjMtNjIuNjQzTDY0LjExNCwxMC41YTUuOTQzLDUuOTQzLDAsMSwwLTQuNDU4LDEuMzU1TDY0LjcsMjguNDY4YTMxLjgzNiwzMS44MzYsMCwwLDAtOS43NzgsNi4yOTJMNDAuNCwyMy43MjZhOC40MTEsOC40MTEsMCwxLDAtMy40MDYsMy4yNjRMNTEuNzU5LDM4LjIwN0EzMS43MzksMzEuNzM5LDAsMCwwLDQ2LjQsNDguMjY1SDI3Ljk1YTE0LjA3NCwxNC4wNzQsMCwxLDAsMCw0LjY1OUg0NS4yOTFhMzIuMDMzLDMyLjAzMywwLDAsMC0uNCw1LjAxN0EzMS42NzEsMzEuNjcxLDAsMCwwLDQ5LDczLjU3OUwzMi45MTEsODYuNjQxYTE5LjEwNiwxOS4xMDYsMCwxLDAsMi44LDMuNzI2TDUxLjYsNzcuNDcyQTMxLjc2OSwzMS43NjksMCwwLDAsNzQuNDM5LDg5LjY3OXYxMC42NzVhMzEuNzkzLDMxLjc5MywwLDEsMCw0LjY1OS4xODVaIiBmaWxsPSIjMzU5ZWE2Ii8+JiN4YTsgICAgPGc+JiN4YTsgICAgICA8cGF0aCBkPSJNNzQuOCw3OS44NjdINjUuNzc5VjM1LjA4NHE4LjYyLS4zMDYsMTEuMDM1LS4zMDYsOS4zODQsMCwxNC44NTcsNS43dDUuNDcyLDE1LjE3OFE5Ny4xNDMsNzkuODY3LDc0LjgsNzkuODY3Wm0tMi45LTM5LjI4MVY3NC4wNmEzNS4zNTYsMzUuMzU2LDAsMCwwLDUuMDc0LjNBMTEuOTg1LDExLjk4NSwwLDAsMCw4Ny4wNTUsNjkuNTVxMy42NjktNC44MTQsMy42NjgtMTMuMzczLDAtMTUuOS0xNC4yNzUtMTUuOVE3NS41OTIsNDAuMjgsNzEuODkzLDQwLjU4NloiIGZpbGw9IiNmZmYiLz4mI3hhOyAgICAgIDxwYXRoIGQ9Ik0xMTguMzksNzkuODY3VjM1LjA4NEgxMjQuNVY3OS44NjdaIiBmaWxsPSIjODA4Mjg1Ii8+JiN4YTsgICAgICA8cGF0aCBkPSJNMTMyLjcyNyw3Ny44MTlsMi4yMzEtNS42MjVhMTUuMjM0LDE1LjIzNCwwLDAsMCw0LjI2NCwyLjA5NSwxNC44MTUsMTQuODE1LDAsMCwwLDQuNTcxLjg0LDguMjUyLDguMjUyLDAsMCwwLDUuNzQ2LTEuOTU3LDYuNDEsNi40MSwwLDAsMCwyLjE3MS00Ljk4Miw3LjgxMSw3LjgxMSwwLDAsMC0xLjIwOC00LjJxLTEuMjA4LTEuOTQxLTYuMDY3LTQuMjM0bC0zLjYwNy0xLjY4MkExNC40MDYsMTQuNDA2LDAsMCwxLDEzNC40MjMsNTNhMTMuMTM5LDEzLjEzOSwwLDAsMS0xLjgxOS03LjA2MSwxMC44NzgsMTAuODc4LDAsMCwxLDMuNTQ2LTguMzE1LDEyLjgzOCwxMi44MzgsMCwwLDEsOS4xMS0zLjNxNy40MjgsMCwxMC4zMzIsMi40MTRsLTEuOCw1LjMyYTE0LjAyOCwxNC4wMjgsMCwwLDAtMy43MjktMS43MTMsMTQuOTM0LDE0LjkzNCwwLDAsMC00LjY0Ni0uODI1LDYuNjYxLDYuNjYxLDAsMCwwLTQuOTA2LDEuNzczLDYuMTM2LDYuMTM2LDAsMCwwLTEuNzg5LDQuNTU1LDcuNDE5LDcuNDE5LDAsMCwwLC42NDIsMy4xMTgsNi41MDcsNi41MDcsMCwwLDAsMS43ODgsMi4zNTMsMjYuNTY3LDI2LjU2NywwLDAsMCw0LjY5MywyLjY2bDMuNjY4LDEuNzQzYTE0LjU3LDE0LjU3LDAsMCwxLDYuNDM1LDUuMTgxLDE0LjQyNCwxNC40MjQsMCwwLDEsMS44NDksNy42NTgsMTAuOTI0LDEwLjkyNCwwLDAsMS00LjA1MSw4LjU1OXEtNC4wNSwzLjUxNi0xMC44MzYsMy41MTZBMTcuOTI2LDE3LjkyNiwwLDAsMSwxMzIuNzI3LDc3LjgxOVoiIGZpbGw9IiM4MDgyODUiLz4mI3hhOyAgICAgIDxwYXRoIGQ9Ik0xNzAuOTY5LDQwLjU4NlY1My4wMjhoMTQuOHY1LjJoLTE0LjhWNzQuMzY1aDIwLjN2NS41SDE2NC44NTVWMzUuMDg0SDE5MS42djUuNVoiIGZpbGw9IiM4MDgyODUiLz4mI3hhOyAgICAgIDxwYXRoIGQ9Ik0yMjMuODIyLDc5Ljg2N2wtMy4wODctOS40NDVIMjA0LjA3NGwtMy4zLDkuNDQ1aC02Ljg0N2wxOC4xODktNDUuMzk0aDEuNjE5bDE2Ljg3NSw0NS4zOTRaTTIxMi42MzQsNDYuMjExLDIwNS43LDY1LjkyOGgxMy4zWiIgZmlsbD0iIzgwODI4NSIvPiYjeGE7ICAgICAgPHBhdGggZD0iTTIzMy4zLDc3LjgxOWwyLjIzMS01LjYyNWExNS4yMzQsMTUuMjM0LDAsMCwwLDQuMjY0LDIuMDk1LDE0LjgxNSwxNC44MTUsMCwwLDAsNC41NzEuODQsOC4yNjMsOC4yNjMsMCwwLDAsNS43NDgtMS45NTcsNi40MTEsNi40MTEsMCwwLDAsMi4xNjktNC45ODIsNy44MTEsNy44MTEsMCwwLDAtMS4yMDgtNC4ycS0xLjIwOS0xLjk0MS02LjA2Ny00LjIzNEwyNDEuNCw1OC4wNzFBMTQuNDA2LDE0LjQwNiwwLDAsMSwyMzUsNTNhMTMuMTM5LDEzLjEzOSwwLDAsMS0xLjgxOC03LjA2MSwxMC44NzUsMTAuODc1LDAsMCwxLDMuNTQ2LTguMzE1LDEyLjgzNSwxMi44MzUsMCwwLDEsOS4xMDktMy4zcTcuNDMsMCwxMC4zMzEsMi40MTRsLTEuOCw1LjMyYTE0LjEsMTQuMSwwLDAsMC0zLjczMi0xLjcxMywxNC45MjgsMTQuOTI4LDAsMCwwLTQuNjQ1LS44MjUsNi42NjEsNi42NjEsMCwwLDAtNC45MDYsMS43NzMsNi4xMzYsNi4xMzYsMCwwLDAtMS43ODksNC41NTUsNy40MTksNy40MTksMCwwLDAsLjY0MiwzLjExOCw2LjUwNyw2LjUwNywwLDAsMCwxLjc4OCwyLjM1MywyNi41NjcsMjYuNTY3LDAsMCwwLDQuNjkzLDIuNjZsMy42NjgsMS43NDNhMTQuNTYxLDE0LjU2MSwwLDAsMSw2LjQzNCw1LjE4MSwxNC40MTQsMTQuNDE0LDAsMCwxLDEuODQ5LDcuNjU4LDEwLjkyMiwxMC45MjIsMCwwLDEtNC4wNDksOC41NTlxLTQuMDUzLDMuNTE2LTEwLjgzNywzLjUxNkExNy45MjYsMTcuOTI2LDAsMCwxLDIzMy4zLDc3LjgxOVoiIGZpbGw9IiM4MDgyODUiLz4mI3hhOyAgICAgIDxwYXRoIGQ9Ik0yNzEuNTQxLDQwLjU4NlY1My4wMjhoMTQuOHY1LjJoLTE0LjhWNzQuMzY1aDIwLjN2NS41SDI2NS40MjdWMzUuMDg0aDI2Ljc0N3Y1LjVaIiBmaWxsPSIjODA4Mjg1Ii8+JiN4YTsgICAgPC9nPiYjeGE7ICAgIDxnPiYjeGE7ICAgICAgPHBhdGggZD0iTTU3LjU2MiwxMzEuMjMzcTAtOS43Miw0Ljg3Ni0xNi4yNjJhMTUuNTY0LDE1LjU2NCwwLDAsMSwxMy4xNi02LjU0MnE5LjMyMywwLDE0LjI5MSw2LjAyM3Q0Ljk2NywxNi43ODFxMCwxMS4wMzctNC45ODMsMTcuMjg3VDc1LjYsMTU0Ljc3MmExNS40NTQsMTUuNDU0LDAsMCwxLTEzLjI1Mi02LjZRNTcuNTYxLDE0MS41NjYsNTcuNTYyLDEzMS4yMzNabTYuNDIsMGEyNS4wMDYsMjUuMDA2LDAsMCwwLDMuMDQxLDEyLjg3cTMuMDQyLDUuMTY3LDguNTc1LDUuMTY2YTEwLjksMTAuOSwwLDAsMCw5LjU1My00LjczOHEzLjI4NS00LjczNywzLjI4Ni0xMy4zLDAtMTcuMy0xMi44MzktMTcuM2E5LjYzMiw5LjYzMiwwLDAsMC04LjY1MSw0LjY0NlE2My45ODIsMTIzLjIyNSw2My45ODIsMTMxLjIzM1oiIGZpbGw9IiNmZmYiLz4mI3hhOyAgICAgIDxwYXRoIGQ9Ik0xNDYuMTczLDE1NC42MTlsLTIzLjE0LTMyLjczOXYzMi4xMjhoLTUuODA5VjEwOS4yMjRoMi40NDZMMTQyLjIsMTQwLjE5MVYxMDkuMjI0aDUuODA4djQ1LjRaIiBmaWxsPSIjODA4Mjg1Ii8+JiN4YTsgICAgICA8cGF0aCBkPSJNMTczLjUsMTE0LjcyN3YzOS4yODFoLTYuMTE0VjExNC43MjdIMTUzLjE0M3YtNS41aDM1LjI0NnY1LjVaIiBmaWxsPSIjODA4Mjg1Ii8+JiN4YTsgICAgICA8cGF0aCBkPSJNMTg3LjkzMSwxMzEuMjMzcTAtOS43Miw0Ljg3NS0xNi4yNjJhMTUuNTY3LDE1LjU2NywwLDAsMSwxMy4xNjEtNi41NDJxOS4zMjIsMCwxNC4yOTEsNi4wMjN0NC45NjcsMTYuNzgxcTAsMTEuMDM3LTQuOTgzLDE3LjI4N3QtMTQuMjc1LDYuMjUyYTE1LjQ1MywxNS40NTMsMCwwLDEtMTMuMjUyLTYuNlExODcuOTMsMTQxLjU2NiwxODcuOTMxLDEzMS4yMzNabTYuNDIsMGEyNS4wMDYsMjUuMDA2LDAsMCwwLDMuMDQxLDEyLjg3cTMuMDQxLDUuMTY3LDguNTc1LDUuMTY2YTEwLjksMTAuOSwwLDAsMCw5LjU1My00LjczOHEzLjI4NS00LjczNywzLjI4NS0xMy4zLDAtMTcuMy0xMi44MzgtMTcuM2E5LjYzNSw5LjYzNSwwLDAsMC04LjY1Miw0LjY0NlExOTQuMzQ5LDEyMy4yMjUsMTk0LjM1MSwxMzEuMjMzWiIgZmlsbD0iIzgwODI4NSIvPiYjeGE7ICAgICAgPHBhdGggZD0iTTIzMi4yNTYsMTU0LjAwOFYxMDkuMjI0aDYuMTE0djM5LjI4MWgyMC4yMzd2NS41WiIgZmlsbD0iIzgwODI4NSIvPiYjeGE7ICAgICAgPHBhdGggZD0iTTI2MS44MTYsMTMxLjIzM3EwLTkuNzIsNC44NzctMTYuMjYyYTE1LjU2MSwxNS41NjEsMCwwLDEsMTMuMTU5LTYuNTQycTkuMzIzLDAsMTQuMjksNi4wMjN0NC45NjcsMTYuNzgxcTAsMTEuMDM3LTQuOTgxLDE3LjI4N3QtMTQuMjc2LDYuMjUyYTE1LjQ1LDE1LjQ1LDAsMCwxLTEzLjI1MS02LjZRMjYxLjgxNiwxNDEuNTY2LDI2MS44MTYsMTMxLjIzM1ptNi40MTksMGEyNS4wMDYsMjUuMDA2LDAsMCwwLDMuMDQzLDEyLjg3cTMuMDM5LDUuMTY3LDguNTc0LDUuMTY2YTEwLjksMTAuOSwwLDAsMCw5LjU1Mi00LjczOHEzLjI4NS00LjczNywzLjI4NS0xMy4zLDAtMTcuMy0xMi44MzctMTcuM2E5LjYzNSw5LjYzNSwwLDAsMC04LjY1Miw0LjY0NlEyNjguMjM4LDEyMy4yMjUsMjY4LjIzNSwxMzEuMjMzWiIgZmlsbD0iIzgwODI4NSIvPiYjeGE7ICAgICAgPHBhdGggZD0iTTMzNy4xNjgsMTEyLjM0MmwtMi41MzcsNS4wNDRhMTUuMjM3LDE1LjIzNywwLDAsMC05LjA0OS0zLjQyMywxMy41ODYsMTMuNTg2LDAsMCwwLTExLjA5NSw0Ljk1MnEtNC4wNjcsNC45NTEtNC4wNjcsMTMuMTE0LDAsNy43NjQsMy45ODksMTIuNWExMy40NTksMTMuNDU5LDAsMCwwLDEwLjg2Nyw0LjczOCwxMC45LDEwLjksMCwwLDAsNy45MTktMi45MzRWMTM1Ljg1aC02LjIwNnYtNS4yaDEyLjMxOXYxOS41YTE4LjM0NCwxOC4zNDQsMCwwLDEtNi44MTYsMy4zNDgsMzAuNDYxLDMwLjQ2MSwwLDAsMS04LjUsMS4yNjhxLTkuMjY0LDAtMTQuNjI4LTYuMjgyVDMwNCwxMzEuNzg0cTAtMTAuMzkyLDUuODg1LTE2Ljg1OXQxNS44OC02LjQ2NVEzMzIuNzY2LDEwOC40NiwzMzcuMTY4LDExMi4zNDJaIiBmaWxsPSIjODA4Mjg1Ii8+JiN4YTsgICAgICA8cGF0aCBkPSJNMzY0LjgzMywxMzMuOTU0djIwLjA1NEgzNTguNzJWMTMzLjk1NGwtMTQuNDI5LTI0LjczaDYuM2wxMS4xNTgsMTkuNTY1TDM3Mi45LDEwOS4yMjRoNi4zWiIgZmlsbD0iIzgwODI4NSIvPiYjeGE7ICAgIDwvZz4mI3hhOyAgPC9nPiYjeGE7PC9zdmc+;" parent="1" vertex="1">
          <mxGeometry x="734.24" y="160" width="69.33" height="30" as="geometry" />
        </mxCell>
        <mxCell id="jwVD1ns5xO-XV_3Hdo6c-7" value="pmc_result_for_organoid_full_&lt;br&gt;20210226.xml" style="text;html=1;align=center;verticalAlign=middle;resizable=0;points=[];autosize=1;" parent="1" vertex="1">
          <mxGeometry x="-180" y="500" width="180" height="30" as="geometry" />
        </mxCell>
        <mxCell id="jwVD1ns5xO-XV_3Hdo6c-19" value="" style="endArrow=block;endFill=1;endSize=6;html=1;" parent="1" edge="1">
          <mxGeometry width="100" relative="1" as="geometry">
            <mxPoint x="25" y="475" as="sourcePoint" />
            <mxPoint x="125" y="475" as="targetPoint" />
          </mxGeometry>
        </mxCell>
        <mxCell id="jwVD1ns5xO-XV_3Hdo6c-21" value="inform_extract.XmlHandler.&lt;br&gt;pmc_pattern_print" style="text;html=1;strokeColor=none;fillColor=none;align=center;verticalAlign=middle;whiteSpace=wrap;rounded=0;" parent="1" vertex="1">
          <mxGeometry x="-75" y="435" width="310" height="20" as="geometry" />
        </mxCell>
        <mxCell id="jwVD1ns5xO-XV_3Hdo6c-23" value="" style="shape=note;whiteSpace=wrap;size=16;html=1;dropTarget=0;" parent="1" vertex="1">
          <mxGeometry x="225" y="435" width="40" height="60" as="geometry" />
        </mxCell>
        <mxCell id="jwVD1ns5xO-XV_3Hdo6c-24" value="" style="html=1;shape=singleArrow;arrowWidth=0.4;arrowSize=0.4;outlineConnect=0;" parent="jwVD1ns5xO-XV_3Hdo6c-23" vertex="1">
          <mxGeometry width="14" height="14" relative="1" as="geometry">
            <mxPoint x="2" y="2" as="offset" />
          </mxGeometry>
        </mxCell>
        <mxCell id="jwVD1ns5xO-XV_3Hdo6c-25" value="" style="html=1;whiteSpace=wrap;shape=parallelMarker;outlineConnect=0;" parent="jwVD1ns5xO-XV_3Hdo6c-23" vertex="1">
          <mxGeometry x="0.5" y="1" width="14" height="14" relative="1" as="geometry">
            <mxPoint x="-7" y="-14" as="offset" />
          </mxGeometry>
        </mxCell>
        <mxCell id="jwVD1ns5xO-XV_3Hdo6c-26" value="pmc_result_for_organoid_full&lt;br&gt;_pattern1_20210226.xml" style="text;html=1;align=center;verticalAlign=middle;resizable=0;points=[];autosize=1;" parent="1" vertex="1">
          <mxGeometry x="160" y="500" width="170" height="30" as="geometry" />
        </mxCell>
        <mxCell id="jwVD1ns5xO-XV_3Hdo6c-27" value="&lt;font color=&quot;#ff0000&quot;&gt;formatted&lt;br&gt;data&lt;/font&gt;" style="text;html=1;strokeColor=none;fillColor=none;align=center;verticalAlign=middle;whiteSpace=wrap;rounded=0;" parent="1" vertex="1">
          <mxGeometry x="225" y="395" width="40" height="20" as="geometry" />
        </mxCell>
        <mxCell id="jwVD1ns5xO-XV_3Hdo6c-29" value="" style="endArrow=block;endFill=1;endSize=6;html=1;" parent="1" edge="1">
          <mxGeometry width="100" relative="1" as="geometry">
            <mxPoint x="365" y="475" as="sourcePoint" />
            <mxPoint x="465" y="475" as="targetPoint" />
          </mxGeometry>
        </mxCell>
        <mxCell id="jwVD1ns5xO-XV_3Hdo6c-35" value="" style="shape=note;whiteSpace=wrap;size=16;html=1;dropTarget=0;" parent="1" vertex="1">
          <mxGeometry x="559" y="435" width="40" height="60" as="geometry" />
        </mxCell>
        <mxCell id="jwVD1ns5xO-XV_3Hdo6c-36" value="" style="html=1;shape=singleArrow;arrowWidth=0.4;arrowSize=0.4;outlineConnect=0;" parent="jwVD1ns5xO-XV_3Hdo6c-35" vertex="1">
          <mxGeometry width="14" height="14" relative="1" as="geometry">
            <mxPoint x="2" y="2" as="offset" />
          </mxGeometry>
        </mxCell>
        <mxCell id="jwVD1ns5xO-XV_3Hdo6c-37" value="" style="html=1;whiteSpace=wrap;shape=parallelMarker;outlineConnect=0;" parent="jwVD1ns5xO-XV_3Hdo6c-35" vertex="1">
          <mxGeometry x="0.5" y="1" width="14" height="14" relative="1" as="geometry">
            <mxPoint x="-7" y="-14" as="offset" />
          </mxGeometry>
        </mxCell>
        <mxCell id="jwVD1ns5xO-XV_3Hdo6c-39" value="&lt;span style=&quot;color: rgb(0 , 0 , 0) ; font-family: &amp;#34;helvetica&amp;#34; ; font-size: 12px ; font-style: normal ; font-weight: 400 ; letter-spacing: normal ; text-indent: 0px ; text-transform: none ; word-spacing: 0px ; display: inline ; float: none&quot;&gt;pmc_result_for_organoid_full_&lt;/span&gt;&lt;br style=&quot;color: rgb(0 , 0 , 0) ; font-family: &amp;#34;helvetica&amp;#34; ; font-size: 12px ; font-style: normal ; font-weight: 400 ; letter-spacing: normal ; text-indent: 0px ; text-transform: none ; word-spacing: 0px&quot;&gt;&lt;span style=&quot;color: rgb(0 , 0 , 0) ; font-family: &amp;#34;helvetica&amp;#34; ; font-size: 12px ; font-style: normal ; font-weight: 400 ; letter-spacing: normal ; text-indent: 0px ; text-transform: none ; word-spacing: 0px ; display: inline ; float: none&quot;&gt;pattern1_matchomics_v2.txt&lt;/span&gt;" style="text;whiteSpace=wrap;html=1;align=center;" parent="1" vertex="1">
          <mxGeometry x="484" y="495" width="190" height="40" as="geometry" />
        </mxCell>
        <mxCell id="jwVD1ns5xO-XV_3Hdo6c-40" value="grep using&lt;br&gt;omics_keywords_v2.txt" style="text;whiteSpace=wrap;html=1;align=center;" parent="1" vertex="1">
          <mxGeometry x="360.55" y="425" width="120" height="30" as="geometry" />
        </mxCell>
        <mxCell id="jwVD1ns5xO-XV_3Hdo6c-41" value="" style="endArrow=classic;html=1;" parent="1" edge="1">
          <mxGeometry width="50" height="50" relative="1" as="geometry">
            <mxPoint x="360.55000000000007" y="535" as="sourcePoint" />
            <mxPoint x="465" y="595" as="targetPoint" />
          </mxGeometry>
        </mxCell>
        <mxCell id="jwVD1ns5xO-XV_3Hdo6c-42" value="" style="shape=note;whiteSpace=wrap;size=16;html=1;dropTarget=0;" parent="1" vertex="1">
          <mxGeometry x="575" y="700" width="40" height="60" as="geometry" />
        </mxCell>
        <mxCell id="jwVD1ns5xO-XV_3Hdo6c-43" value="" style="html=1;shape=singleArrow;arrowWidth=0.4;arrowSize=0.4;outlineConnect=0;" parent="jwVD1ns5xO-XV_3Hdo6c-42" vertex="1">
          <mxGeometry width="14" height="14" relative="1" as="geometry">
            <mxPoint x="2" y="2" as="offset" />
          </mxGeometry>
        </mxCell>
        <mxCell id="jwVD1ns5xO-XV_3Hdo6c-44" value="" style="html=1;whiteSpace=wrap;shape=parallelMarker;outlineConnect=0;" parent="jwVD1ns5xO-XV_3Hdo6c-42" vertex="1">
          <mxGeometry x="0.5" y="1" width="14" height="14" relative="1" as="geometry">
            <mxPoint x="-7" y="-14" as="offset" />
          </mxGeometry>
        </mxCell>
        <mxCell id="jwVD1ns5xO-XV_3Hdo6c-45" value="&lt;font face=&quot;helvetica&quot;&gt;pmc_result_for_organoid_full_&lt;br&gt;pattern1_matchlines_v2.txt&lt;/font&gt;" style="text;whiteSpace=wrap;html=1;align=center;" parent="1" vertex="1">
          <mxGeometry x="500" y="760" width="190" height="40" as="geometry" />
        </mxCell>
        <mxCell id="jwVD1ns5xO-XV_3Hdo6c-46" value="&lt;span&gt;inform_extract.TextHandler.&lt;/span&gt;&lt;br&gt;pmc_extract_omics_lines" style="text;whiteSpace=wrap;html=1;align=center;rotation=30;" parent="1" vertex="1">
          <mxGeometry x="325" y="575" width="150" height="40" as="geometry" />
        </mxCell>
        <mxCell id="jwVD1ns5xO-XV_3Hdo6c-51" value="&lt;p style=&quot;margin-top: 0pt ; margin-bottom: 0pt ; margin-left: 0in ; text-align: center ; direction: ltr ; unicode-bidi: embed ; word-break: normal&quot;&gt;&lt;span&gt;&lt;font color=&quot;#ff0000&quot;&gt;Extrated&lt;br&gt;articles with omics data&lt;/font&gt;&lt;/span&gt;&lt;/p&gt;" style="text;whiteSpace=wrap;html=1;" parent="1" vertex="1">
          <mxGeometry x="514" y="385" width="130" height="50" as="geometry" />
        </mxCell>
        <mxCell id="jwVD1ns5xO-XV_3Hdo6c-52" value="" style="shape=image;verticalLabelPosition=bottom;labelBackgroundColor=#ffffff;verticalAlign=top;aspect=fixed;imageAspect=0;image=data:image/png,iVBORw0KGgoAAAANSUhEUgAAAVoAAACNCAYAAAD2HbJVAAAAAXNSR0IArs4c6QAAAARnQU1BAACxjwv8YQUAAAAJcEhZcwAADsMAAA7DAcdvqGQAACxtSURBVHhe7Z0HWBRZ1oZ3ZyftmLOiCKJIRhBFwISKOWHOEXNCEAEJSs45B8lGTGPOOeecszM6cSfszszObPr+e6ppbdtCUGmC/7nP8z5C9+2q7pJ6+9S55976k/n8FWAYhmE0B4uWYRhGw7BoGYZhNAyLlmEYRsOwaBmGYTQMi5ZhGEbDsGgZhmE0DIuWYRhGw7BoGYZhNAyLlmEYRsOwaBmGYTQMi5ZhGEbDsGgZhmE0DIuWYRhGw7BoGYZhNAyLlmEYRsOwaBmGYTQMi5ZhGEbDsGgZhmE0DIuWYRhGw7BoGYZhNAyLlmEYRsOwaBmGYTQMi5ZhGEbDsGgZhmE0DIuWYRhGw7BoGYZhNAyLlmEYRsOwaBmGYTQMi7aS0oaYp0DueYZhqg4s2kqIqmRZtgxT9WHRVjBKkbadW4B2swvQYVYBbGfmw25GPjpNz0dH8a+N+N1aPE7Pt527AhYsXoapUrBoKxASLEnTUsiTREpi7T41Dz0n56LPxFz0m5CDvuJfh8l5sHcS0hXPk4hJthT1ym2TYZjKB4u2AlFK1mrOCimC7TElDwPG52DomGyMGJWNMcOzMGpkNhzH5Ajp5krPk2zbzS6KhGW2yTBM5YNFW4GQZKV0wcwCdBORLEl21MgsjB+WicmOGXAalIapjimYMCwZo0YlYej4JAycloTec5PR3SUFXV3S0MklA7YuWWjvnIO2C/KEfAsk5PbHMEzFwKKtQKzmFEj5187T8qVUwXARxU52zMSMgWmY3T8Z8/rFY17/aMwZFIaZQwIxfbQfnJz8MNXZDxM9AjDKIxSO7lHo454A+0VpsFmYBcsF+RJy+2MYpmJg0VYg7UU0S3lZSgk4js3GhKHLMad/Ohb2ToZrrzi49YyAe89AuPfxgkc/V3gOmw8vp3nwcZ0LL9/5cPZ1xzSfpRjtHYr+HnHo4pouotp8Cbn9MQxTMbBoKxBrIdou0/LQa1Iuho3OwhTHdDj3ScZihxh49giGVzdv+HZ3hV/PWQjsMxFhQ0cjdvpIpHqOQFrwKEQHT0ZAyGy4By/CtGXLMHRJFLqJyJaQ2x/DMBUDi7YCUYg2v0i0mZgyOFlEs7Hw6BEoJLsYS+1nIKDbOIQ6DEFknz5IGt4d+XPssdmvK3bFin/je6MwYRByE0YiLGImFgZ4YKx3iITc/hiGqRhYtBUIpQ4oP9uTRDsqHVMHx2Nhr3B4dl8CX/vpCOgyBKFdeyDaoSMS+1ghd6QZdjib4GyYIW6nG+L6cjNcyWmL0zl2WJ88CDFRU+EauFhCbn8Mw1QMLNoKRDVHO3RsKqYOjcKi/v7w7b0AgT1HI6JHN8T3tEJaP1PkOupj40RdHPdojvuxTfF9XlN8t6I5vl3dAl+uMcTJ7E5Ym+SImEgnCbn9MQxTMbBoKxBF1YEiqh00KRlOY0PgMcIdQUOnImbIQKQ52iBvuCnWjjPA5ql6OOCsg8uB2vgytSl+XqmFn1Y3w09rm+P7Qj3cKLDEoeX2UmRLyO2PYZiKgUVbgUh1tEK2NNur//REOE1dBp9JcxE1cRTSJ/bA6olthGBbYc9cPRx108EFP20pmv0uWwu/rm2CX9dp4bf1WvjHem08XW2AmwUWOJNtJyG3P4ZhKgYWbQVCs7tItjSltt+ceEyf4wX/OVORPHcQVs3riB0LDHFkkQ7O+jTH1WBt3Itthq8ytEQ02wS/r2+MPzY0xr82NsbvG5rgp3U6+HqNPh6tMpaQ2x/DMBUDi/ZdWUCsVGEVzJ3VoMdU+8wnFFNoldNw+zvHYc4iT4R7TEKed3/sWGaDM4H6uBHWDPdimuFxUlNJsj/kaeGXNU0kySpF+8fGJvj7uub4bq2eFNkSr7xPhmEqDBbtu6AqWWeCxLoa5gtloMdVpasiW4psByyKhbOPOxKCJmBDZB8cT2iP+2l6+Ga5Fr7P0cKPBUKmq5pIKYPf1ykEq4RE+8v6ZvixUBffrm0p8cp7ZRimwnivRauUGEWNUuRYFD3SkoSElQzK56gf9Ve+9qVFXJRylQQrxKmUqcsawVqYuxa+Cj2+UDxPkHTVhDvAIxYuAe5IiRmP7Wm9cTmvHb5f2+J51PrvTS9QlexLol3HomWYysh7KVrlJTmJk0qobGflo/OMfHSblgeHqXnoPSUX/SblYuDElxkgHqPH+0xW9LMX/TuJ19nOEtuZIwRM0hVibCNFrUKYQqBmi9bDbPEGmLlvgpnHZph5boHZkq1FbFPgKX72EI+7i+cXb4K52waYL1oHMyFfM7EdMyHrPh6JmO3vg4jIaShMHoTT2bb4Zk1L/HNDE0mkStmqS5b45wYt/K2wBb5YbYjbK9pIyB0XhmEqhvdOtMoolqLSDlSnKkTZ3SkPfSfnYgitjjUmGxNGZWHq8CzMGLocM4csx6wipg/NwhTx+ISR2VI/R9GfXkev7zSTZCu2O38VLBauRRshWPPFG4VEhTy9hEx9dsLMdzfMlu6F2bJ9gv0vWCp+9xWP++6BmbfoJ+RrTlKm17uug6mQrYN7CqYsC8DS0PnIiR+JI8u74Onq1vhtQ1NJpErZqkOPU59na1rjRoEFTmbbScgdG4ZhKob3SrTKSJYu+aXJALTGKy0/OFEhWJLrXMdMLBqQAa8+6fDrmQ5/QYBDOgId0rC0VzqW9MmAW/9MzBm8HJNF/5HidRTt9nDKh90ssd35q9HWZR3aiMhUilSFYE2X7YWp/0GYBh6GadAxmAYfF5x4QZD4PVA8HnAEZn4HhHhJuDuk6NdUyNbUpRD27hkY4xsG1yB3JMVMxJ4MB6l64O/rtfGrEClVFrwsWIVkf9+oKO96sNJEioIp7UDIHR+GYSqGKi9aqUSqKIK1EZf4XafnS6kBil7Hj8qWIlaXAZmSWIN6pCGqayriO6cg1S4FmTbJWC7I6qAgwzYZKeLxhE4piLBPhb+Q75Le6Zg7MBPjhwrhjhLR7aSVsJ21XkS1W2DisQsmPgdg7H8MRkGnYBR8BkYh52AUev4FIYR4LPis6HMGxoEnYRJwDCZ+h2Diuw+mXkLUHltgt2QFBvgkY9KyYPiGOkvrFxzL6ozbBeZSSoBSAyRUysX+KqCfv1+rhy9XG+DOCnMcXt4Va5MGIyF6koTcsWIYpmKo8qKVcrFzCqQFWigHO3hCjrj0z8K8wZnwFnIlYZI8s62TsaptEta3ScTn5gnYZpqAnSbxEruMFWwXP281jcdm8XyhRSIKrBKx3DoJER1TsbhbOqb0Xo7BQwpgP1GIdu4OGC0+AEOf4zAIPAeD0EuCK2gddlVwTXD9BaHi99Cr0vMGIRdhGHxekrJxwHGYLBPC9dmD9t6bYO+djwHeyZjh74fQyFlYk+SIQ5ldpYGxJ6uMJLH+UKiLnwp18L0Q70MRxdJzh5fbY2XiUIRHTIezv4eE3LFiGKZiqPKitRSRLEnWbma+NJA1aUSWuPTPQGj3NClC3SDEuscwHof143BKLxbndWJwUXCpeQyuNI/GFW0FVwWXxe+XBBd1onGmRQyOif4HW8VijVECYiyS4WadhgkOeeg9YgMsZ+6GwaKjaO1zFvrB19Aq/LbgjuAuWobfU+Ou9Dg9rx9+C63Db8Ag/JqIeC/COOi0iHCPos3S3WjntQm27isw2Dse8wO9EBU5DasTh+BApj1u5FtIOduv17TCt0K4z1br40qelXiumxDyECHZGZjj542B7jEScseKYZiKoUqKVsrDzlVUFVA1AQ1YjRibIw1uUYogpksqckQkut4iAXuM4nFMyFKSrK5CsJdJskVyJa4VQT9L4hWyPStke1QIea94TX7LOAS1jscMo0QMbpeBjt1XwMBxA5pP2AWdOUeg63Eeun7X0SLwFvRCSbT31VAVLsn4tiRcAxHlGooIl1IKZv6HYeG7E+2WbEAv7+WY6BcG92A3RArZ0uDYltS+klQpwqWBsv3i53XJg5AeOw7BYbOwwN8To7xC0X1RioTccWMYpmKokqIlyVK5FeVkSbJUJeAyMFPKwabaJWOtZSJ2mMTjgEEcTrSMxVkRnb6Q7MtRrCyiz2nx70HBDkG6dgw8BSMFXVslwsw8A01t8tCg1zo0Hr0bWrNPQNv9InR8hWyD7kBPyPU5YaoI2RJS1Cui2zAR3YZeh0HIFSmyNfM7BEvfHejiuxqDl1IVQpC0xuyy0PmIjpyK5JjxUp1tasw4JEZPREDYHLgGLMZUXz8MXxKBXm6JsF24XELuuDEMUzFUSdFSJEuS7SKiWYpkSbLRXVOR1z4JW80SpAiWxEopABKrUqBKwb5WskWcahaNfU2j8XmTaMQ2jMLcepHoVTsCFvWjoKsVh9q6yajeJge1e25Cg3EH0GTeGTTzuAydgNtoEf5AQZgc9yVIvCRdRTrhtpDtZRgHnoK530FYL92Cbt4F6L8kCSO8IjDRJxCzlvlgvohalczy88ZY72AMcI9FV9c02Am50g0aLRYUSMgdt4rAM+8Y9l9+gq9//BX//OPf+N//8Lz98e//4vu//xMnbj5D0NrTsHVbK7uNysy0xH345qdfiz4RcP+rn2T7vU9sPHGv6NOWvv3+r//g51//wPUnf0PWnmtwDN4qu+3i8Mo/jl9+/1fR1iAdczr2cn0rI1VKtJQyIDrOzEcvWsN1fA7mOC5HiIhkSbJbhGQPiij2nIhg6fJfKU1lWqAkVEV8WEh2U5MoZDWKgk/9SIypE4H2NcKgVysCDetFoVqjWHzaMhXVrVeidt8tqD/2ABrPPgXtJVehG3QXuiH30CKUpConWwWSbMNJtnelyNYo+DxMAk6g7bI9sPNZj+6eWejjkYRBnrFSxEqpAWKkVxiGid/7Lo6XJGvtnA2rBbmV6qaMcZsv4Ksffn1JrCW1H3/5HfkHblYp4bJo367Rl+7O84/Q03ej7D7UYdGWI7TKFdHDKU+qb50tJOvfUzHotdUsHodax+FUy1hpsEtOpCVBgr1cxG6tKOQKyYYKyc6sKy7La4WjlRBtfUENIduP60TiI614fGqYiWrWK1Cr1+dSZKvlfA7Nl96UIlvdYCFbGcEq0ZOgyPY+9ENvSSkEo6BzMPc/jPY+W9HRcyW6umeh++J0OCxOQU+3pOf0cEtGZ9d06c63VgvyJMlWhtuMj4/ehXN3v3kjwao2et3jb/8O54xDstuvbLBo363R//Wc1AOy+1GFRVuO0NqtxICJuZg5VCHZNCHZTeYJUi72grKaoEicbwoJ9pLgomCzEG1Cwyi41o3E0NoRsKoZhnrVQ/FJtVB8JPiAEI9/2CQeH+ul4jOrfNQZsA2Npx+HtudV6AjZUmQrJ1glCtEqaBV6R0S1N2AoZGsScAoWvnvQznM9rN1Wor2r+NwL89DOOfc5VoK2QrAWRYKtDJKlE4ZOHPX23//+D89++AV7Lj5G5MZz0kmzdOVJrDt+F7e+/AH/+s9/i3q+aD+Jy8yw9Wdl91OZYNEClx9+h61nHhQLpY5uP/1R+j+V+wJ+9rdfSpQti7Yc6TI9X2Ls6Gx49M1AcscUaeBrr1GclJOVk+ebQKIlyZ4TFDaJQnCDSEyuE4EeIpo1EJFsdUmwIfjzZ0WIxz6oF4UPG8fhE4MM1Oy6Dg1G74fWvLNo5n4FOn63ZAWrilK0Ur429LYkW6PAczBdehAWnpth6VYIC5c1aEOrg8kck8oC5dzoZFJtdFLdePI3zErZL/saJRQF08moLty///YHAteeln0NU3Goi5Z+l+snx8LMw9KXq7pwrz3+/rUpIxZtOUKRLEEpg7BuaVjdVlFdcFT/7dMFqlA0S5I93SwaBY2j4FU/EkNqh8NaRLO6NULxVyHaP6uKVkS4HwgJk2w/ap6Eau0KUKffVjSceBha88+iufd1tAiVF6wqCtlSRcIdIdtbMAi6COOlR2C2ZDvaLN6oWP2LVgmTOSaVATpBTt766qWThwY/Vh2+Jdu/OGI3X8A/fntxMlH78vt/SCKW689UDO8iWkLu7+Xf4ks2/8AN2f4Ei7YcoUiW8BTRbLptMnYbK2pkz7aIlWpj5eT5JlA0e0ZI9oQgs3EkFtSPQLfaYTAWom0sRPsxSbaIPxVBsv2zeO4vDWLwqVEmanRai7qDd6KR03E087iiEK0SNcGq8qL86y70g67AcNkJmHjtgSmt+OW6XrG0oswxqQyk7rgiiVXZ6OfM3Vdl+5YERbAUySobnYy7LzyS7ctUDO8qWkLuCojSTsVVI7BoyxFaEIagWV8rrZJEJKuoMKBo9m3zsqpcEFA0e7RpNFKEaGfWi4BNrTC0rBmK+kKoH6kI9jkisv3TZ8H4oE4EPm6Rgs8s81Crx0Y0GHsATV0uQDfoHnSD75cisn1Ra9sq+BoMlp2Ckdc+mLhvg+mijTCrpKKl6OTmFz8U/fkrxHjo6peyfUvLtrMP8V+VcIdKwEozYMKUD2UhWsJ/9amXvlTpCzp+y0XZvizacsSnd7oE5WY3tkmQZns9n06rJs234bzgpBAtlXYlNoqEkxCtlRCtjohY65Yk2lrh+KhZglSFUN12NeoN3YUmc89Ax+82dAPvokXI60u9CIVo7wvRXkdrv9Mw8j4AE4/tRaJdI3tMKprgwjP49fd/F/35Q6qVpNpZub6lhVIFNECibCTdwqN3XumnesKrnnh0UlLOj96X0tdUs/vwm5+xfM+1V3KBtL/dFx6/NFhDA3gk+C2n77+2BIn2SftWttIMhtH26H1QrlL1PdI+STwXH3wrSUjuterQZ6XLcCqNo9crG31eeoyeK+22SktZiZY4f++boq0o2qnbX8n2Y9GWIzS1lshvnyQtAkMDYNJ6BSo1s+8C5WcpbXBQiDZOiHayEG0bIdpmQrS1hWg/fI1o/1wzDB82isHHusn4rE2OlKttPP0EmvvcUMi2hFIvQpGrJdHeQGv/szDyOQQTz51CtJsqrWh3nX9U9KevaCQJuX5vivp2aVBNvY+6aCnqPXr9Kf6jIhz1RlI7e/eb55eoGbuvvpIXVm802WKJONHV90+8qWipvvhvQuAlNXqfVx59V2x+mt4/jfYrJf26Rn3uPfupxEHJ0lKWoqXjrzoISumDgYFbXunHoi1HaElDghaKoem1FMnKCfNtOScke1xwQIg2Voh2ohCtmRCtlhBtrdeKNkSRp6UKBK04fGqQgVoOG9Fo8hGp1IvqaqVSr/CHQqjE60T74FXRun1eaUVLAlQ2ijxXH7kt2+9NCV13Fr/98SJSJjnNTz/4Uh/VE/7bn36TJF9a8VDel/LIqrnl17Xi8odvItrNIjp+3ZeAXKPtqctWLr9ZmkZfGGWRgilL0dLVj+oXHV1VuGUfeaUfi7YcobwssdU0AUf0aQBMXphvS3GibVoa0VYPwwd1IvGXhjH4pGUqatqvQ8Pxh9Bs8WUpqpXSByTa18i22Ii2kop2ctwe6eRVNpIWVQ7I9X1TZibvx3c//1a0ZUjSJfmq9lE94UnySsmSlGkEe0zkTqkfnczqJUV00ipFTic6SVB54pKMTotLWFUp0qh41t7rL+2fKK1o1aVO74Vmzqm+T9oWfQGo96Mpyqrboi8z1TSB8vOqisc164hUMqe+rR3nHr60rbehLEWrfvyK+xti0ZYjlJcldhvFSxMUKGVQ2um1pUFVtJQ6mCREa14k2uJTB6ESkmhrRUhR7cc6SVL1Qf3R+9HU5SK0va5DJ4BE+6hY0SqjWaVoDfzPCNEeFKLdIURbOVMH6tEInQh0Qsj1fVMoj/rg65+Ltgzp8jJ955WX+qif8NQo0pOLPOkxunxWb/RFUdwsNPVBObn8YWlEq55zpk1S7rS43K965QXlcSkXTs/RcVH9HBTJvy5KpTUkVP+Pnor3oRT721KWoiXomCmb3P8zwaItR7aZxktQ2uCUnmIArCxFS4NhyhxtghDtFCFaSyHa5kK0dSTRCqmqifbPlJ8lqgXjg5ohIqoNxUfaMahhm4/6I3egqfNJaHtegK7/dehF3INeuEDIVF60LwbDSLTGPgcqtWg1/cevegJSUz+h1U/4kgbipEhQRZzFndRK1L9I5CRaGtFSJEwRsbJRdC2Xh1SFImzV90o5a3pcfX80mKT+WnUopUKRIg2OUd53btrLKZg3RZOipauIvP2v1tOyaMsRmpxA0MIxVHFQ1qKl8i5atUtR3hWFWfUjYFs7HK1qKtY4oKm3klwlSK5BAn/BMnxQ3Rd/qeWDD+t64xNtP9S0TUDDEQVotmArmnvsQwv/42gZcQEtw68Imd4Q3BXQAJlCupJoi9av1Q+5BkP/00K0+2HqsQ1mi0Tkw6ItUbQlDcTRJanqpTRFmcUNNhGlkWhp+tD7Ujbaf3ElTKpQnvKHf/yOX/75Lzz65mdpKis9rr6/kiJaTaBJ0VKT2x6LthzZaRwvQYvHnCbRlnGO9uUJC1FYUD8S9rUjYFwzHI2FaD9Wzgx7LtkAfFDNV+CJv1RfjA9rueKjus74VNsVtW390Wh4HLTn50DXoxB6/tuhH3EIrcJPCZleEmK9JbgjJKuoRtALfyBJtqWIevVDSbQnYeK9F6buW4RoN1TKCQuVTbQUBao+r476+5WrZFBFXWpyn0+9j7po1fPYZXGMVAcgqdEA0qaT98r02L8OTYqWrjKoEkG9D4u2HFHe20tToqUpuOeFZGnSQl6TKLg3iEL/OpFoWysC2jXC8Wl1pWiDhFwVkv1LNQ8h2YX4sMZcfFR7Jj6p54TPtKehjq0LGg9fCp35EWjhkYJW/gVoHbFJyHaPkO0JtAxTRrYk2/uKaFZItlUkLZl4BUb+NDNsN8wWV96ZYep//HKVAe9CSSeg6glf3Amqivr7La5mU4m6RN9GtOr7vPP0x5eefxvUZ+IpG2UaKAKmsq/0XVdlc9VlQVmKllIoqgsRcY62EiCXOpAT5tuiXFSGZFvYJBrBDaMwuV4ketSJgGGtMNSoHoIPqwcIfIRc3cW/zoKZ+KjGZHxccyw+qTMKf60/HNV1RqBex8loOnIuWixYjFaeS9HaPwyGEfEwCM9G6/D1aBW2Wwj3mIhiLwjJ3haSvQP9yNtoHXlLur2N8bIjMPXcDjO3jTB3KYT5gsq31oG6ZGjQhlblkuv7pqhvW240Wl20r8u3EhUhWjoedFyUraR9lpbSlIqReOnLjyoZpibsld3O21CWoi1NdQnBoi1H6A61xH4NDYbR9pRLJW7VikZS4ygsFlHt8HoRsKodiro1gvFJjaX4uIabkOscwRTx82h8UnMwPq3VF3+t2xvVGvZETd3eaNBpMLRHj0arhZPReskMGAbMh3GEG4zCA2EYHo/WYbnQD9+CVhFHhWSvi0j2ppDsdRhGXoNRyFmYLD0AM/fNigVlFq4Roq2cq3dRhKZsFVlHW1lFS++J3puylZVoiahN5/Hku39IQi2pUTkYRbqvy0mXlrIUrfoXUXFXRSzacmSzWbzEPsM4nGxZ9qJVQtuk29gUNIlCRKMoTK8fjq51QtCkZiCq1ViCv9aYJ+Q6STAMn9YUgq3VFZ/VtkO1+rao3sgGtfVs0aiLPXTG9EJr1wEw9HKEccBwmEaMhkn4LBiHewrZhsEgIkdEsTvRKuoi9KOuwiDyMowiL8Ek+CRMfffAnKLZhasVK3dVUtFSXabqiV5WM8PUt1vSzLDKKlr1L4yyFK0Sila3nXkgXYKXFOUWV/72JpSlaNUrQaikT32KNMGiLUdoWUSCSrxoacSynrCghER7pFk0PhdRbbaIan0bhmF0/QC0q+MLvdouaFzbCbVqjUC1Wv3xWa0egk6oVscG1RvaoEZTIVoDOzTu3g26E3vDwH0gjHwdYRI0DKaRIwVTYBI5D8aRHjCOjoZxzEoYx+0TPx+BScQxmIScgKn/QZh5bRfR7DoVyVZO0WpqrQNaHlHZ6EQsaa2Dyipa9X2WRY72dZCkfApOSOkCWmxddWIDNXLau05aKCvR0ntVXZCImrKMTR0WbTmyvEOyxAaLBMUUXJ1XJVkWkGhpQIwmLmyRUgghcG24FIPru8O27mwY1h2LRnX6o2bt7qhRu7MQri2q1e2A6o1tULO5LeqYdEKT3t3RYmofEc0OgpGfEG3IUCFZEdVGjYVZ9CSYxUyHeZw32iQkwCJxDdrEbIZ52A6YBeyFmY+4vHP/HOYu4pudJFtJo1mCThZawEW10awquaiktNAIuqogilu9qyqIVj0HSRUIVImg2qc4VOtfqV72bfKs9KV14f7LU5PfVfZlJVq6g4ZqtK86MUMdFm05ktA5RYKm4e4xipfucisnyneFREuDYmeFbE82jcE6rWBENvbC3IbOcGwwBR3qD0Hzut1Qt44tatUWgq1tLURrjRpaNqilZ4e6Fp2h1b8H9Gb2hdHSQTAOHAyTMEch2SFCsENhHjsMbeKHwzJxNqySl8E6NRnt4nLRNlQId6kQrqeQ7KKiaFbmOFQ24rZcfGkUnCRJq17J9S2JN1mPtiqIllAtxyptHa36dpWLrdCAIF3+k3xJUsnbL8u+XhXKeVLuU9neVVJlIVq59Rooui3uC5pFW47490yXSLNLxufmCTit9+otxcsKGhS7IERLst3VNAD5Wu6I1JqNRY3HYVyjgejesCvaNrCBUf0O0BHRrFYjQUtbaLXpiGZdu6LlGAcYL+oLi/BBaBs9SIh0MKyTBqNj6iDYZw5Ez+wB6JszDgNz52FIni/6pUSha3gG2vusgaX7OrRxXSNEW3kjWXVoPr5q1ETi23Dirmzf4qAIR1Wy1F53h4WqIlpKe6jmIUu6bQuhvp7BwStfSI/TrCnVPGxpcr7qoi1uhazS8q6ipc8ud0cO+sKW60+waMsR50GZEhH2qVjVNhFH6e4KugrZlnWpF23vknaUiGyjcFzbD7u0XbFe2wmpzUZiWdN+mKnVGcMb28ChkQ3aNegA42Y2MDTtiNadO8PA0R5ms3rCyq8fbJIGCbkOROeMgbDPEnLN74dhq3tj/HoHOK0fhNnrx8J53XRMzvLAwKhI2HnnwMptJSxdVqLNAvnjUBmRi1DoRKJorqTl+ei1FLWSLFUbSfd19wyrKqJV70MC3XvxcbGyVY/q6WflmrKUQqFUirKRoLJlFrtRQvug23qriv7ItXdbmP1dREupAfVKCfqZxPu6Lx8WbTkyYWS2BC3+TblaRZlXrGJdWiHGsq1AiCoiUkTMS4XM5+Oc7gTs0x2CFTq9EN28E9yFXCdp2aCvEK6drh2s23dC2/5dYTm5O6w9eqFjdD/Y5wxEj7wB6FXQH/1W9sPo9T0xY2s3uO3uBJ9d3RC0szeidgyExwonjI/1hb1XCtq75qLtwjwh2oq/s+2bQDnE+1+/PJuLGomFppFuP/tQ9i64qmkHZaM1BkpaCayqiJaQW73rCxGtJ4lLf2UVQHErbqmnTuh3VVFRhEt5WKpwUC5UQ9uM2HDulVXLaLDyXWud1UVb0l1wD1/9UjouNJlC9b0oW2kqIVi05cjgCbkS80VUG9U1FevbJGKPYRyOi8i27AfGXoj2WnNfXNedhxstxuFsi8HY06InCnU7IrVFBwS17ICF+h3gZNkBk/rbYOx0W4z2scO4mM6YlGsPp03dMWNzN8zeYo/527rAa48dQg62R+JxS6Qe6YCMg52Rta8HAteMg1OCB3p4JcHaNRtWVVC0BJ0wFJ2UVGZUXKMTkSKe4hbaVqUqiZZ40/Vo6VjQIJi6hOh39auH0jQ6Rm+azpFDXbRv2+jz0RdBaWp7WbTlSA+nPImJI7LgLaLaNNtkrLNIlOpqlVGtvDTfhheivS5Ee0uI9o7eWFzXG4Tzeg44ptcRu/StUWhqjeVW7ZHg0A5RTlYI9bdEUIYlQla3Rdh2K0QeaoeYw1aIP9IWSUctkHPKDIXnjLDtkj62nDPFphPtsO5wJ0SvH4nZSW5w8E4oEm0uLKqgaJXQJSLlAuUimOIaDfDkH7hZYv5SSVUTLVGaOzpQIyHvu/Sk2KUUSbZn73z9Uh73dY2ObdK2S7LbelPKQrQUWdNdkkv7f82iLUesZxdIUFRLtxwP6pEm3XFhixkNjCnuhFt26x+8EO1NIdq7unPxUG8MHrUciIctHQR2uGNsjcvW7XGqezscGm2Jvd5m2J5thM27DLDlsOC0AbZeao0dl/Wx+0or7L/aEsdv6OL87Wa4ca8Jzl/Xw9Hzpth9oj1SNw2Bc4oLevnEo4NrVpUXrZKFmYely2Eqa/rnHy/uj0WNLpEp30gDabRuamlPOiVVUbQEyTNn33XpHmaqx4SkSUKk41Ha287Q8aXb99BxpPuEKRttkz4rvR/aV3HCfhveVLT0Xuhz0nukq53Ijeff+P+aRVuOWM5V0HNqnnTbceeBijvi5loryr0ohXCmRQwuFd0V990j3ChcE9xsvlSIdr4Q7Th8oT8YTw0d8LWpHZ7atMPDfpa4Pa4Nri0yxcVEQ5zd0hKnTuvi1AXBNR2cuqWDs7ebC7lq49IdEqwW7j1ohCePGuDaTV2cEKLdedQGSRuGY17SIhHRJqK9iGirYo6WYRh5qpRoLeYp6DwjH/0n5WKMkK2LkC1VIaxolyTNGDvYOg5nhWyp5OtdRUuSVYh2mRCtMx62mIQnhkPx1KInvraxxVd9LfHFFDM89DLG3YTWuFWohxtHmuPa1aa4dkNwW3BXS5LrTRHB3haQZB89bIAvH9XHVRHRHjptiQ377RG5ZixmxHmi25JkKZq1dM5n0TLMe0KVEm2bItrPKUAnIVvK11Jk69Y/A7FdUlDQLhHbTBS3ubkoRKusr73WTIG6SF8HVTBIiNfdbO6HOzqueNDCCY+Nh+Nph1742sEGX4tI9tkSI3yZ1gpPPtfBk8PN8PhKEzx60PAFDxvicRFPhGC/EIJ9+qgenj2uh8tXW2LP8fZYsbM3AvOnYHK0Dzq7p0mSpbQBfVa548AwTNWiSolWiaWIatsJ2XaYVYB+IrKdPDwLHv0yENk1FTnWdPNGRWR7TAiXUgkXdKjWlqJcRQ73OUKkxUGSJi4RLQJxuZUHLhvMwfX243C3dz88GmOHL1zN8WWcAZ5u1MWzY03x7GJjPLvTAM+e1BciLUKIVZUvSbZCwI/vN8SpC8bYuL8rEjcMh3vGXIwODYSdW6ZCshzNMsx7Q5UULaUP2s5VyNZ+Wj4GT8jBxJFZUs42wCENyXYpWGGVhE3mCVLu9og+rfYVK6UUSLqUwyXpSukFFVTlel70of5Up3vMIAyHzJZhn5U7DvWcjtMThuDK4s64HdMGD1a1xhcHtfHsUiM8u9EQz+6TYBUR6yuISPbx/Ua4d6cpbt5sLkWzy7cMhG/OdEyPXYJB/pHSQBhJlqNZhnl/qJKilVIIRflaqkKgnK3D1DwMG5eD6UOXw6NvBsK7pSHdJhmFFonS7W9oERpKKZA8qRRMGeEq5aoULM0yuyCgSPi46E93c9hlFoVN1iFY1cUf60Y6Y5fbaBxPsMfFtRa4tV8fjy9p4dldIdgHCpk+e1xXlqdCtvfvNsF1qjy43Brr99kjYtU4zIz3wPDgEGkgrJ1L7iufl2GYqk2VFK0qiui2QMrb2k/Lk6LbSSMU0a2/QzoSO6Ugr30SCi0TpZTCHqM47DeMk+7ScERIlKLdI/qxEodbx0opB5Iy3TJns1mCVKebZxOPlG4xiOwXifgpXshZ5oQNWQOwd2tHnDpqjutXW+D+vSZ4cK8xHomI9TGlBlR4KB6j5+7d1cKlq61w7KwZdh3tgLRNjvDImIsRwcHo7ROPTu7psHTOk/2cDMNUXaq8aCmytZxXIMnWdqZigGzgxFyMHp0totssuAzIhG+vdAR3T0NMlxSkdExGum0ysjokS2VheYQQMUH53awOScgUkXBSxxREd01FiHidb59UuA1OwZyRSVg4MxS+vu4IT5iG9BXDUbjNAXuPtcfJC8ZSlHrlmp4UsSq5JiC5nrtkgJPnTbDjiA1W7uqF5A3D4JM1E1OjvdHHNw5dPNLQYVEWLBbky35OhmGqLlVetIQyjWAlZNthdgE6zixAt2n56DM5F47jcyTpThmehTmOmUK8GXDvlwHvPulYJgRM+PVMk1gqfqbHPftmYKGIiGc5LpcG2saMycKQCVnoNzULg+cnY6xXGKaH+sA9ZR6iVo1F/vY+2HKoI/aeaI+jZ81x+qLRc2jA6/BpC+w+bo3NBztJOdnQlRPhkuqMSVG+GOgXBbvFGWjvkoO2IprlQTCGef94L0SrDuVwlZUJNrPy0WV6PnpNyRWRbg6Gj82W6m9p8GyqkKgTMWw5pglIxvT4uFHZGD4uBwNEZEy53y7T86TtSCJfmA17jxT0WxqLseH+kjBDV05A2ueOKNjRR6qJ3XbY7jkk4MK93ZG3va80+8s/byrmJrpJ6YI+YhvKci4e/GKY95f3UrSEau6WJNlZyLa7Ux56C+H2E5EupRcon+tIiKh3iIB+p8dpMkSvKXkiKs6T6nXp9bQdS7G9ds65oBIse88U9F8WLcl2dsJiLE6fB5/sGQgqmIzw1eMRUUT4qgkIyJ8K76yZcEufj+lxSzAyJBi9fePQ1TO1KF3AUSzDvM+8t6KlCJFkS1N2KRIlUVJawVZIs+PMfEmgVK1AUMRL0M/0OD1P/ag/RcX0etqOlA9eICLbhbnSwi80eNXDK1ES7pDAMIwKDcL4CD9MjvJ9DqUHSMYk1yGB4egrolia/WUrZE3b4Km2DPP+896KtjwgQVqIy36SZTuXHCk6tVucKQlYFaVUrVxypTwsR7AM8/8LFu07IEXNarIloZJwCZuif2mRGJIslW5RX45gGeb/Fyzad0SaxUWyFdCgFkWsJF1KLyihx56vX0DIbIdhmPcXFi3DMIyGYdEyDMNoGBYtwzCMhmHRMgzDaBgWLcMwjIZh0TIMw2gYFi3DMIyGYdEyDMNoGBYtwzCMhmHRMgzDaBgWLcMwjIZh0TIMw2gYFi3DMIyGYdEyDMNoGBYtwzCMhmHRMgzDaBgWLcMwjIZh0TIMw2gYFi3DMIyGYdEyDMNoGBYtwzCMhmHRMgzDaBgWLcMwjIZh0TIMw2gYFi3DMIyGYdEyDMNoGBYtwzCMhmHRMgzDaBgWLcMwjIZh0TIMw2gYFi3DMIyGYdEyDMNoGBYtwzCMhmHRMgzDaBgWLcMwjIZh0TIMw2gYFi3DMIyGYdEyDMNoGBYtwzCMhmHRMgzDaBgWLcMwjIZh0TIMw2iUFfg/dzNaDqH7UIQAAAAASUVORK5CYII=;" parent="1" vertex="1">
          <mxGeometry x="371.47" y="305" width="98.16" height="40" as="geometry" />
        </mxCell>
        <mxCell id="jwVD1ns5xO-XV_3Hdo6c-55" value="" style="endArrow=classic;html=1;" parent="1" edge="1">
          <mxGeometry width="50" height="50" relative="1" as="geometry">
            <mxPoint x="420.05" y="365" as="sourcePoint" />
            <mxPoint x="420.05" y="415" as="targetPoint" />
          </mxGeometry>
        </mxCell>
        <mxCell id="jwVD1ns5xO-XV_3Hdo6c-58" value="&lt;p style=&quot;margin-top: 0pt ; margin-bottom: 0pt ; margin-left: 0in ; text-align: center ; direction: ltr ; unicode-bidi: embed ; word-break: normal&quot;&gt;&lt;span style=&quot;color: rgb(255 , 0 , 0)&quot;&gt;Extrated&lt;br&gt;&lt;/span&gt;&lt;span style=&quot;color: rgb(255 , 0 , 0) ; font-family: &amp;#34;helvetica neue&amp;#34; , &amp;#34;helvetica&amp;#34; , &amp;#34;arial&amp;#34; , &amp;#34;hiragino sans gb&amp;#34; , &amp;#34;hiragino sans gb w3&amp;#34; , &amp;#34;microsoft yahei ui&amp;#34; , &amp;#34;microsoft yahei&amp;#34; , sans-serif ; font-size: 13px ; text-align: left&quot;&gt;paragraphs(lines)&lt;/span&gt;&lt;span style=&quot;color: rgb(255 , 0 , 0)&quot;&gt;&amp;nbsp;with omics data&lt;/span&gt;&lt;br&gt;&lt;/p&gt;" style="text;whiteSpace=wrap;html=1;" parent="1" vertex="1">
          <mxGeometry x="515" y="640" width="160" height="50" as="geometry" />
        </mxCell>
        <mxCell id="jwVD1ns5xO-XV_3Hdo6c-59" value="" style="shape=note;whiteSpace=wrap;size=16;html=1;dropTarget=0;" parent="1" vertex="1">
          <mxGeometry x="940" y="700" width="40" height="60" as="geometry" />
        </mxCell>
        <mxCell id="jwVD1ns5xO-XV_3Hdo6c-60" value="" style="html=1;shape=singleArrow;arrowWidth=0.4;arrowSize=0.4;outlineConnect=0;" parent="jwVD1ns5xO-XV_3Hdo6c-59" vertex="1">
          <mxGeometry width="14" height="14" relative="1" as="geometry">
            <mxPoint x="2" y="2" as="offset" />
          </mxGeometry>
        </mxCell>
        <mxCell id="jwVD1ns5xO-XV_3Hdo6c-61" value="" style="html=1;whiteSpace=wrap;shape=parallelMarker;outlineConnect=0;" parent="jwVD1ns5xO-XV_3Hdo6c-59" vertex="1">
          <mxGeometry x="0.5" y="1" width="14" height="14" relative="1" as="geometry">
            <mxPoint x="-7" y="-14" as="offset" />
          </mxGeometry>
        </mxCell>
        <mxCell id="jwVD1ns5xO-XV_3Hdo6c-62" value="&lt;font face=&quot;helvetica&quot;&gt;pmc_result_for_organoid_full_pattern1_&lt;br&gt;matchlines_omicsterms_v2.txt&lt;/font&gt;" style="text;whiteSpace=wrap;html=1;align=center;" parent="1" vertex="1">
          <mxGeometry x="865" y="760" width="190" height="40" as="geometry" />
        </mxCell>
        <mxCell id="jwVD1ns5xO-XV_3Hdo6c-63" value="" style="endArrow=block;endFill=1;endSize=6;html=1;" parent="1" edge="1">
          <mxGeometry width="100" relative="1" as="geometry">
            <mxPoint x="724.45" y="754.5" as="sourcePoint" />
            <mxPoint x="824.45" y="754.5" as="targetPoint" />
          </mxGeometry>
        </mxCell>
        <mxCell id="jwVD1ns5xO-XV_3Hdo6c-64" value="inform_extract.TextHandler.&lt;br&gt;pmc_extract_omics_terms" style="text;whiteSpace=wrap;html=1;align=center;" parent="1" vertex="1">
          <mxGeometry x="720" y="700" width="120" height="30" as="geometry" />
        </mxCell>
        <mxCell id="jwVD1ns5xO-XV_3Hdo6c-65" value="&lt;p style=&quot;margin-top: 0pt ; margin-bottom: 0pt ; margin-left: 0in ; text-align: center ; direction: ltr ; unicode-bidi: embed ; word-break: normal&quot;&gt;&lt;font color=&quot;#ff0000&quot;&gt;Extrated omics terms with pmid&lt;/font&gt;&lt;/p&gt;" style="text;whiteSpace=wrap;html=1;" parent="1" vertex="1">
          <mxGeometry x="880" y="650" width="160" height="40" as="geometry" />
        </mxCell>
        <mxCell id="jwVD1ns5xO-XV_3Hdo6c-66" value="" style="startArrow=oval;startFill=0;startSize=7;endArrow=block;endFill=0;endSize=10;dashed=1;html=1;" parent="1" edge="1">
          <mxGeometry width="100" relative="1" as="geometry">
            <mxPoint x="720" y="779.5" as="sourcePoint" />
            <mxPoint x="830" y="780" as="targetPoint" />
          </mxGeometry>
        </mxCell>
        <mxCell id="jwVD1ns5xO-XV_3Hdo6c-67" value="manually remove the&lt;br&gt;false discovered omics terms" style="text;whiteSpace=wrap;html=1;align=center;" parent="1" vertex="1">
          <mxGeometry x="700" y="800" width="160" height="30" as="geometry" />
        </mxCell>
        <mxCell id="jwVD1ns5xO-XV_3Hdo6c-71" value="" style="endArrow=block;endFill=1;endSize=6;html=1;" parent="1" edge="1">
          <mxGeometry width="100" relative="1" as="geometry">
            <mxPoint x="1094.4499999999998" y="754.5" as="sourcePoint" />
            <mxPoint x="1194.4499999999998" y="754.5" as="targetPoint" />
          </mxGeometry>
        </mxCell>
        <mxCell id="jwVD1ns5xO-XV_3Hdo6c-72" value="data clean and merge&lt;br&gt;inform_extract.TextHandler.&lt;br&gt;pmc_omics_terms_merge" style="text;whiteSpace=wrap;html=1;align=center;" parent="1" vertex="1">
          <mxGeometry x="1080" y="680" width="120" height="30" as="geometry" />
        </mxCell>
        <mxCell id="jwVD1ns5xO-XV_3Hdo6c-73" value="" style="shape=note;whiteSpace=wrap;size=16;html=1;dropTarget=0;" parent="1" vertex="1">
          <mxGeometry x="1305" y="795" width="40" height="60" as="geometry" />
        </mxCell>
        <mxCell id="jwVD1ns5xO-XV_3Hdo6c-74" value="" style="html=1;shape=singleArrow;arrowWidth=0.4;arrowSize=0.4;outlineConnect=0;" parent="jwVD1ns5xO-XV_3Hdo6c-73" vertex="1">
          <mxGeometry width="14" height="14" relative="1" as="geometry">
            <mxPoint x="2" y="2" as="offset" />
          </mxGeometry>
        </mxCell>
        <mxCell id="jwVD1ns5xO-XV_3Hdo6c-75" value="" style="html=1;whiteSpace=wrap;shape=parallelMarker;outlineConnect=0;" parent="jwVD1ns5xO-XV_3Hdo6c-73" vertex="1">
          <mxGeometry x="0.5" y="1" width="14" height="14" relative="1" as="geometry">
            <mxPoint x="-7" y="-14" as="offset" />
          </mxGeometry>
        </mxCell>
        <mxCell id="jwVD1ns5xO-XV_3Hdo6c-76" value="&lt;font face=&quot;helvetica&quot;&gt;pmc_result_for_organoid_full_pattern1_&lt;br&gt;matchlines_omicsterms_v2_clean_merge.txt&lt;/font&gt;" style="text;whiteSpace=wrap;html=1;align=center;" parent="1" vertex="1">
          <mxGeometry x="1230" y="855" width="190" height="40" as="geometry" />
        </mxCell>
        <mxCell id="jwVD1ns5xO-XV_3Hdo6c-77" value="" style="shape=note;whiteSpace=wrap;size=16;html=1;dropTarget=0;" parent="1" vertex="1">
          <mxGeometry x="1305" y="665" width="40" height="60" as="geometry" />
        </mxCell>
        <mxCell id="jwVD1ns5xO-XV_3Hdo6c-78" value="" style="html=1;shape=singleArrow;arrowWidth=0.4;arrowSize=0.4;outlineConnect=0;" parent="jwVD1ns5xO-XV_3Hdo6c-77" vertex="1">
          <mxGeometry width="14" height="14" relative="1" as="geometry">
            <mxPoint x="2" y="2" as="offset" />
          </mxGeometry>
        </mxCell>
        <mxCell id="jwVD1ns5xO-XV_3Hdo6c-79" value="" style="html=1;whiteSpace=wrap;shape=parallelMarker;outlineConnect=0;" parent="jwVD1ns5xO-XV_3Hdo6c-77" vertex="1">
          <mxGeometry x="0.5" y="1" width="14" height="14" relative="1" as="geometry">
            <mxPoint x="-7" y="-14" as="offset" />
          </mxGeometry>
        </mxCell>
        <mxCell id="jwVD1ns5xO-XV_3Hdo6c-80" value="&lt;font face=&quot;helvetica&quot;&gt;pmc_result_for_organoid_full_pattern1_&lt;br&gt;matchlines_omicsterms_v2_clean.txt&lt;/font&gt;" style="text;whiteSpace=wrap;html=1;align=center;" parent="1" vertex="1">
          <mxGeometry x="1230" y="725" width="190" height="40" as="geometry" />
        </mxCell>
        <mxCell id="jwVD1ns5xO-XV_3Hdo6c-81" value="&lt;p style=&quot;margin-top: 0pt ; margin-bottom: 0pt ; margin-left: 0in ; text-align: center ; direction: ltr ; unicode-bidi: embed ; word-break: normal&quot;&gt;&lt;font color=&quot;#ff0000&quot;&gt;Extrated omics terms with pmid&lt;/font&gt;&lt;/p&gt;" style="text;whiteSpace=wrap;html=1;" parent="1" vertex="1">
          <mxGeometry x="1245" y="610" width="160" height="40" as="geometry" />
        </mxCell>
        <mxCell id="jwVD1ns5xO-XV_3Hdo6c-82" value="pmc_result_for_organoid_full_pattern1&lt;br&gt;_match_omics_cancer_v2.txt" style="text;whiteSpace=wrap;html=1;align=center;" parent="1" vertex="1">
          <mxGeometry x="-450" y="880" width="260" height="30" as="geometry" />
        </mxCell>
        <mxCell id="jwVD1ns5xO-XV_3Hdo6c-92" value="" style="endArrow=block;endFill=1;endSize=6;html=1;" parent="1" edge="1">
          <mxGeometry width="100" relative="1" as="geometry">
            <mxPoint x="720" y="480" as="sourcePoint" />
            <mxPoint x="820" y="480" as="targetPoint" />
          </mxGeometry>
        </mxCell>
        <mxCell id="jwVD1ns5xO-XV_3Hdo6c-93" value="inform_extract.extract&lt;br&gt;_cancer_lines" style="text;whiteSpace=wrap;html=1;align=center;" parent="1" vertex="1">
          <mxGeometry x="720" y="425" width="120" height="30" as="geometry" />
        </mxCell>
        <mxCell id="jwVD1ns5xO-XV_3Hdo6c-95" value="" style="shape=note;whiteSpace=wrap;size=16;html=1;dropTarget=0;" parent="1" vertex="1">
          <mxGeometry x="945" y="430" width="40" height="60" as="geometry" />
        </mxCell>
        <mxCell id="jwVD1ns5xO-XV_3Hdo6c-96" value="" style="html=1;shape=singleArrow;arrowWidth=0.4;arrowSize=0.4;outlineConnect=0;" parent="jwVD1ns5xO-XV_3Hdo6c-95" vertex="1">
          <mxGeometry width="14" height="14" relative="1" as="geometry">
            <mxPoint x="2" y="2" as="offset" />
          </mxGeometry>
        </mxCell>
        <mxCell id="jwVD1ns5xO-XV_3Hdo6c-97" value="" style="html=1;whiteSpace=wrap;shape=parallelMarker;outlineConnect=0;" parent="jwVD1ns5xO-XV_3Hdo6c-95" vertex="1">
          <mxGeometry x="0.5" y="1" width="14" height="14" relative="1" as="geometry">
            <mxPoint x="-7" y="-14" as="offset" />
          </mxGeometry>
        </mxCell>
        <mxCell id="jwVD1ns5xO-XV_3Hdo6c-98" value="&lt;font face=&quot;helvetica&quot;&gt;pmc_result_for_organoid_full_&lt;br&gt;pattern1_match_omics_cancer_v2.txt&lt;/font&gt;" style="text;whiteSpace=wrap;html=1;align=center;" parent="1" vertex="1">
          <mxGeometry x="870" y="490" width="190" height="40" as="geometry" />
        </mxCell>
        <mxCell id="jwVD1ns5xO-XV_3Hdo6c-99" value="&lt;p style=&quot;margin-top: 0pt ; margin-bottom: 0pt ; margin-left: 0in ; text-align: center ; direction: ltr ; unicode-bidi: embed ; word-break: normal&quot;&gt;&lt;span style=&quot;color: rgb(255 , 0 , 0)&quot;&gt;Extrated&lt;br&gt;&lt;/span&gt;&lt;span style=&quot;color: rgb(255 , 0 , 0) ; font-family: &amp;#34;helvetica neue&amp;#34; , &amp;#34;helvetica&amp;#34; , &amp;#34;arial&amp;#34; , &amp;#34;hiragino sans gb&amp;#34; , &amp;#34;hiragino sans gb w3&amp;#34; , &amp;#34;microsoft yahei ui&amp;#34; , &amp;#34;microsoft yahei&amp;#34; , sans-serif ; font-size: 13px ; text-align: left&quot;&gt;paragraphs(lines)&lt;/span&gt;&lt;span style=&quot;color: rgb(255 , 0 , 0)&quot;&gt;&amp;nbsp;with cancer synonyms&lt;/span&gt;&lt;br&gt;&lt;/p&gt;" style="text;whiteSpace=wrap;html=1;" parent="1" vertex="1">
          <mxGeometry x="895" y="369.41" width="130" height="50" as="geometry" />
        </mxCell>
        <mxCell id="uyB1cEWHM_TbsoovECta-3" value="all_cancer_type_synonym.txt" style="text;whiteSpace=wrap;html=1;" vertex="1" parent="1">
          <mxGeometry x="700" y="395" width="180" height="30" as="geometry" />
        </mxCell>
        <mxCell id="uyB1cEWHM_TbsoovECta-4" value="" style="shape=image;verticalLabelPosition=bottom;labelBackgroundColor=#ffffff;verticalAlign=top;aspect=fixed;imageAspect=0;image=data:image/svg+xml,PHN2ZyB4bWxuczpzdmc9Imh0dHA6Ly93d3cudzMub3JnLzIwMDAvc3ZnIiB4bWxucz0iaHR0cDovL3d3dy53My5vcmcvMjAwMC9zdmciIHZlcnNpb249IjEuMSIgeD0iMHB4IiB5PSIwcHgiIHZpZXdCb3g9IjAgMCA1NjUuODMwMDE3MDg5ODQzOCA1NCIgZW5hYmxlLWJhY2tncm91bmQ9Im5ldyAwIDAgNjEyIDEwMCIgeG1sOnNwYWNlPSJwcmVzZXJ2ZSIgd2lkdGg9IjU2NS44MzAwMTcwODk4NDM4IiBoZWlnaHQ9IjU0Ij48ZyB0cmFuc2Zvcm09InRyYW5zbGF0ZSgtMjMsLTIzKSI+PGc+PHBhdGggZD0ibTEzNy42NjYgMzkuMTU3IDQuNjggMCAwIDIwLjk3LTQuNjggMC05Ljk5LTEzLjE0IDAgMTMuMTQtNC42OCAwIDAtMjAuOTcgNC4zOCAwIDEwLjI5IDEzLjUgMC0xMy41eiIgZmlsbD0iI2JiMGUzZCIvPjxwYXRoIGQ9Im0xNjIuNDQ1IDYwLjEyNy0xLjk0OS00LjUzLTguNzkgMC0xLjk1IDQuNTMtNC45OCAwIDkuMDYxLTIwLjk3IDQuNTMgMCA5LjA2IDIwLjk3LTQuOTgyIDB6bS02LjMyOS0xNC43My0yLjY0MSA2LjA5IDUuMjUgMC0yLjYwOS02LjA5eiIgZmlsbD0iI2JiMGUzZCIvPjxwYXRoIGQ9Im0xNzcuMjA1IDQzLjIwOCAwIDE2LjkyLTQuNjggMCAwLTE2LjkyLTUuOTQgMCAwLTQuMDUgMTYuNTYxIDAgMCA0LjA1LTUuOTQxIDB6IiBmaWxsPSIjYmIwZTNkIi8+PHBhdGggZD0ibTE4Ni41NjQgMzkuMTU3IDQuNjggMCAwIDIwLjk3LTQuNjggMCAwLTIwLjk3eiIgZmlsbD0iI2JiMGUzZCIvPjxwYXRoIGQ9Im0yMTQuMDQ0IDU3LjIzMmMtMi4xMiAyLjA3LTQuNzI5IDMuMTA1LTcuODMgMy4xMDUtMy4xIDAtNS43MS0xLjAzNS03LjgzLTMuMTA1LTIuMTItMi4wNy0zLjE4LTQuNjQ1LTMuMTgtNy43MjUgMC0zLjA4IDEuMDYtNS42NTUgMy4xOC03LjcyNSAyLjEyLTIuMDcgNC43My0zLjEwNSA3LjgzLTMuMTA1IDMuMTAxIDAgNS43MSAxLjAzNSA3LjgzIDMuMTA1IDIuMTIgMi4wNyAzLjE4MSA0LjY0NiAzLjE4MSA3LjcyNSAwIDMuMDgtMS4wNjEgNS42NTYtMy4xODEgNy43MjV6bS0xLjU5LTcuNzFjMC0xLjg3LTAuNi0zLjQ2NS0xLjgtNC43ODUtMS4yLTEuMzItMi42NzUtMS45OC00LjQyNS0xLjk4LTEuNzUxIDAtMy4yMjYgMC42Ni00LjQyNSAxLjk4LTEuMiAxLjMyLTEuODAxIDIuOTE2LTEuODAxIDQuNzg1IDAgMS44NyAwLjYwMSAzLjQ2IDEuODAxIDQuNzcgMS4xOTkgMS4zMSAyLjY3NCAxLjk2NSA0LjQyNSAxLjk2NSAxLjc1IDAgMy4yMjUtMC42NTUgNC40MjUtMS45NjUgMS4yLTEuMzA5IDEuOC0yLjg5OSAxLjgtNC43N3oiIGZpbGw9IiNiYjBlM2QiLz48cGF0aCBkPSJtMjM1Ljg1NCAzOS4xNTcgNC42OCAwIDAgMjAuOTctNC42OCAwLTkuOTktMTMuMTQgMCAxMy4xNC00LjY4IDAgMC0yMC45NyA0LjM4IDAgMTAuMjkgMTMuNSAwLTEzLjV6IiBmaWxsPSIjYmIwZTNkIi8+PHBhdGggZD0ibTI2MC42MzMgNjAuMTI3LTEuOTQ5LTQuNTMtOC43OSAwLTEuOTUgNC41My00Ljk4IDAgOS4wNjEtMjAuOTcgNC41MyAwIDkuMDYgMjAuOTctNC45ODIgMHptLTYuMzI5LTE0LjczLTIuNjQxIDYuMDkgNS4yNSAwLTIuNjA5LTYuMDl6IiBmaWxsPSIjYmIwZTNkIi8+PHBhdGggZD0ibTI2OC4wNDMgNjAuMTI3IDAtMjAuOTcgNC42OCAwIDAgMTYuOCA4Ljk0IDAgMCA0LjE3LTEzLjYyIDB6IiBmaWxsPSIjYmIwZTNkIi8+PHBhdGggZD0ibTMwMi42MzMgNTUuOTg3YzIuMyAwIDQuMTgtMC45MSA1LjY0LTIuNzNsMyAzLjA5Yy0yLjM4IDIuNjgtNS4xODUgNC4wMi04LjQxNSA0LjAyLTMuMjI5IDAtNS44OS0xLjAyLTcuOTc5LTMuMDYtMi4wODktMi4wNC0zLjEzNS00LjYxNS0zLjEzNS03LjcyNSAwLTMuMTEgMS4wNjQtNS43MDUgMy4xOTQtNy43ODUgMi4xMy0yLjA4IDQuNzM1LTMuMTIgNy44MTUtMy4xMiAzLjQzOSAwIDYuMzE5IDEuMzExIDguNjQgMy45M2wtMi45MSAzLjNjLTEuNDc5LTEuODQtMy4zMTktMi43Ni01LjUyLTIuNzYtMS43NiAwLTMuMjY2IDAuNTc1LTQuNTE1IDEuNzI1LTEuMjUxIDEuMTUtMS44NzUgMi43LTEuODc1IDQuNjUgMCAxLjk1IDAuNTg5IDMuNTE1IDEuNzcgNC42OTUgMS4xNzkgMS4xODEgMi42MSAxLjc3IDQuMjkgMS43N3oiIGZpbGw9IiNiYjBlM2QiLz48cGF0aCBkPSJtMzI5Ljc1MyA2MC4xMjctMS45NDktNC41My04Ljc5IDAtMS45NSA0LjUzLTQuOTggMCA5LjA2MS0yMC45NyA0LjUzIDAgOS4wNiAyMC45Ny00Ljk4MiAwem0tNi4zMjktMTQuNzMtMi42NDEgNi4wOSA1LjI1IDAtMi42MDktNi4wOXoiIGZpbGw9IiNiYjBlM2QiLz48cGF0aCBkPSJtMzUxLjgzMyAzOS4xNTcgNC42OCAwIDAgMjAuOTctNC42OCAwLTkuOTktMTMuMTQgMCAxMy4xNC00LjY4IDAgMC0yMC45NyA0LjM4IDAgMTAuMjkgMTMuNSAwLTEzLjV6IiBmaWxsPSIjYmIwZTNkIi8+PHBhdGggZD0ibTM3MS4zMDMgNTUuOTg3YzIuMyAwIDQuMTgtMC45MSA1LjY0LTIuNzNsMyAzLjA5Yy0yLjM4IDIuNjgtNS4xODUgNC4wMi04LjQxNSA0LjAyLTMuMjI5IDAtNS44OS0xLjAyLTcuOTc5LTMuMDYtMi4wODktMi4wNC0zLjEzNS00LjYxNS0zLjEzNS03LjcyNSAwLTMuMTEgMS4wNjQtNS43MDUgMy4xOTQtNy43ODUgMi4xMy0yLjA4IDQuNzM1LTMuMTIgNy44MTUtMy4xMiAzLjQzOSAwIDYuMzE5IDEuMzExIDguNjQgMy45M2wtMi45MSAzLjNjLTEuNDc5LTEuODQtMy4zMTktMi43Ni01LjUyLTIuNzYtMS43NiAwLTMuMjY2IDAuNTc1LTQuNTE1IDEuNzI1LTEuMjUxIDEuMTUtMS44NzUgMi43LTEuODc1IDQuNjUgMCAxLjk1IDAuNTg5IDMuNTE1IDEuNzcgNC42OTUgMS4xNzkgMS4xODEgMi42MSAxLjc3IDQuMjkgMS43N3oiIGZpbGw9IiNiYjBlM2QiLz48cGF0aCBkPSJtMzk4Ljc1MyAzOS4xNTcgMCA0LjE3LTEwLjQ0IDAgMCA0LjMyIDkuMzkxIDAgMCAzLjk5LTkuMzkxIDAgMCA0LjM1IDEwLjc3MSAwIDAgNC4xNC0xNS40NSAwIDAtMjAuOTcgMTUuMTE5IDB6IiBmaWxsPSIjYmIwZTNkIi8+PHBhdGggZD0ibTQyMC4yNjMgNDYuMTE4YzAgMy4zNi0xLjMzIDUuNTMtMy45OSA2LjUxbDUuMzExIDcuNS01Ljc2IDAtNC42NS02LjY5LTMuMjQgMCAwIDYuNjktNC42OCAwIDAtMjAuOTcgNy45NSAwYzMuMjYgMCA1LjU4NCAwLjU1IDYuOTc1IDEuNjUgMS4zODggMS4xIDIuMDg0IDIuODcgMi4wODQgNS4zMXptLTUuNjQgMi40ODljMC41OC0wLjUyIDAuODctMS4zNDUgMC44Ny0yLjQ3NSAwLTEuMTI5LTAuMzAxLTEuOTA1LTAuOS0yLjMyNS0wLjYtMC40Mi0xLjY1LTAuNjMtMy4xNS0wLjYzbC0zLjUxIDAgMCA2LjIxIDMuNDIgMGMxLjYgMCAyLjY5LTAuMjU5IDMuMjctMC43OHoiIGZpbGw9IiNiYjBlM2QiLz48cGF0aCBkPSJtNDMyLjk4MiAzOS4xNTcgNC42OCAwIDAgMjAuOTctNC42OCAwIDAtMjAuOTd6IiBmaWxsPSIjYmIwZTNkIi8+PHBhdGggZD0ibTQ1Ny40OTIgMzkuMTU3IDQuNjggMCAwIDIwLjk3LTQuNjggMC05Ljk5LTEzLjE0IDAgMTMuMTQtNC42OCAwIDAtMjAuOTcgNC4zOCAwIDEwLjI5IDEzLjUgMC0xMy41eiIgZmlsbD0iI2JiMGUzZCIvPjxwYXRoIGQ9Im00NzIuMjM3IDQzLjM0MmMtMC40NSAwLjM3MS0wLjY3NiAwLjg2LTAuNjc2IDEuNDcgMCAwLjYxIDAuMjc1IDEuMDk1IDAuODI1IDEuNDU1IDAuNTUgMC4zNiAxLjgyIDAuNzg1IDMuODExIDEuMjc1IDEuOTg5IDAuNDkgMy41MzQgMS4yMjUgNC42MzUgMi4yMDUgMS4xIDAuOTggMS42NSAyLjQxIDEuNjUgNC4yOSAwIDEuODgtMC43MDUgMy40MDUtMi4xMTUgNC41NzUtMS40MSAxLjE3LTMuMjY2IDEuNzU1LTUuNTY1IDEuNzU1LTMuMzIgMC02LjMxMS0xLjIzLTguOTctMy42OWwyLjc5LTMuNDJjMi4yNiAxLjk4IDQuMzUgMi45NyA2LjI3IDIuOTcgMC44NiAwIDEuNTM1LTAuMTg1IDIuMDI1LTAuNTU1IDAuNDktMC4zNyAwLjczNS0wLjg3IDAuNzM1LTEuNSAwLTAuNjMtMC4yNjEtMS4xMjktMC43OC0xLjUtMC41MjEtMC4zNy0xLjU1LTAuNzQ1LTMuMDktMS4xMjUtMi40NC0wLjU4LTQuMjI2LTEuMzM1LTUuMzU1LTIuMjY1LTEuMTMtMC45My0xLjY5NC0yLjM5LTEuNjk0LTQuMzggMC0xLjk5IDAuNzE1LTMuNTI1IDIuMTQ1LTQuNjA1IDEuNDMtMS4wOCAzLjIxNS0xLjYyIDUuMzU1LTEuNjIgMS4zOTkgMCAyLjggMC4yNCA0LjE5OSAwLjcyIDEuNCAwLjQ4IDIuNjIgMS4xNiAzLjY2IDIuMDRsLTIuMzcgMy40MmMtMS44Mi0xLjM4LTMuNy0yLjA3LTUuNjQtMi4wNy0wLjc4IDAuMDAxLTEuMzk1IDAuMTg2LTEuODQ1IDAuNTU1eiIgZmlsbD0iI2JiMGUzZCIvPjxwYXRoIGQ9Im00OTUuMTcyIDQzLjIwOCAwIDE2LjkyLTQuNjggMCAwLTE2LjkyLTUuOTQgMCAwLTQuMDUgMTYuNTYxIDAgMCA0LjA1LTUuOTQxIDB6IiBmaWxsPSIjYmIwZTNkIi8+PHBhdGggZD0ibTUwNC41MzEgMzkuMTU3IDQuNjggMCAwIDIwLjk3LTQuNjggMCAwLTIwLjk3eiIgZmlsbD0iI2JiMGUzZCIvPjxwYXRoIGQ9Im01MjMuMjUxIDQzLjIwOCAwIDE2LjkyLTQuNjggMCAwLTE2LjkyLTUuOTQgMCAwLTQuMDUgMTYuNTYxIDAgMCA0LjA1LTUuOTQxIDB6IiBmaWxsPSIjYmIwZTNkIi8+PHBhdGggZD0ibTUzOC4xNiA1NC43MTJjMC43OCAwLjk3IDEuODMgMS40NTUgMy4xNSAxLjQ1NSAxLjMxOSAwIDIuMzY0LTAuNDg1IDMuMTM1LTEuNDU1IDAuNzctMC45NyAxLjE1NS0yLjI5NSAxLjE1NS0zLjk3NWwwLTExLjU4IDQuNjggMCAwIDExLjczYzAgMy4wNDEtMC44NCA1LjM3NS0yLjUyIDcuMDA1LTEuNjgxIDEuNjMtMy44MzEgMi40NDUtNi40NSAyLjQ0NS0yLjYyIDAtNC43NzUtMC44Mi02LjQ2NS0yLjQ2LTEuNjktMS42NC0yLjUzNS0zLjk3LTIuNTM1LTYuOTlsMC0xMS43MyA0LjY4IDAgMCAxMS41OGMwIDEuNjggMC4zOSAzLjAwNiAxLjE3IDMuOTc1eiIgZmlsbD0iI2JiMGUzZCIvPjxwYXRoIGQ9Im01NjQuMDIgNDMuMjA4IDAgMTYuOTItNC42OCAwIDAtMTYuOTItNS45NCAwIDAtNC4wNSAxNi41NjEgMCAwIDQuMDUtNS45NDEgMHoiIGZpbGw9IiNiYjBlM2QiLz48cGF0aCBkPSJtNTg4LjQ5OSAzOS4xNTcgMCA0LjE3LTEwLjQ0IDAgMCA0LjMyIDkuMzkxIDAgMCAzLjk5LTkuMzkxIDAgMCA0LjM1IDEwLjc3MSAwIDAgNC4xNC0xNS40NSAwIDAtMjAuOTcgMTUuMTE5IDB6IiBmaWxsPSIjYmIwZTNkIi8+PC9nPjxnPjxnPjxwYXRoIGQ9Ik05OCA1MCA4MyAyMyAyOC43NjkgMjNDMjUuNTgzIDIzIDIzIDI1LjU5IDIzIDI4Ljc4NmwwIDQyLjQyOEMyMyA3NC40MSAyNS41ODMgNzcgMjguNzY5IDc3TDgzIDc3IDk4IDUwWiIgZmlsbD0iIzYwNjA2MCIvPjxwYXRoIGQ9Ik05Ni41MDEgMjUuODE1Qzk1LjQ0NiAyNC4wNjkgOTMuNTQxIDIzIDkxLjQ4NiAyM0w4NyAyMyAxMDIuMjAxIDUwIDg3IDc3bDQuNDg2IDBjMi4wNTUgMCAzLjk2LTEuMDY5IDUuMDE1LTIuODE1TDExMCA1MCA5Ni41MDEgMjUuODE1WiIgZmlsbD0iI2JiMGUzZCIvPjwvZz48Zz48cmVjdCB4PSI1NSIgeT0iMzgiIHdpZHRoPSI0IiBoZWlnaHQ9IjI0IiBmaWxsPSIjZmZmIi8+PHBvbHlnb24gcG9pbnRzPSIzMiAzOCAzMiA2MiAzNiA2MiAzNiA0NC40IDQ3IDYyIDUxIDYyIDUxIDM4IDQ3IDM4IDQ3IDU1LjYgMzYgMzggIiBmaWxsPSIjZmZmIi8+PHBvbHlnb24gcG9pbnRzPSI2NyAzOCA2MyAzOCA2MyA2MiA2NyA2MiA2NyA1MiA3OCA1MiA3OCA2MiA4MiA2MiA4MiAzOCA3OCAzOCA3OCA0OCA2NyA0OCAiIGZpbGw9IiNmZmYiLz48L2c+PC9nPjwvZz48L3N2Zz4=;" vertex="1" parent="1">
          <mxGeometry x="665.9999999999999" y="120" width="208" height="20" as="geometry" />
        </mxCell>
        <mxCell id="uyB1cEWHM_TbsoovECta-5" value="" style="shape=image;verticalLabelPosition=bottom;labelBackgroundColor=#ffffff;verticalAlign=top;aspect=fixed;imageAspect=0;image=data:image/png,iVBORw0KGgoAAAANSUhEUgAAAtwAAAD+CAYAAAAJUtJ9AAAAAXNSR0IArs4c6QAAAARnQU1BAACxjwv8YQUAAAAJcEhZcwAADsMAAA7DAcdvqGQAAL/3SURBVHhe7b0HnFVVlu/f7//em3kTe+ZNeEweZ3pCT+zumZ4WO9jSbXebQxsxIiZEREVURASRTJEzFJmCIhS5yEXOCChIEiSIgoKKioqpZ/33d5277z333HNu3QoIVbV+n1596tx7wj77Hrzfs+5vr/01MZlMJpPJZDKZTGdNBtwmk8lkMplMJtNZlAG3yWQymUwmk8l0FmXAbTKZTCaTyWQynUUZcJtMJpPJZDKZTGdRBtwmk8lkMplMJtNZlAG3yWQymUwmk8l0FmXAbTKZTCaTyWQynUUZcJtMJpPJZDKZTGdRBtwmk8lkMplMJtNZlAG3yWQymUwmk8l0FmXAbTKZTCaTyWQynUUZcJtMJpPJZDKZTGdRBtwmk8lkMplMJtNZlAG3yWQymUwmk8l0FmXAbTKZTCaTyWQynUUZcJtMJpPJZDKZTGdRBtxfgf77v/9bfvWrX+kyLNajr5myRf98/vkXcubMGTl9+iN5//335eOPP9b+NJlMJpPJZKoLMuA+iwIWv/zySwXEkydPKix+4dZ57ZNPzsi7774np9xrpnh9+tln2m/79x+Q7S+9LCtWrpLZc+bJ+g0b5e0TJ+SLL75IbWkymUwmk8l0/sqA+ywJ2D5z5lN5++0TsvOVXQ4WV8u2bdsVFE+cOCk7dr4iCxYuknXrN8jnn3+e2qthiT4iU831f/rpZw6gv0xn/Fm++up+mTptupRMLpWyWXNkpguWM8pmScXyFXL4yBG336fpfUwmk8lkMpnORxlwnwUFsH1GXn/9qEL26jXrZNPmF+WVXbtl375XdbmsYrlMLp0q88oXyFtvvZ3as/6LrDQZ/w8++FDeeedd90Dytrx28JDs3btP+4uMP9ucPn1aVq5aLePGT5TRY8ZJyZSpMmPmbIVuBW8H3eULFimUf/TRR2YxMZlMJpPJdN7KgLuWBWyTsSWLvXvPPtm8Zau8/PJO2b//NQXLfQ4QN23eIrPnzJXxEyfJkmUV8v4HH6T2PjeizUAu2WIeFMjMBxnnL2olexxYaD6RU6fel0OHj8iLW7c7mF4jixcvlYWLlsiiJctkydIKWeTWeZ0HELYrX7hYJk2eKmPHTZRRxWNkwsTJAXTPnitlbkmme9bsObJl61Y5efIdba/JZDKZTCbT+SYD7loUcAqoHjt2XHbt2qOATRzUOCyvvXZI7SVLli6TiSVTZOr0GfLKrl2pvb960d7PPvtMPnDAf+z4cde+g5oxPnDgNTl46LAcPfqGZpqrCt3+uGSe8a1z7Jd3vCLLV6yUxQ6uly9fpRab5StWybLlK2VpxQr34LFcoXvBwiXq18a7/fKOnTKvfKFMnjJNxoydICNGjpbSaTMcZM/Ngu7pLpa6/Y+8flSv5UPXZh56auNhwWQymUwmk6mmMuCuBQF2Pot75MjrsmDBQs3WBqB9SAGW2LNnr6xZu06mz5il2e2lyyoUEM+VPvr4YznkwPrll3eop5z2Ebtd8GCwevVaXefaKhPbkCEH0Mnuc71bt22Xte56V61a4657vQb2mlXuuGSyo9ANNC9eUqGvAdtvvnlMXnJtw0IybsIkGTt+ouu7mTJrzrwAurGWeOh2r893cM6+q1avkf0HDmhbzGpiMplMJpPpXMuAuwbyoI0N45133lHIXLhosQwdMky2b39Z13fu3CWbN78oGzdtVtieM3eejHfwCCTu2bs3daSvXtgvyL6/uHWba8c+2bdvv+zd96p6qYHsXbv3ODheq8skqwavA+1ksY8ff8tBbgDZKx1I41EHsDds3KRVRdat3yhr123IQLcD7jjoJtMNdC9ctFQ92uXu4aVs5hyZ5oCarDZVSqZNL9MAtmeGgJvXyIAzyHKqW2LdwSdeyAODyWQymUwm09mSAXc15W0T7733nhx94031ZgOReI1XrVrtYPugepXJdKv9YdZshUAGAU6eMlU2bdqi9aXPlYBkBnSudyAMVNN+jRR4k+UGll95ZZd8+OFpzV4TZPE/+PBDve433HWTCd8AUDuY3rzlRQX4F1/cphDNA8aGjZsVuDlWGLrJcsdmulPWEqB70eJlAXgvXCzzyxepf3vkyGLp13+g9C7qI4MHD1W4BrjT0O1iKuA9dbpMLp2mx6ZSjEG3yWQymUymcyUD7mrIwzZe7a0OMAHXzZu3yLhxE2TRoiVq08AKAShOmDRZ7SOlU6c58J4ts+fOU/AEeM+lsH0sXrxEpjs4BYjJcr+6/4C8+uqBNHQD2zt27HQg/qocPHRIg7+3bX9J9+GayeRzrfiueZ0MN9BNRh+Y9lnucKab1wDvAL4DiwlgXOGAOwrdC90DywLXp7Nmz5MhQ4bLHbffIQ8+8KC0eriV3HnHnfJMu/ZSPHqsTHT9PHjIULWdkOXm4QboLpnioNvB/Dvvvmv2EpPJZDKZTOdEBtxVlIdtsqZkdCdMmChzHURPnlIqkxxYU9oOK8mqNWsV+CZNnuJAe07aV3zs2DEti3eu9d57p2TatOkyYOAgB8arNctNVp5qKgrdoWw37+HxBr7JaFPWkCWv4bUGuOOgO4DqbOD2mW7sKgGQr0v7utPQnfJzB9AdZLlHjCyWZ599Tlo/0lpuuP6X8vTTz0j79h3kphtulAcffEieeqqd3PDLG+Txx9rI6LHjA+B2MaXUfQYlpfLSSzvU+mMymUwmk8n0VcuAuwrysH3ixDtahWTq1GnSt29/mTSpRIYPG64eZip7MDMiQDln7ny1SgCZQCUZ4vMhy4r3+sMPP1SP84KFix0875YDrx0MAuh215EG74i3G6sJAB6GbkD85R35oZsAqgHsNa4v5pcvkPIFix1Yr1DADqB7TZaf2w+ixFrSvVsPuf2226V37z7y5JNPyXXXXCvPdegoL7zQxQH4DdLkx5fIjQ64L//FZe79p9W6A3RPSWW58YZTlpDP0GQymUwmk+mrlAF3gQLUKDXHILzDh4/IdgeVQ4YMlT59+kuHDs+pvYKqGthMyHIDp2SJqSe9cdMWmTlrrmZsKZX3VSt4UPhcPv74Ez3/iRMnNAtPCUDK/3E92GC0dCFVVTx4x2S7Ae+qQvfGjZvV314BRLs+wNdONhtrCQFkUzLQZ73D0B0MolwmAwcOlisuv0KaN79Xho8olkdatZZrHXQ///wL0tlBNwDe7K5mcteddzswv0MGDRqqGW6f5aZ0IHYYHphMJpPJZDKZvkoZcBcoBt29++67msEGqIHUrdtektLSaTJv/gIFbYJqHeGgtvWKVat1pkSmcv8qvNsANvXAgevTp4Na2LTlyBHAGi/2Ya1Z7a+FUoZp6HYBYJNtnjNnrmzYsEm93cC2B+hdDrSB7t1VgG4GUmLBIauOv9tbS/wgymUOrAFuYsXKVTl+bkop3nnHXXLxD38knTo+r7NP3nfvAw60r5PuPXpKu3bPyJWXXS5PPNFWBjg4ZzClDqBMZbkZQMkvDkdef90myDGZTCaTyfSVyoC7QFGhAzAFUqnOQYaYAYfPONCrcFDoAZtZEn2wHSBKebsJE0s0e/vfvzr7lgbaSlt8HXAsLsC0z8AT/E37CA/dHrwB6uHDR8htTW+Tot59tB53eflCzTIXFfVxfy9QuPYWk+pCdzCIMjV4cs06WbRosQPvCi0rSJbb+7n9pDjduvWQn136M7n26mtl0OChMnLUaLntttvl1ltulT59+mrWG0/3kKHDtGpJumJJKstdMnmqZtfJ8NsASpPJZDKZTF+VDLgLEHBGphiIBVCBVWBzxIhR8nDLVgqlYdD2AeTiWWbwZOm06QqhX4XIbB994w0tV8jgTsK3yT8YeOj24M2DBO0FzqlOMnfufK0E0rr1ozJs+EgHtP2kxQMt5Gc/+ak81+E52eSAGXsJgyapzEL2fsuLWyuFbrahLjmw7QdMkuHG300GGrDOKRUIdLvXmezmoQcfkh9e9AN5wLUFn3bffv3VTnLfvfdL12495e47704Dd06ZwCnTZOKkKQr4lDU06DaZTCaTyfRVyIC7EmHPOHPmU3nLQaoHVB+AKVOOU4M6DNpvv/22vr/TwSezH46bMFHmL1io05V/FTrzyRl5OwXXHrjDEQfeZLexc1BpZbwD2eEjRkrvXr3dQ8VI9VAzNfu0aTPktltvk+c7dpIXHThjMyFD/dSTT0uHDh0VlLMy3Q64o9ANcHMestlMahNMbrNI5s4rl7nzy3XCHI6TA92pLDdWkltvaSo//tHFah+ZVDJFLSbXXn2NVi3p12+A1jkPz0AJdJPlxlbCAMoJDrrJsvNgwoRF+PK/sDrdJpPJZDKZzpIMuBMEaOP1/cTBK0AGlHr7BdlgAlsJFokMaGeAlmwxYDnFQd6kyaWyYdNmPeZXIQYGUpGDdlNvOwzb4TZmwPu4tpcygbc3vU1aPvSwWi+8FYXAmsLDwz133yOdOz0vW7du14GUi5csldatWkt/B7rbtr9caclArCTz5y+QMgfDVCph5kg81lg+gGr1ca9eq4MsPXCHrSXAf5++/XTA5E8uaeKg+0mtFPP0U+1k+PCRCtpkwstmzUlPiOOBW73cDrgpE0jWmwz9osVL9DxvuM/3iy8Muk0mk8lkMtW+DLgTxCyQwCpQ6m0kh4+8ruDJOqDKa2HQ9sHrZHgZTEl2m8wtmeSvSgzwZEZIam3THq7Dg7cHbWD85Ml30pluAsDu52CWiWVmO2jFzx0eUDlv3ny5p9k90rNHL52yHv/2qFHF0vye5jJ+/ITY6iUeuj1wMyASSF/jwJrZNgFwsuS+Ygnh63LHWkscdFPKsHv3nnLrzbfK1VdeJY8++pgUjx6noA3Az3Khs3uGstwAth88qVnuiSX63qjRY2Wee5DgPB988MFX9lBkMplMJpOp4ciAO0Z4ez94/wOtMKKWCxdU9QA8WQdegdk42CaAUzK0WBsml06VLS9u+8pBjklesLYA0mHgZp0sPW1kyfVwHR66KyqWS5s2T8iAAQPVpx6uYlIyqUTuvedeGTtmnJYLpJLJgP4DpNldd8vAgYN0cpmcyiUR6CZTzQBJfhnwkRlAuTFdtSQK3eEJcajNvWDhEikuHitdunTVSXEA7DnzytUHrtAdzXKngJvs9vgJJer/BrrxdM+ZWy7Ty2bqAwPlE00mk8lkMplqUwbcEQHGVPnAsw2MEmS0qU/N30Dru+++p35sD9gA6zG3PbYEAJUqH1T18N5tfMJftXTg5NE30g8ItJEAnjdu3CQLFy1WYN6/f797PwBx3lfryPxymTVrtsIzx+CayH4X9S6SJxyM47MGrmfOnK3Tw+Pz7tSps9oz4rLc4UGUQDUPIxscYG/ZslUDP7WfiTIHuhOy3H4GSqbPZwIdstRz5y9Q6J7toDuc5SbDrZntyVM1uw10Y/WhNjpwDnwPd9AOlNMPNpjSZDKZTCZTbcqAOyLsGPifAVXgiyXACYgCpNgwsGN4EAdI/ZIsOJPGkLWdNn2GereZ9OZc2BSYPp72Atu0mSWwTXURgJmJeraQYXZLrs1nv/0DBH973zrXtnbtOunYsZOMHDlK9uzdp9cFJO/d+6oC8jPPtNdSggwUTYTuVJYb0F+1arXuT1+Fa3P7UoF5rSWpLPfCxUtlwaIlCt3zyxfJvPkOulNZboDbZ7l9pRKWwDhwDmzj5ybbPXrsOBkybIQMHzFKVqxYKR9+eNqsJSaTyWQymWpNBtwpUR8b3/P773+QBk6gGtg8dOiIwicw6mGb1wOPc+Y9AuCuWL5Cxk8scfA3X49zLoQ1AsgGpglmlWR6dQYlvvHmm/pgQbx+9KiD491pe4m/DvqAda6NyXBKS6fK0KHDFNi9p5vXyfwzFfyokcVSXDxatm3bnjgbpbeWUB4Q4AakN2zcnIbuQrLc4QGUTPk+f8EitYTMnA1gzwtsJZEs94yZs3UfBn0y4yQlAhmkSaZ74qTJmuEeMXK0DB02Umt7U33GrCUmk8lkMplqSwbcTmQzgW2yucBpANLBRDBBHE1lizPATfAa2WMfvEYGlyzrxJLJCoznKlPKeYF9Zooko8y06gA3DwpYZqhDffjwYdm7b5+C7o6dOxXQPXB76Aa4KeeHfYQst++TNHSnpoMHpLGH7Nq1R8sF+klxgO5sa0kA3WS0GUBJm5Ky3EB3UpZ70ZJlabCeVx5YSdRCMmuOvhbOcvM6VVcoP4if21cswV6Ch3v8hEkyesx4rTcOdDM75bHjx81aYjKZTCaTqVZkwO1E+T/gEoBkoCRLgPLw4dcVOHmPAYhAKFDqIwzbBMC+ceNmzaIyCI8p0msqwBl7yNGjDHQ8pJU0ChUDJ5n8Zs+efa4tr2oZQ2AY4MWWMWHiJPVfYxNZt26detPDwE1wTVQXAZa9vSQ8kDIN3a8dcsc/KPv3v6bXTZYb6E6yltAGYHtlylrigdtDd1KWmwz3wkVL1BaClQQvt38Pewm2Ec10e+B2AYR76KZyDJ7ucInACRMny9hxE2RU8RgZPGS4Qvdydx763WQymUwmk6mmavDAHQDtJwqQwCRZag/UgHYA2xkAjQNtgoGRWDWwSGBhoBTgiZMnNXNOVFU8BBw7dkzWrl0rU6dO1QGL3bp2k8klJTrQsRAxcBIgfumllzU7PXPmLBk0aIj07NVbunTtLs8910mefrqd9O/fXzZt2pS+PsJfr7fWEDx8hKGbYwPxVCwBsl/df0CBm3XAvjJrCb8GULGEqdzJaudmuQPoBrjJcDPxDVlqgHtpxXJ9n/d4eFA/98IlaRsJgyHDtpKZKejmGAykBLh1uvdUlhtbSZDlHiWDBg+ToUOHy4HXXlPbjclkMplMJlNN1OCBG7AFmIFI4NJDdhxs8z7AGYZuP1Phu+++q9sDltgeVq5eI286YMYjjX+abQsRDwAffvihZoJLSiZLq1at5KYbb9KJXq656mq5+aabZdjQofL++++n9siIfU+dOiW7d++W9evXy7x582TE8BHywgtdpF27Z3TQY7du3XX9uec6SqdOz8vgwYNl1apV+sBB+z1wh6Gb17l2gJta5Ex4QyUWvM5AtA9vH3nlld06sFKtJRHozlhLgiw32XOy3GSogexwlpt1Mtz0J5CtoO3gGrsJVpnlbp9oxRI83dNnzFIrSZatxAE3kI2Xm/XoRDjYSjTLPXqsZrl79e6r0P7h6dOp3jWZTCaTyWSqnho0cOPRJQvsBwx6yPYRhm2sGasdRI8dM1Y9xwFsB6DtA/jmONhSXjt40EF8UE5QbRGr17p98k/tDjAD0sDmqFGjtR72PffcI3fdeVcQd90ld95xhzzX4TnZuXOnPixwzl27drnjr5by8nIZP368vND5BXm09aPyUIuHpNXDrbSUX+/evWXKlCla8o+JZ5YurZDly1eod5s2c41cUxi4PXTTFzxoUBrQgzNZaiqSYBvRbLYLwBqgZhZKwBsw99aSnPrcKWsJWe7NW7YqcJPpVph2109mG4/3kqXLNCtNRptsNlnwtSkI94MnFbhTGW6gu2zmHJkxY2Zq0ptZWqEEX/aMmbN0WzLdrEdtJUGWe5wOoBwwcIgMJst94DWb9t1kMplMJlON1GCBG7hlCnSF6aNv5IVtwHOfA8o+ffrKww5gqVEN6IZhOzfe04GJwCwQic0EkMynM59+qhA7Zuw4ea5jJ7nv3vt0FkdmfnzooYekZcuWcv/99ytIDxwwQKZPmyZDhwyVdu3aSfPmzeWWm2+Rprc2VTi/t/m9cv9998sD9z8gXbp0UY92JoMfTHLDkoGgPlvvIwrcZL+xjADN9IO33gDhUT83SywsALl6uYHxAqwlZLUZ2Al0e5hOQ/i69bLlxa2yXgeArtXX/eDJALgrtGKJz3Jr2b/ZcwLvdjrmqsebAa147D1wh20lZLnHjB2vXm6sJUOGDJc58+bLBx98qPeLyWQymUwmU3XUYIGb7Db1tgHGXNjOBm4mtSGr3bdPP+nXr79mZ+MhmwhAm5kotZ632xfQphQd2dV8ov4zcNmjRy8FbYXrFGj7AKxv+OUNcs3V18hVV1wpV115lVx/7XUK2x6077vvPnnggQekRYsWus+YMWMcJB/VjDxti7aZ15Ogm/7BEkO5Qyb2AdSBbQKLifdze+jmb281UW83WW4H3WoticlyBxnuF2XN2nWyxPUPvwQwMHLFqjUK2byvWe2YiiVsh8WEDLi3lWiWe0EwGQ5/Mw28t6Pg6ebBx9flHjJ0mHTs+LxaSKjHzcyT2EqKR4/V8oC+agkPDPyaYDKZTCaTyVQdNVjg/uLzLxQePXADj8Dd3Lnz9HVAm/ewPWARmTptuoOwYpk4qUSBNAqtYdD2AXBzXAYGTiqZ4qBvcd5M6eeffy579uyR3r2LFJ7JZIdhmwDC77jjDrmtaVO5veltut09ze5RyA5nwsMxefIUbV/QxlOhNmciDrrpFywxhxxI0ydBVjxTozw6iBLoJrCQEH4ApbeW+Cy32k62bVcfNvYQBj/i1yZefJEa3WvS1pLw4Mm4utwZW0nuRDg686SD7PDgSZ15kgy3A+4WD7aQJhdfIve4h5vhI4oVuL2tZGTxGH1tyNARmi3nYchkMplMJpOpOmqQwA30fnQ68G57eCQDy+yQAwYM1Neoxz1nzlyFVSwSHZ7rqNlPtovCahS0PWzzHh5gsq9UwMCPnA+4eY9Bj0D/Y48+ppaSOOgmc41VJAmwo8E1eKCmXYVCN/0AQMcNKE2CbnzelCHUiiVUMHFLMtwMsmQ6eLLZfnAkmetNm1/UgZN+ECZ/Uzdcs91r1qZBHABPA3cqy+2BO5rl9sCt073Py515Em93yZSpctUVV8l3v/OfctGFjTXTzecbtpV44KZqCddlXm6TyWQymUzVUYMEbl93m4obLMlgUxGkd+8+0r//AJk2dZquDx48VAYNHOzgb6l0ePY5WbduQwRSg6w2oAp8Ap0AKNlxPf7hI1qXe+q0Mhk3fpJODJMksttYWfBwL1q0RLp376mZa6A6DqKrEuPGjVMYxiICcAfQnWstIcLQzXV4mwj7BrCdAe8wdHvg5gFj585dsn37y7Jt20s6gPLFF7fq7JJktclgYxXBu62VTPa+qqDtK5awHdtQB3vZsgoFbDLcWVluB9xkub2Pe2nc4MkF2VluBW4XaeCeXCpXXHaFXHv1tXLl5VfI7bfdLkOHjVBribeVDB9ZrJaSvv0Hyrz55TrA1mQymUwmk6mqanDATRaZCU2wSvjM7XYHhtgLHm75sFb1eOrJp9Sr3adPPwXv2bPnyMKFixyMZqwkPqsNmAa1rneoBWLz5i1qQ3n55Z2alWXAHhlTphWnLrfPcLOkPrevkw2MkqkdM2ac9OpVJE+0aasZbu/DrkkMGzZMLR3ZwE0mvnLoJnsNdPNwgg88GGQZwHdclpuMOOcK+iAo/ecHUeLhJlOsWXC3TdjL7QdPKpQ76N68+UW14ADVPOjQl1lZ7pCPO2wrSQ+ejAC3t5UA3GormTFT7rjtDmnerLk86x6mKLnYs2eRWkrGeluJ+rhHSf8Bg9TPzfXb7JMmk8lkMpmqqgYH3Exk8tbbb8vuPXsUEoFGAHHM6DFSMqlEZpbNlAULFjrAXuyge4BOGDN2bJAh9kAahm2y4/iQATkGRs6cNdtB3xLNiOLbHjJ0uAO2gQruS5culcWLF2ssXLhQrSPFxWOkqKiPDpR8/vnO0vaJJxX+awu2CaqrALGAMmUHM8AdRBi2fWRBtwNqHlAA7zfeeEP7DdCm75KgW8P1GctDh47oLJThMoFZFUtCwB3OcgPVS5dVpMsF+iy3t5WEfdyF2krUx53Kcr/wQletb96hw3PS7K5m8tRT7TSzHfZxDxsxSgYPGSb9+g9SuP/kzJnUndQwlMcBZaqGov0Z7d76uh593WQymRqaGhRwk1X+9NNPFZ4pbwcokqn11Uh8ZQ7AsWL5CunigAzYnjBhoto9AFEP29hJqM1NqTomUcF+AFz37ddPJ5Zp2/ZJefjhR6TlQw+rLQSIpvIIIE25Pl+276EWLTWrzvtYSKhC8uCDNbeRhIP2UEOcNnvgzoXu5Ool9An9Q38B0Piyge+otcQDN/3L+wcPBVO+ey+3LxMYV7HElwgEuNNZ7i0vSrl7+AF0c7zcIR+3VivJZyuZt0DL/1GhJGwrofb2nXfcqVVeGHzK50MmG1tJlo972AjpN2CQg/Fx8q77/P2vFA1Bv3KXSphqLt+X0e5sCOt2D5lMpoaur4UtDvV9iR3ggw8+UDAk4+pBOwzbBBBJtnXgwEGa9SYjG4Ztgu2YUXHe/IUKZT16Fknr1o8qRFOi7/rrrtfyfTffeJPODsnfN1z/SwW8Znc3k7vvulvuvvtuhex7771XIbuQAZDViaeffloWLVqs9aQ9bMdDdzZwE9hofL/QTwA34MwyCtzRLDd2GTLjlBSMViwJZ7mTbCV4vSnrRyY7U7EkYysJA3deW4kDbvz4Y8dNDCwlKeDGVoJt6PLLLpcmP26iXu5BbrtwecAR6uMeIQMGDpaBg4ZouxkDUMj9Vh+Wn3/53+L+Z6oF0Y9fpBxJ9C/dGu7v+rzOfYTC79vSlra0ZUNaZmW4/Yte9W09PI17GLg9UBLeRgFIYhfJtpJk4BS4xEqCbQQQe/rpdnLbrU0VqH0mm1rYBKX8gGsmpaG6CNls4mwBdjRat24tU6dO0+sia10V6GYfYJrSgIA22WlAGsj2wB2G7jBwVznLHbGVANzMiMmMk750YJytxAN3jq0k5OMGnp955lld4uEmgG5+nWjXrr38+Ec/lh80/r707z8ouzzgqNE6cHLgoKHSf8Bgd6xyHQOAavv+PB/XP3eASJhqLt+XdHM63OsNYf2zL1mylpGt23pYtm7rYdXH9QaT4Sa7jZ0EMMRTDEjnA24Pp2H4zEDpewrjixYv1WnA+/Tpr1CrIN0iAOkoTAPd2BZq2y5SaAwfPjw1cPJElq0kG7rf0+umj+ifA6+9poBMAMz7Dxxw4H1YwZp+iwPucMUSgDsuy50G7lSW2wM3gL18xUoHyotkNn7rWXNk2vQyrVjiLSXhLHd01sksW4kDbm8rwcfN8do83kYee/RxGTduQhq4mQRnvAPsxx5rIz/8/g/1swymeZ+kpRzxcQPclAYEuPF0H3/rLR0LgAq9/+rq8swXv1JYMtVcnznY/vTL/3Z9i8UiyADrsgGsf5JK7Rd639nSlra0ZX1bKnCHX6yv635mSTKuVMkAED1ss9QsrnvPT/IShe0AuN/TY7DPjh2vaF1nqlj0LupbabaaTDdWEpZx75/t6NWrl2zatFmBOgDuU3qNxx0sA8iHDh1KVxDhYQJYJoDlg+49MtfAOuEfVJKgm20Bbm8rAaoB5DkOeic5uF21arXCdthWQkabgarUPvewTTDYkcGTWEqithKtx50C7lxbSWoSnFCWe1TxaLnj9juk9SOtNXuNpcTPOlnUp59OglPkPkuA2/u4deCk+4wBbmwlQDd+c8o4hu+v6P1WX9Y/+cKFpbhrRWe+CAIIDfzcLH3U7/WP3XXH3V+2buu2busNZT0rwx19sz6tYycBBsmmMqkNgOihEUB8df9+OXDAwWaqGgcVPZKAm32ZtGVK6TSdGKV79x6xkBsOMtv4tcl0x71/tuOZZ9pLefkCBWGunwCGudbXjx5V6D58JMhIsw3XGHjW39MHjAC2M78E5ANujgFAl5cvlGVLK2Tp0mUydNhwLbvYs0dPWbNmrYPtfVm2kmUVy7WaCPYRapczIQ6DJjdu2qLrTJST4+NODZyMlgdUW8niZTnATWlA6pszSJLPomPHTgrYPXr20iolP7zoB9Kv30CZOGlKuh73qNFjU5VKhquthGolc+bN15rc+e63+rL+kYPtT2xW+1oR/fjx5wGMfun+ryEtT3/2q9j7y9Zt3dZtvaGspzPc9TnIbmvN68OH1UeM7QFABByBRF91w2e9WbJNFLaxXQDcWAoAPjKh+LefffbZWMgNBzNG4utmCva492s7sLgwWLJz587Sp29fGTlylE4k44H6iINrlm86QA7KBX6gwXWS+fYZfgZNhm02ccANrOtkNStWaTaaEojtHeB37vyCzHMQvcFBMlPj0wcTxk9US4mGA26f5QbOKQG41YG693GHB09SlxvoDoB7Yxq4fT3utK0kD3AD9NhIOj73vFx1xZXyi5/9XK69+hodLHnhd7+n61SamVRSqp8t9bjDwA1sd+naXXo6QKef4u61+hanPyMsw10b+sjB9kefBxD6pevbhrT80N1HcfeXhYWFRUOJrwGj4Rfq4zpBhQ5gkwysz8gCjqxjb+BvgDIAzff09WzgDvzb2DGOHz+umVUG1vXrP1CeeOKJWOj1AWgSZLkZNBm3TU3isccek06dOkmfPn1kxMiRMs3B7aJFi2TlypWyfv16B6/bdQZLZnSkD4BFriN4iAgCi0nGy53xqkeh2z+kAOtMSANc9ynqI+2efkbLJwLX8+fNlwfuu1969+qt5+RhBiDv1q27lJXNzAye3PtqGriZWIgsN6AdV63EA7fPcqcHToaAO9tWEgA3Pm6AW+txpybBYebPbt16aDWZxt+7UL7z79+W737nP+SRVq1lzLgJMmnyVJkwCR/3RC0FOGjIMOnevZcGs5FSM51+xMddnfuxLq2/f+ZLhSVTzXXawTZ9CYR+oTBK1ZKGsX7qTHBf1fb9aeu2buu2XlfWNcNd2wc939axkwDSZGI9bFNXOw3cDvjCQOkBMwPbmXKAmuF2wBkA9yTp22+gPP7447EgjK8bzzaDKQFt/buGk9mQuX7mmWekl4PZ0aPHyMyZs2TJkiUK1tsdrO7fv99dwwn58MPTLj5MZa7f1+ug9jgT/nA9lEfkdR9cl48ocJMBf931HdO0A8xky5nufqODX4CbzP3PfvJTGerAlOovADbWEUoq8jeBf5xp8+c76I2rVoLnmgGTgDYe6XC1EmA9sJdsTmW3g5KAeLiTfdypetyRLLefAIea3JQAfPLJp91n86C0fuRRHRxZMmWqi2lqK+HzpeTjgEFDNPPNrxlMgoOXe9XqNXLmzJnY+60+rb//6a8cLNmoydrQBw62CYVQFyx91Pf1U2cKu99s3dZt3dbr63o6w12fl+rffvOYgnIGuANPchxwA6xJsE28pZaSderz7dtvQDJwpzLbhJYBdMu47SoLjt+1WzcpdoA9b958Wb16tVov8JsDxadPf+QCwD6tS/zFBH/7AL5fdZBL7XD2IaOdBN3B9QawTTZ/jYPLYUOHyZNtn5RbbrpZvdjU9caOghecjPrdd96tPujp02coXA8ZMlRtIoF95XVZvnyFg9ZhsszBcFy1ErLbQGw4wx21lZDZJqNNFZOFDqQ9dLOMHziZayuJTvPO7KBYRwDsKe5vYrIDbmwl4ydM0io0Y8ZOUD831hKgu0/f/m6bUu3XQu6/urx875Mv5dSn/51CRlNN9L7rR/pSIfRL998lXTaM9Xc+/rKg+82WtrSlLevrMp3h9lHf1gnqJvuBgD677T3IeLXJ/HrgDiIzYNLDdhi42R/rBDW48fW2bds2FpSJhx9+OL30fxcajz76qBQVFcn8+eWyZcsWB9gH5T0HygA2cP3RRx/LJ5+c0fj44080eM0DdxS6AV8sHizJ4gPcYej21xdAdwDcXCuZ83lz50nv3kU6eQ/QPd1BNr8Y0IdA95TJpXJ709sdeN8lPXv0kmHDhsu6devTwE396pGjimWte01rckcmwQHSV6xYqTaVALpzgVun0C+bpT5sMuWLFy9RyAa44+pxJwG3z3L7CXCoVKLVSqbNyAFuBsaypFIJgybJbvOrBtlx+jB6r9X2/Xuu19878yt510G3qeZ674x7gAG4UxDKZDBhKK3P6yc/Kex+s3Vbt3Vbr6/r9T7Djc8W/za2hnB2m+BvanLjxwW0/WsZ2M7NbhNkwLdseVHtB0BYx44d1cfdsVMn6da9u/QfMECBc/z48VJaOtVBYpnMnj1b5syZIzNnzpRJkybJ0KHDdFAhFpE42Ca6u2Nt2rxZ7TDAM0B95synGh60o8CdD7ppd+Dl3q3XWwhw+wAuyUgz++Z111yrFhlsJfxCQL8dcBA9fvwEB+O3yBWXXa6+7pdeejkN3Ey8M378RIXnuElwqB6DDQRw9gMnwz5uqsIA0zzkMN079pN5DqCZgp/KJoTPcms97gTgZuBkFLinp6A7DripA04JwWDymyEK3DxkFfXpr+UTfXnAQu/HurY8+fGX8o6DJVPN9a4Dbvryc4XRIAPMsiGsv/2RZbhtaUtbNuylAnd9Dj+7JHB3+PDraivxwP3GG2/ogD1eAyiBbQASACfzzd86kcsbbyo0AljYMoBEZkUk40rJurVrGby3WrPegDjv4ZV+7bXX5OjRo6lzBqDP31QI4Tj4rgc4OE+C7iFDhuj2QLMH7WgUAt0euIHrXbt2K8jyEOGBOwrdvOf921Ho3rnjFenapatcdfkVOpHMOnft/kGGXwqGDB4qV195ldzX/F4FcvoN6B4zZqx70ChRsMbnHefjptzfosVLtD8BbZ/hxrvNIEmAmAlryGizDoAD3VQ3yRk4GQPc4YGTAPfM2XP1eAyixK/NAEkeojLAXSLjHHSzDGpxBxlugBtbCZBP9Zu4+66+xAkH3CccLJlqrpOfkOlNQeiXDWv51kfx95eFhYVFQ4l6D9xkII8dO6bg/OabgeeYWQ/JyALbTPQCkAOUWEkCIHZw7bbjPcCYJRDO6wR/8xp2CMCUDDoWD5YZiOW14PXAYx2EH8wICHMcyuUlVTkhc7548WLX7jcVoD/99DONmkA310PmGfgni50L3BkLTRS6AW487jxUUPYPsO7i4JvjAdz0HdnpRx9pLU0u/rE8/dTTCs/02eBBg2XKlFK1kcTOOuk+C2abxOs9f8FC9cj7OtwANJlmfNPYRcK1uJlMZ8mSZQraPqLA7WecjA6cZOIiLCPFY8bJxEmTZeSoMTrRDbDtgZv3SiZPVS+3n/xGgbvfAJk2o0z7NO6+qy/xloPttx0smWquEw62T3wcQOhnX6SWKSit7+tvfhhU9LGwsLBoqNEggJuJbYBqYBEoJHN9+PBhzViz7oHbQzfb+dkSCbzK2DG8tQTwxKLCVOeAtYdZD7cEvnEPvmEYBrp57w33AAAwDh8+IjHD3apVK2n3dDu1oXBMD9w1ge7XX39dduzYqbNHch3+IYFqJhk7STxwB/0TWG8A6UdbP6r2EgZUkt0GusmgDxgwSKexv96991yH52T9uvUyoP8AHVBJnytwe1tJyMfNAxBZbbLVWD/IaPNAwoyQs+fMVRgHtikNSLUSstwVZLnnzXcPJktjgTtfpZJJk0sVtDkP5yhx69hGyHb7yW+YbZIp3kcVj9Va3GHgZuZK+i7uvqsvcfz0lxqmmustB9tvfxxAaEOLN9w9FHd/WVhYWDSU+JqvJVxfl586GAWeve0BYMQTDWgTwHUYuAne9xG8FlT18FlgMsOaBXfg6GE7DNxxsO1BGMDlvExC06t3b3nqqadjYZugbjdTkfft01f3DwN34dCdDdxYW/Bxk1HOBu6wfzsZuNmH/uIaqJ3dvNk9ctMNN8rECRP1VwNK9E1yEEvlkscfe1yuvuJK6dqlm3Rw4D1r5iw5eJAHnUPZPu5QPW5mncTyQoZ7ydJl6uvGr71hwybZsmWrernDM05Si1uz3A6wo5aSfJVKmNhm8pSpOn08U8lPnzFLwZuZQ8lm875OfjNugpYGpFIJ73ng7tt/oFsO1Ae0Qu7Durp844Mv5JgBd63ouIPtYx8FAPrpFyz/O7Ws/+uvf1DY/WZLW9rSlvV1qRnuQjeua0v82wAndhIP3GRnWccGceTI0VjgJjx0egj1sB0A9ynNfB947bUc2CajnIHdDHB7KCaTTJ1pMtu33dpUHnzgwVjYJniPGtfFxcV63Chw54PucBvCWW4eFoBafOY8UADc/rqiwE3E2UroL4I+mFwyRQdKNr3lVoVsYJtKIkD0smXL5OGHWso1V1/jruN+rbaCjQa7TpaPOwXcPATQNnzeZOEpDxitVBIFbn4lwGaycOFihXNgW4E7oVLJnHnlOhiScoCUBwS+8XFrpZLpZTrxzYCBQ2TchJI0cGM1IesdBu7eRf00uB5+RSnkfqyLyzc+/FKOOug21Vxvnv6VBhDa0OKIA+5C7jdb2tKWtqyvy3qd4SYASiwkAWwHwE2WleoUR48GVpMocMdVJwkDN9lubCYAd7T2dVJ22wMx7SGD27dff/VA33333bGwTTA1+4QJExyI7tZjfPZZLnBHoTt8zgx0Z4CbawkGTr6UynAnVSmpHLh5WAGaGSjJFOn33tNca3XPnTNXH2qOvP66lu+75+57dHKZpQ6AAVT10ScMnAwDNw8F4UolScDNFO+zZ89x0B2UCQS440oDzpnrYHtiiYK1VitxwcDJcGlA/Np9+g6QsQ6wAW4y2yNHjZaJ7sGCSiX9BwTA/cIL3aRrl+5azvDTTz/Nex/W5eXr738hRx10m2quN07/t3uACQD0TARI6/v6QXcfFXK/2dKWtrRlfV0qcNfX+PzzLxSOsT+EgRsriNZVHjDQgdgi2b795Szo9rAZB9wAKsfEg42FIhu482e3eY3teQCYOm2a3HnHHXLrLbdmQTa+7fbtn5Xi4tFa+QTPNTMafvbZ55pJzQfdHB9Axl+ugz1d+8hCA8Zk1sloA7eA6969e901n9TriVpK8gE34aGb49Kfr+zcJV1e6KLlAO++6261mtDnXCfZ7MmTS2Xo0OE6M2XBwL3zlTRwk+XOC9xr1ukAyKBE4OoAuFO2Eg/cgDV+7Zkz58j88qA8YLg0oAfu0qkztOSfB24y3MwyGQXurl176BTvTNZDpZK4+68+xBEHSoddmGqu1x1sH3XhYbQhLQ++H39/WVhYWDSUyAJuT+L1Zd2XBMzYSQLgxtO9aNFihd2mtzSVR1o9ogP6PFBGYZsIAzdLYBKgTQLucKY5nH1mG7LcgPSCBQtk8OAhMmLkKJ0uvbS0VG0Y27dvd1B6UCGZ7CmgHY446GZb4JUqIUxuA8AyGBGA5TUysZsdrAKwbEf7ua4wcIehuyrATd8C05QJfPyxNrLGAbAHbjLdtAMLDw8B3lISV4s7B7gjU7znA24y2JQHJLMdBm4GTQLS+LWB7AULF8fW4vbAjY+7/8DBai2ZMLFERowoVg/36LHj1VLigbtHzyIp6ttfFrr7iM8+7v6rD+uHTn0hhwy4a0Wvf/jfcuSDAEDPfP5lAKNu2RDWD7yXyXCH7y9bt3Vbt/WGsl6vM9yAKSUBM8Ad1MEmw0qWG+sDU5A/+2wHeezRxxwEHlCgLBS4oxnuODuJh23CZ6J5nW1ojy89SJCN5lxAdpDV/kwBmweHfNBNG2jLtm3b9ThH36Cqykm9ZgZ38hoeacCX7DfvcR4/YLI6wM0xPHATgHVFxXIHvgv1PGHg9hVfaAvnPxvADWQvWMiU70vTwM3fTGQzo2y2gvYiB9/U4ga2o8AdnvxmxMhi6c+gyH4DFLbJ0I8YNVqrlHjg7tmrjwI39hT6P+7+qw9x0AH3ay5MNddhB9vEJ2koDaIhrO9/L/7+srCwsGgo8TVgjj/q4xIoDVcoAQwPHjoso4rHSOfnO+vMiFTCoLJG7959dCryOOD2MEoAp2opccfFC+6BO4DuyoHbhwfvIILtgexwRptrCEN2OLCY+GPRFrLYAC3to/QgbWFJ5jsD01wTE94E9cGpB14ZcMdBdxxw07/42mkDkJ0E3MzsGa5SotC9zz0QOOD2lUrigBsfdz7gZjIcMtdkuslsU3mEGttMjMNgSoL3kmab9FlugHvCpMnpDDfBIEvAmzrc0Qw379F/+e7Durzc/+7nBty1pIPvY61wEOpgVKE0BKf1fX3vu4Xdb7a0pS1tWV+XWRlu/2J9WQdgyWSHgRv4W+XgbNSoYnnuuU5yX/P75KEHW0izu+7WbPdLL7+sXud8wA10AttAZDZwB1nuDEhngDsM24TPXkeDawgvowFos68PYJ0MNnYRQNjDOxHAf+7kN0R1gZu+8XaSKHD7ALbzATf+7d0OrgHp9Rs2OVheLStWrNZJbgDtfMC9eTOT4WyOBW4g24P2LAfSTIhDpnuRW5Lh9mUBw7W4AW6qlHjgLnXAzUyTDJ5kOXbcRK3B3blzF3nmmWelqE8/6dtvoHTv0VuBe9iIkdpvcfdffVjf/14QpprrtVO/ktcccAOhDS32OOCujfvR1m3d1m29rq7X6ww32WI8w2HgBgKxLQBtTKryfKfOMmniJLd8Xlo/0lo6PNtBId0DN4AJPOL/9sDNJDgAI8cMQ2wAtkGWuzrAHXcNRHibcGabIFtNdhgwpa3+vFUFbg/d+YDbw3Z1gBvYxmqyyQEzvyisXrNWp8UHpLdue0lrbFNHG/gGsJMsJUnATQYbn/b06WX6q8WyZcu1fje1uKN1uHOAO5XlDgO3n2mSSW+YfbJL1+5yW9PbpFv3XjrpDcDdq6ivg+8B2kdxn119WO5953N51cGSqeY64IAbawUA+vFnLH+VWtb/9V0nC7vfbGlLW9qyvi4VuMMv1qd1gBvY8yAIGAKAQBzThpeXL1ALAVaIVxzgrVu3TtasXuNg8bhCJtCIxQEAx3tMGcAjrx9VvzRTk2PPCENsFLg9bMcDd5Cp5jzA4+ji0dKpY0d5+smn5IXOnTUDD5QCuWHgDqA7cxwsI3igeYgAis8ucGeXBCwEuKl1vmPHK7J+/UaFbc1gA9Mv79DSf/Qvdbh5gAG+8YBj7SkEuJlpEvsIs0TipWY2Svb3E+BEywIC3OHJb5KAu8QBt59psk+f/jJsxCi1kzB7ZvcUcPfs3Ue6Ogjv1buv9k9t3K/n4/oeB9yEqeZ69b1faQChH6egNB31fP0VB9xx95et27qt23pDWc/KcEffrOvrScAN2K1wUFZaOk3mzpsfAHRqwKQPtmVAHwP82AeA5DUgEkDnb4A1DLFh4I5CdzZsA8rvuzaskK5dusqAAQNlkYNCpkCf79rTvXsPueO22+XO2++Qbg7qAM1wRjyc5Vbg3ks1kl3a7vMFuOknLUHoHmyoUMKASOAaz7YOmnQPLPRveNAk1VV4CFrjHjTCwM3nFQZuPNzLlq8IBjo60F60ZKmsWLlKB00yMJKsNrBNprtKwO2OxSDLkilTFbjHTZgoLR9qKXfecaf07FUk9993v3TvEQA31pIXXujqPque2jdx9199WN99EuC2DHdtaJ+D7b3vBjD6UQpKG8pyx4ngF7zo/WXrtm7rtt5Q1tMZ7voYADewHAZuQJDs6lwHXMweSAWKzp1fkBEjRio4+SDLvdNBH1DJRDhkswFSYJOsM6Ab9m8TccDtoTsM3ADp5MlTpFXLVjJo4GAdLMjxAWkAmWz6tKnTtGThz3/6M2n7xJOa1Y3CNoGlZPeePbJt+3ZtdyHAHcD2ad23cuAO+7cLA276GHgGlHkYALC5Jl+DO1ylJF2pxG0HkFNmb20kw+2BmwGTFRUrZObsOQ6Y5yl0r1gV2FOwlVCHe/bsuQretQHcRUV95eGWD8tDLVpK60celRYtWihk490GuIHvHj16a7/E3X/1IXY54CZMNdceB9t73v2VQmhDi5dPxN9fFhYWFg0lvgbEhV+oL+ssGTRJNhrA9cDNcs/evVI8epxOxgLUXv6Ly+SZds/oex4s2Y+sLNAJiPoARj1sVwbcHrrDwA2sz5w5S8/b/pn2DkSDqcF9+3kaImjHxAmT5BeX/kwu/clPNRP+5rFjmukOAzfH94MmyURHgRuoZoIbINlDtIdl/s4H3D6zXRXgPn78be03Hmp8qcNwSUCtwx2tUuK2Y/ZLgBpQZglw+6ndedhglso5DpCpnw6Qr1m7Tj3c69ZvVNhm0CST3mARIsu9rIKZJnOBe978hZUC96TJAXA/2vpRhep+/QbqhD54/J9t30F6OxAHuFlSHhB/f/i+859lfVjf8fZn8soJA+7a0G4H27ve8RD6hS5Pfxos6/v69reD+6q2709bt3Vbt/W6sq4Z7to+6PmwTpDdxS4SBm6CbCq2DTy/TK9OBQpqL5NhBSwBVOBw375XHXxmA7eHUw/cYehOAm7CW0tefmmHPHD/A3LLTTfrdOSfOWj27Q1fB38Drk89+ZT88KLvq8Vk8eIlOcDNMQFawJRsPu3x5wScufZ9+/bJWgeoWDVYbtiwUa+NLD7w7GE7G7izYbtQ4CaDzS8DWg/cPbRg6WFZGXDjQV+csoYA2mS3AWqqiyx0wWQ6PFTg3QbIgXA83H7Q5KrVaxW4584PSgMy4Q0DKaPADWzHATf2FGBdgbukVGeZbN6sufTrP1BnmGx+T3P9LPi1Af82wE0EwH0i57Pzf9f19R0OlF520F0ntKWb/PUFfyN/3X1b6oUqqCb7FqhXTuJlzkDoaQXTc7y+cYX82qVl8mv9dofe3yXP89qlK2RFdPtqrm97u7D7zdZt3dZtvb6upzPc9XEJdHrgJjwcArJPOngCDNc6CGUw36jRY9W+EAZuJqUh0wuAFg7c8bYSgozx1KnT5CeXNJEWDzyo4E87w0HbfXA+Kqhc/IMf6rTpI0eMzIJtH6fe/8Bd017NKtN+zk9mm2oqnGO7g3FA9+jRoxoHDx1SX/XWbdvc64cUpP01BrCdm90mCgHuXbv2qB8emOcBoCDgdvBPpRKy28uXr9QJdIBvpk3Hs71p0xaF7K1btyt0x9Xh9sBNGUAy1UzZHzdo0gM3Zf+ox07NbcoCpoG71AN3iTRvfq9muLt16yGtWj0inTq9oDNp9ujZOwu46Rf/2dW35UtvfeaAu3Y83Fu7O6AFaptNlROp12pV5zlw73SwveNEBkIB0jSc5lt/fZNcrwBceVw//XjVjr9xebBvv12h93engXt5ZfsXuP7i8cLuN1va0pa2rK/LdIbbR31ax1IC4EWBm4zqcx2f17rbwCAAB0gBp4AlwA0gAoPAZxi6PXADtFUFbiqcFPUukh80vkhat2qlUBpuezTIZi9ZskQtL00u/rH07tU7y57ig2Mfc9eHz3nX7t3afq6TLDMQHmS+MwM8scQEcLxb/dFkpYFoD9txwB0uCZgPuPGjA9Bk3eMy3Ew8dOC1gxngfvWADpqkYglZa4Da+7X5e/v2oEqJDpjc4uC7EuCmOglVSxYtXqK/CGAviQL3pMmlMtVBOdlz/N/4xmfOmqPATUnAiSVBhZJnn31Obr35VrnphpukY8fO8tSTTzvwbqUQ7i0lvYv6pYGbqM3793xY3/7W57LNRc21TboCtBr3SOnx1MvVUADuNTtGjr4C4H7ZwTahMJqOAtarBNxv5e6fbz2d4XbAnX7fZ7iXO+CuZP8C17c44I67v2zd1m3d1hvKer3OcDNoEtjzwA0QAofAYOnUaWonafFgC7nn7nvUn8v7PpMLKALgHkAJoJMARsNZbg+yGeiOt5UA/1hZvn9hY3moxUMKuuHqI3FBqcJbb75FgbtXz145wO2tKpwTsAZOVzv4BCTJ2HubCe3ybfTtBpzJ8rMd/QRAJwN3LmzHATd9S/acALJfT8F2GrjdNYeBO12lxIE6E95gJYmWBNRBkw64qXhSCHAvdIA9fUaZzjIZzXCXzQwGXGI5KXfADXQzWQ4T5URLAg4fMUqefqqddOjQ0QH38/qZYQeiMgnATUlAgJu+4rMq9L6sS8utxz+rFeA+Mf0eBdqu3QOwbTa9ujnuE1LarG4C90sOtre/HUDohykY/fBMddbfkrEPA8TzZeyRQrbPs74hlOFOv79bOilwr5CKqh4vYX3TscLuN1va0pa2rK9LBe76GuFBkx64fZDdZabJJhdfIr+89nqZP788CzCPHQ8qbbAtQBWAJtnxV1M2jHfT4EpkA3d8lpvqHcOGDVfgbnZXM7VLeHBOAm+Au+ktt8rVV1wpY8eMzYJtwgO3h27a6q8XSCazHYbtALiD6iRk7GnTNge0ZMIB55oCN+flwQJoJiNNBvvw4WCGybzA7R5usPokzTJZFeDGVjK5dKoD7cXBLJMh4KaCyYaNm9XfPXvufJk5e65mtgHx0qkzUgMmJ6cnvRk6bIR6/AFtwPvBB1pItxBwDxw0WPsn7rOrD4EV4MVjNfVwe0juJlvTmW7+ro7qLnBve/tLDSAUIE1HldePZ4D79bj3q7AespRk3t+VAu7lUhHdvprrGx1wx91fFhYWFg0l6j1wk6n2AEqwTg1ofMQA9bKlFTrVO2AOVHrABK7xfzMhC0AZ7HdAtwMWj7z+esHA7aEbGwp1tn/y40vk+muulSlTShWUoxAdjqVLlsplP/+FPHDf/bJp0+as98Kw7aGeCM6ZKQfogTu+7vYpzS5j3SAbzoNEoQMmk4AbiCfTjaUFKwi/FBw+AnQHZQGTgJtBq3HAna7B7YAb20kccFOlxE94A3DPX7BQB0auXL3GwfZCLRc4b165DhitWLFSs986aHLmbJk2PZg4Z8qUqQrc+Lo9cD/7bAe54bpfqr0Ev/a9ze+Vrt16qJ0E4B4/YZJaceLuv/oQmx1sb3GwVCMdnyrNQjDrvdxdt+hqRNlAHvZ9V/i/o+EhOS80hy0tQWRl2fPt69sfivi259fWt76UF98KIPSDFJRWb3lcxqSAe8yR5O0q+rFNdnTaENnOZ7j7BsAdvJ4B7mVZx/WvR7evfLn+jfj7y8LCwqKhRAMA7kyGG2j2QAcEAtwAIKDoYTIMmbwOGAKCwCJgSeb3qDsOXmlgNQrc+aCbIJP8cMtWcsmPLpZn2z+r5/TQHIZpgvMPHzZcrrnyKh0wCdj59/LD9id67nCbgnbmAjehNhDXLsDXX2O4H4g44Paw7YHbwzYBvNNP9DEVSHhYof62AvcBB9zuoScN3HsDS0kWcLv25AB3apbJQoCbAZMMnJzvwBrwpqwgGfAlyyoUttVG4oF7xkytvU1t9EklU3TAZHv32dze9HYtB3jjDTdKj55F0qdvf133M0wSw0cW6y8CcfdffQisAJverFmGOwewCwLjblKasqFo1AS4/es5EcqSJ+zrrTBxUVVbzJbjX8gWB91AaM0iG7jjtlnWNwXGMQF0p7cNAXdm/2zgDl7z5wwGZma2LSzWGXBbWFg08PiatzLUxyXAfTwFgMAg2WkqdpC5JsvKEpDG8hAH3ASveSAHeIm33npLwRDQ9MAdD925WW7gbMGChXLjL2+Qm2+4SWbPmqOvhwGa4Dxs9+D9D0ifoj7qgT59+iPZuXOXg84tOYBNcL5wRttHpo0Z4PawzXmAZzLK+K651lw7SeUDJv1DTRZwu/4GmAFuYJtfFTxw64DJEHDzSwLbKXC7tnjg9pPeANhMDx8H3N5OAnAvc7DtgRv/NtYRXl+6bIX6tYFtXxIQO4mf0p2BlCUA96QAuDt1el7uv/d+6eLg+p57mkvPnr0VuO9pdo907RYANyUD2faU68dC7se6uNzwxmey8c2aZLjjLCT5bCHhTHTc+3n2jYPmcHY6B6Yd1OcD7vS+EftL+vWq2Vo2H8fLHADo+2c+r8HyuIxOAffoI/HbAdyAdfj1/dPnB3D98CZ51b8eAe5g+13SMQ3crPvzlcl104+Ftit8ueZoYfebLW1pS1vW16VmuAvduK4tAW4qdnhbCUsyrh4KCYAbmAUcgckwaAbxXtrX7IGbbanEAVQCr8nAHZ/lPuH2nz1rtk7dTn3tCRMmagWTMHBTrrDd0+10spfXXfto67JlFQ78esm0qdNzjhlnIUmC7Shwc21ALl5uQLo6/u0ocOPXDqqNbFawpo+pUJI0yyT+bYCb7DZt8ZPeLF++QoYOHSa9evXWbDWwXTXgrlDoXrBwSbpKSbgGt5/wZvIUgLs0PWCSuuwDBw1RD/d9Drw9cPM3EA5wM2By1uw5rh8/KOh+rItLrADrHXRXWymQjWaDfeY4N0ucAe5420bVgNtn1yvNRifuGw/V6UGgVbCWbHSwTWRg1EdV14+lM9yjj8S9n7QeBunUeyHgzmyfneFOZ8vT2xR6vsz6mqOF3W+2tKUtbVlfl/U6w02VkrdPnJBDDv48cDNYEkAkmCEQOAQEsVUAlGEftw8P3B662Y4MOfsArXElApOgm204DlljAHfSpMnStWsPGdB/gEK8z1wvW7pM/cJdXugqbZ9oq2B+3dXXaonAvn36ZB0zCbaJOOD2sO2Bm6BaSQa4s68/yU7i+zEM22S1ORbZaJZktIHvYMBkdknAtH87YidhUCOZ4yfaPKG/BLR6+BGZWjpN1q3bkAXbzDipAyZTs0xiJwG4lyxjlskAuBcuyi0LmAZu6m/PmKm1t2fNnheUBFTgniRjxo7XOt3Dho+Shx5qqbW3gWymeX+hS3cp6tNfPd1MNc8vD4Xcj3VxufboZ2oHqJ7ywLHPEufU5I7LiIdVFeD22xYwQDNn33CmPTmqYivZcOxLWf9mCkI/+bwGy1CG+3Bl23vIDocDaf/++ghw6+sZMB89LZUVz3q/6stVrxd2v9nSlra0ZX1dKnDX1wC4gVtAENjGUwzQse6BmyXZV6DcQ2UUOKNZbmCZ7QF1D64BzAbgHQbeKHTv2b1XM9SUy3vNwScl7Hr2KpKnnm4n5eUL08C9atVqnY3yZz/5qfq9f9D4+3LJxT+WX153vQwbNkzPVx3YTgJusstYShgsGr72fHaSMHAfOXJUgRm7y44dAWgHdp0jQf+6v9VOEgFuX53E20mWugeN4cNH6FT7V15+pVz43e/Jwy0fcbC8ML5Cyeq1Wf7tDHCHZplcGMB2FnBjJ0n5t8eNnyQz8HEzYHLiZLc+UYF75KjROstkm8efkF4OrgFsJkxi0CR/d+/RW0Gfvo67/+pDYAUgqqWYwYa5EQXn2gTuyo4V0lcA3OscbBOngFAXunQwWvX1YyFLSfz2+TzcHrh1+1CGO7N/FNIDsA8fv6rtX/l68KVjYWFh0VAjC7g9ideXdQKYxK4BPJKRJpvK0sOiB26yrx4qK8tyA+AcA3AMw2vl0P2RQu3jjz0uN994k9x8w41y7dXXaBWSq664UgYOHJQG7lde2S39+g2Q3r37yMSJkxxIVsjLbl8qfxx781jWMX2Ez1kV2OaagF7axkNI+LrD2W0P3B62yWYDzExQg7caawj94n3xvE/fAt1p4PYDJpnwxm2/0j1Y4KsG1AFuPNvANFaSVi0f1geNZnc3k1mzZlfq304E7lR2e978hWojKR4zTgYMHKKl/YqK+qqVZLK3k0wsUeCmQkkA3COkS5duaichw92lawDbDKJkBkpm1vzkk09i77/6sE5mcrWL6ijfgMOsCNk4zj/gLmDfArX2zS9lzRsAaApKUzBa9fXsDHf0/X2hrHT2/pnM9VK/fSTDHWwf2s6/D6Qntqfy9eVHaud+tHVbt3Vbr6vr9TrDTZBZBvyY1RE/9969UeAO6kbjLQ6DZRg6g8hkuQky5gz0o1JJNnDnh+59+/ZpPWdmmyRzfcP1v5RHWrWWHj16y5IlS3UbMtf4go8dw6bxlraH9YyNJDurTYTPlYHtZOAOw7YCt7sWBk4C3EA2UE2faSbe9Q1VRnhYwVsN+K5bv1HL9GEF4YGGPgasWdI3+otCBLgZNElmG8vIuHET5AnNHBcpJHNuP2CScwDeWEp+eNEP5BeX/lwfOsLAvXbdhqz621HgxrcdBW7qbGs2u2ym+sGJufPm64Q3Qf3twE4ydvwEGe2gfPiIYhkydIT0HzBI+vUfpJ5tQBvw9svj7v6hakzcvVcfYqWD7ZUOlqquPGDsFTsosTaB229bHQ93Zt/qlACM0+qjX2gEEFqTCGW4U5nncCzV7HbMe4c3ynUh4NbXQsCd2TYbzNMAH96virH8SPaXj4WFhUVDi69hu+CP+roETikNiI2EQY7AtreUEEClL1dH9jYZuLOz3BwDSMRy4SE2G7oZTJkN3oAx0A+oMu34Sy9RMSUYUMjxgPoAqOMiF7KJMGgT+WAbwAam6QcAGM84nnYAF4gldHKZTVu0DJ+fEOeVXbs0G01VF+2/41R8eVOPQQDXvn998BrbeuDmuBPGT9TsPg8ZP7/0Z9L01lultHSq2nyiAybnzS/XmR1/9P0fqq2kf/+BmtEGuNN2kpB/O2vAZAxwzytfqLOLTp06XbPcfsAkgYfb199WO8m48TJq9FgF7sFDhms2vK87fy+dyr1vOsM9sni0fv6F3Id1dbn88KeywsFSleUBNsejHVYc1BYK3DEgnAPNTv41F1HorrRKSWjf2HPlvbZcrXKwvfL1ALjf+zgA0eotj0lxCriLD+W+HwB3ANHp1w952A7AeYl/fV0KuPsEwB1sv0uei2y3pE9q34c3yr70doUvlx4KvnAKve9saUtb2rK+LbMy3P7F+rQeLg3oA8+xB27WAW7A0PuTAe44W0k4yw1UYsFgW0A2Cbqj2W4gmG2CGt7BLJDVjTBoB8fOBBlxrgXY3bNnj5ZDBKABWrLZwDPXTF9wXSyxqwDQ9Ek6O+2Cpf8bkOZXgeBhJVOVxIeHbfb3wM0xqQ5D1npZxXIdeEiG/6YbbpSysplp/zbAzUMM1Ule6PyCdOvazW1zk/zXf3xX2rV71gH00hz/dnTAZBJwT51WptO3R6uTlDoA1+ncS0p1oGbaTlI8Rv3bgwYPc8A9OG0pKXJLD9zMSMnnmO/+q+vrWAGWH656hrvQ6iBp20kVrBzpyXB8+H3joNkpZ/t0hLLkVd7XRRWBe4WDbQIIfS8Fo9VbhoD7cMz7HqIjcd20jRmQ9tuHMtyZ44SAO3TcMHTvDb1eyHKpu4dq4360dVu3dVuvq+v1PsONvxZ7BCAIEAKJPjxwM/gRKGS7yqDbA/cbbxxzAPmSbuvtGZVBtw8PyHEQXVmEATscnIO2kKnfsTOYpRGwBrgZCMnskSdOntR+8LYP/gaeuU61i7h96Bef5ed49In3bEcj05fxwK2QnrKT6GDJ/a9pVZKBAwbKFb+4TH5ySRMZP35CDnDj6aYO9tRp06XVw63kou81lubNmsvMmbPVyuKz25UNmAxXKKECCQMjGSzpq5MwpfsUBW4/u2TGTuIHTALcffsNSE/l3qfvgDRwL3Pn4vMt5D6sq8tlhz6ViqoCd5XqVHvA9tsW4p3OZLk1KgFuVcwAzqyHgXz7+vfCEbddJVruYLviSACh76Zg9N2PP6vG+jEZlQLuUYcSto9A97XTjrnXMyC92G8fynBn9g9vFz6+P2/wHjBeWHs/l8WW4balLW3ZwJcK3OEX69s6GW5gk6oiHgrDwE0AiUAhkBiF7ihw+yw3+5CJZXsP3PmhOxm8fVQFsAmyq7QZWwjZY6CVrDJt1Ky1g2mulzbSZiZo8Q8MfhsflPDbunW79ksYuH3EgbfvR9+vhAfusJ2EB5pwdRJg99abb3UgfaH0Keqr9pWwnaRbt+4yZMhwhWqy3Jc2+akOKp00qUS922k7SSEDJlMVShgYiVd7JnYSqpMkZLexkxSPzvi3AeyOz3VKe7a9f5sKJbSXzyjf/VfX17ECLHFhqrmWHflCAwgFSDNR/9cXHfo89v6ydVu3dVtvKOtZGe7om/VlHSgCTD0UelAkPDgqGB4MBvWFoTvJWgJYArnsGwbuKHQXAt5x8J0UWEXefPNNBWRAFdgGcMlic21cD+3jvAB5JrLbGIB3ZoIbX4eb60mCbV9GMQzbSdntsJ0kXA6QUoBrHTA/+MCD0vi/viePP/6EgrLPbi9atFie7/S8TJ8+Q6+PWtjXXHWNfP/CxjoBDqAd6992wJ1kJwG4KfcHYGMnmV42Kyu77Se78XaSUcWBf3vgoKGa4X6+0wsK2QQebmAb8D527Jg+0NX2/Xo+rS8+CHDXZKZJk9fSw1+4+Fwh9J2PAihtKMsFr2Xuqdq8P23d1m3d1uvKejrDXZ+DAYdHjwaDJX14YPQAyWsAItlYLA7EoUNH9L24TDdgSYab/QBcwDTIlB9RaMfOAUTind66bVsqtmsAtoAyAw8B6Ch8xwE42wGyZIABU/zUQDbXAAzHgX44MqCdgWwfDPwjO/7SSzv0WGHgzsB24dlt2hm2k1CdJFx7mxKEzKL5/QsvkltuukVmzpyVBu7evYtkyJChsmr1GnnRAffsufM0G/69//wv6dy5i05oU1X/NgMmx02YpFltzW57O0nptOzqJOMmaHYbOwmDJYFtqpM836lzCLj7KXCzPX0Xd7/Vp1jkgJsw1VyL3YPLEgfdhUJqfVqGgdvCwsKiIcbXyNCFX6iP6/i4qQ4ShkMPjEQYIoFGP4gSzzEQqJDswBlvNBU7CMCXMnXAM1BNhnjvvqCSB/YVoJPjAa1vpWa0pFpKkGk/5gD2bXndPQSwPdvkZsGz46jbF1ClnezLsX0mm/DbAeYergPADiwk0Yx2GLYBbICb66CdwHUucBcO25nsdvCrQc7sknv3Sf9+/bXc38U/+JGMGTNWq6EsdbDcsWMnrSZCdpvAQnLvPfcqcLdq2Upmz55bqZ0E4A77t+fOK9cMdtnMlJ3EATf2koydJDPZTRS4yWS/4EAfyCa7zTp/e/92bdyf5/P6gtc+lYUG3LWiRYe+cA8vDkAjMNoQ1ucfCIC7tu9PW7d1W7f1urKuGe7aPuj5tg5wv3fqVJaPGxCcP79cyssXKCx6mPRgyTbeZgJAvpECSoL3WN+3L6jqwfts6wPYZDuOBeQGGeawvSOAX94n8872DF700BwXR15/XbPAwG8A05n63z7CoF0IbIeBG5gHuGmLf1DIwHb1vNtpO8mBgxnYZip3B9yTp0yVG2+4SUG6V89eWu6vn4PwgYMG62Q4L27dpsDNQ82TbZ9UML/t1tuktHRawcCt2e35C2XO3HIt/Yd/O36wZImMVTvJOLWwYCXBvz1w0BDp3r2XdOr4vHTt1tNBeADg3r/NLydx91t9Wi9/7TMNU821wMH2QhcngdBQNIT1eSngjt5ftm7rtm7rDWU9neGu70tsGcBgkGE+rhnVu++6W5rf01ynEQcEPVACwh4y46AT2GRmSrLerAOtZJvD4UE3DMC5gHxKPeI6TbwD07htfADkO3ZSyWOXtiW8bfgcPqoC2wQT29AnZNyB57jr9teeBNtRKwnXxPT12dltB9x79sqKFSu18gjA/USbJ6WsbJZmtydPnqKgjZ2EeuWAODaTX/zsF3LpT34qY0aPzbKTqH87wU4yf0EwlfvsufNlRtlszWJjHwG+J6fsJEHt7UnpwZLA9rARozTD3X/AYK1OwpLXgO1uDsApE4h3vZD7rq4v5x34VOYbcNeKyh1sl78WZH1Pns6G0/q+Pmd/dobblra0pS0b2jKd4fZRX9eDCXDeVLAGEvFQ9+5VpPaGBQsWSvdu3TXz6sEyDJzeXkEAp7yPTYJjsR4AbPZMlD7iYDgM0gC3ZsaPHHHbZywi0QDOjznIe3nHKw6Md2ob4o6fff540CbCsE0AyJQFZObIo5qd99efC9sEYB1AdVCBhIcGP4FQZdltgJts/RNt2qZL/j355FMyaNAQB9GrNLsNbPuZJXXg5NXXKpzfdcdd8lyH59RvvXjx0kh2uyID3AuXqHd7zrzydO3tIUOH68BJZpwswbsdqk7CRDeDhgyTYcNHajlAstt+dklfEpDMNsDNTJV83vnut/qyTmZyrgtTzTXPwfZ8F0BoQwuAO+7+snVbt3VbbyjrDSbDHfi439HJXTx4YyEAHMnMbt68RQYPHqrg6AEzCboBTsARiMwAt4/CwRvYJjtMFhjQ5bU42PYBdHPunTt3aTaaNvpj5Z6zcNgmeAihLOBWB7uBHSa47ihssx39BTAziQ0zZrJcsHCRrFu3XjPlwDbwnevdDrLb2FcYlNqzR08t+XfJxZfInbffoXW3vZVk8+YAuJnopn//AXLFZZfL1VdeLc8//4JaQ4Dswuwk8wPgnjnbQboDawfvWEjIdPvBksUp2B4xMqi9jXXEzy4JcPd0D2aAtg/6iF9MCrnv6vpyzv5PDbhrSQA3fQmAnjjtl582iPVZr1qG25a2tGXDXipwN5RgZkc/qA/rxJQppbJsWYVCJJDJAMiSyVNCwB0P3WwPcPsMN5FdPjAeugkPyGwDwAKlZKw5vn+vsqCte/bu1UGXuedKBm0iDrb9deHhxsrB8f1skmHg5uGAvmOadnzWr7yyO8jOk91217HBwfEmB8n0DaCdlN3m4YJBmmPdA89111ynmetOnTpnvNtML+8egCocyA9w0EtFkxEjRjmoX6yQvXLl6kQ7SRZszyuX2SnYZmZJvNtFvfvImLETHGwH3m0AHMgeOWpM1mQ32EiYXdJPcuNhm0w3ZRl5gIu7x+pbzN7/mcx2sGSquebs/1wDGG1oAXDH3V8WFhYWDSUaFHB//NHHcsxBI1ltMrHDh4+QW2+5VWsuk7HldbK0y5evSINmHHQDn4Akpf+i8FooeLMt5wNUC4Vt9gP2NcO9A1tJUKkkc9yqZbUJD9sEDyEbN27S7HkA3RnYZp32UrGFkn1kqXnNP8DwHoC9Zs063R8Ip8pLUnYb4J7jYPj2prfr1O3PPvucZqupSkJWm+w29bqZSZJgkGT+wZKBncQDt/duz5w9V2HbD5Ykq92lSzcZ5QCbett+oCRTufvJbsJ2kjBsE2UzZ2l/xt1f9TFmOlAClkw112wH2/QlAPr26U8b1LJsnwG3hYVFw44GBdxarcSBKZAIEL7ioK9L1+5yT7N75PJfXCZPPNFWwWzBgkVaOzoJunkNUKY0IKAaB7LZ4E1kwzfbeHsGwBp+Lzuo8X1C/dDbtr2kGWDaznlpS2UZbaIQ2PbXRZYf6MYSAlDTRtoHNDNQcbmDXHzvUdimTVhJsIPs2PGKwjv7JGW3ecBhCvc7br9TgfvHP7xYP4devfvIosVL03YSImt2ydBgyaidZKHbj5klo95tnegmPbPkVC0DWORgGisJE90A2x64GSyZsZNkfNs+eJjAThJ3f9XHKHOACCyZai4eXma++rlC6NspGG0oyxkG3BYWFg08vuZ/Gm8ISwJYAiKZ4AZoXrR4ic5uiB2iT99+cuvNt8jPfvJThT+AzHu6o9ANYOL75r0k6CZywZsI4Jv3gVUAlow7fwOwwDXZc7LJwC82j30OWmk37WDJvrnHzY4k0CaisB3E23r+tevWy9q16xSayVrTN0uWLNX2cN1R2A4DNw8x2196SQel0uak7DZA3bVrN7m3+b3ywgtdZdbseQrWDJL0gyWB7XXrM7Bd2WQ3DJRkVknv3dbsdnSim5JSBWsGS/L5jhhZrLDNMmwnKerTX2H7gfsfkDaPt5EuXboLJQv97JL57rP6tJy+N4AlU81V5mCbvlQI/TCA0bdSy/q+Pn1vANyF3ne2tKUtbVnflprhLnTj+rCkWglgeeC11xQasWeMduCFP5l1YJf63LfcdLP06tnbAd5qheoodAOblAX02WYfcXDrIw6+ORYAS7z66gGFVKwYQCzvcUzaRdCG6P5xkQ+0iXB7/fUQ/jo5FwMDdUCkg1muE5imjdESgGHYpu/IZJOFp0411xKX3V7vIBr4JcMNWFORRAdKprzbYeAGtiuWr9BtZ82ao/aQOXPnqYXEZ7cTvdup7ZlhkrrblAAko42thJknGRxJVZKc7Ha/gdKte0+57pprpcnFl+i90KnTC7J06XIdvFrIfVZfltMcKBGmmmu6g20igNBPg6WLhrA+zV13IfebLW1pS1vW12WDynCzBLjJLgN4wOLu3Xtl3PgJ+jeD9oDskpLJ8vTT7fQ1sskeRH0A3oAnWWiytmGA9REHuuEIwzd/U9cZiAXkWXJ8rCRhkC4kCs1qE1HYxqtNcM0EbYhGNLudge1gCnf6hL6lxCCZeyKa3cZOgh0HkCdrHq1MAmxXOJgGmrGHrF67Trfd7o4JlE+fUaaZ60UOtAFubyUhu82skuyXzm472Ca7TTUSstuETnQzboL6tclqR7PbeLdvufkWue++++Tnl/5MHmrxkHTv0UsnH+L+KeQ+qy/LqQbctaZpez/X/vSZXx8NYb10j2W4bWlLWzbspQJ3Q4uPTn8kbzhopEQgtpKlyypkxYpVMnbMWLn+2uuk9SOt5dHWjwrl7jyExkE3oAkkAqJxMOu3jYPfaESz3wcPHXIw+pID3DeyXo+LyjLaRL72EVHYjoPuONgOZ7epuAJUA9B4nTWz7SIK27wHPAPRbOuBe/2GTerfZvbPNQ6ygXIAmyx3eLBk+YJFahNhYpscK4n3boesJJQDVP/25KkK234ad1+VZNjwYKIbstsMlrzv3vsUuH/a5CfS6uFWOrU7FhT6Le5+qs8xxYESYaq5gM5SB9yjXz4jo3e4aEBLfx9ZWFhYNNRomMD90UcKqfi4gchdu/bobINU/mDQJN5laj0P0hkFAxCNg25gmH2ASIAUiAXKPMACrHia8WfzdxwIJ8WaNWulxYMt5NlnOyjMergG9OfMmStdu3SVF1/cptuGQTp6HP96kMnObr9vp48waBP5YDs7u52puc3Azpde3il79jjQ3rM3K7utsO36y8O2z25jI1m6dJn6xFnn9STvNsBNFpuBkEC2WklCAyXDVpLJpdO1/N/06WUymVklHTSHp3FnZklfmYTsNjNIUuf74h9eLL/42c/14euZdu2la9fu6knH/x93P9Xn4D8SJpPJZDKZaqYGCdxEMNV7MOkNwE1tZsCYsoBA8pjRY+TB+x9QwAxDKREGVt4HEsl0471WKHWhAwM3blLwBC6xWPBeEhiHg/fnzp0nV195lTzb/lmFVr8P4DxxwkT5/oWNpeVDLdV+QT1x4HDggIHangxghyMbtInwNSWBdhi2gWwGQXI969dvdCC8xgHxWm0DfcDrZKaBah5aorCNrztqJaHEIBVGgHDCe7fDwB0tBTh5yjQH1LMVtJlwpzxkJZk1e65mtwHtsrKZaj/BRhJMchNkt31lEqZzx04SLgX44AMt5Lamt8lFjS+S7/z7t6XtE0+mstsnYu+j+h4G3CaTyWQy1VwNGripFkKWFjgE+pgEh0xm585d5ZIfXSw33XCj1uQGQsNwSoTBlfcpoxdkZqkhvUVBk9eBXZasA5v87aE7Kajq0bdPf2nzWBuFztmz52nbOC/H6da1uw7kmzG9zL12XEomlej6BAfiAHJloE2Er4U2+UiCbQY/Uhcb0Aa6/XWwP33IAEkAm7/JdDNAMgrbUSsJ9bWxkfAa1pE42I5mt5nOHQCmqsmCRUvUVsKASgZSAttTps7QAZLU4SYLThnAMGxjJSGzDWRThzs8WLJPvwHywP0PysU/+JFc/vPL5Cc/biLPPPOs/pLwwQcfxt5H9T0MuE0mk8lkqrkaLHAz+I2ZJ8lykxUGDrEhAJgAOJUxqMfd30GYh08gMwyqRBzMArnZ0BtUNQkqd+zT96OQ7YNtV6xYqdYG/MwAaKuHH5GmtzRVoFy6ZKn6ikcMH6HnB3R79+qtZQyHDB0ukx1gMgtlIaANrBcC27R7gwNjPO8ANdVUsJAQfgIgAFsh2/2dk9mOsZIA1FRC4TUsJR62c7LbIdhetnyl+4xmyrTpMxSo/QQ3lAAsnTZDM9nzyxdqtpu622TCJ2ElSc0q6a0kZLe9jSSc3X700cfkqiuulKeefFqa3X2PerkHDwpsRXH3UEMIA26TyWQymWquBg3ceLl9lhsvMjYQABPQJKh/3eWFLvqeh9A46Cbi4DYA7wC+WcdysmnTFoXvMIx72KYdlMwbj9VhxAg937Sp0+TGX94ggwYOEqaAHzhgkLR/pr2CLbA7aVKJ3HzjTXLt1dfIC66tlDFkv2hb4tpcKGwzoJFz0Q+BZ/uwZvS9bzs9m2SqBKCHbT9IMs5KQqac/uXvQutuL122XAc/krEuAaa14sgkKZlcKvMcZC9YsFC991oGkJrbDrbZlox4OLsdrbsdlAIcIC1aPCQdO3WWrt16yg2uz59p94y87B4IeDCLu4caQhhwm0wmk8lUczVY4CaAbp0IxwEm/mRAOAzcZHRnz54js+fMzQHSqoA3AXiTTX95xw4HpmS5szPgBJl1KqXce09znXaeTPfTTz8j3bp2U9Cd69rxSKvW8vhjj+uELB2e7aAVVagXXdS7SK+BtoXbEW0fEQbtfLANQGP1oFZ5pbAdM7lNnJUE4AawmVwH6004uw1sp2eVjFhJyG5TBpASgWxHCUf847xHlRIsJuma26VBRZKJJfGwPXT4SM1sh7PbTHTTs1cwjftjjz4ud991t9Zn53OJu3caShhwm0wmk8lUczV44PYVSw4dOpIF3T6AYADPQ3gUTuNglmUYtn2wPXWpAVDsHJkMeHYmnPcHDRosd9x+h5YnxDuNpYMJeZjdckH5ArU96MQxDlQfcwB+z933aNZ22rQyB8ivZLXJRyGg7WGbvvCzXB5xfZIftuNrbcfBNhltMuaLlyzVbDzXU9lASWCbetsAd7gqCXYSrbkdmeDGW0nC2W0GSnrgJgYPHZ6uu413u1dRX+nRs0i6dOmm2e2nnm6n/dgQK5OEw4DbZDKZTKaaq0EDtw+gGwDF0gFossQaAWwDnx5EfURBlWB/9iUrzn7+NUDXAzfrQZWPl/V9/3o02I7Bmt2795QFDi4pmff0U0/LgAED1ScNgHfs+LwMGTJUbRQPPvCgXHn5FdK58wtaOYQ2VgW0CfbxDxne0w4M472mVnkObL96QDPgVYVtAH7LlmCCG8oAMtgR8A6y3huyrCTLQ1aSrNkkUyUAtd62h+3w9O2xVpKxaSvJoMFDNdRK0n+gFPXpp9ntLl176FTzDECdUjpVq8LE3S8NKQy4TSaTyWSquQy4U8GU3ZQFDAYF7tc62NgkAFxAOgzcPsKwSrZ3w8bNCqSAGvt4YPegy2vAKduyXxxs8zolBoFram0PGzZcnnryKWn3dDt5tPVjOkByx45X3Hvd5OYbb5a+fftLlxe6yu233S4lkyZrJpprCJ83HL7N4aD9HrRpI0EZQzLRADWAHYZt79dOhG0XcfW2fXY7PKPkGgfYDHQkU4+9JDxQUjPbSwPYXrQ4mODGZ7YZKJmeTTIE25rdLil1sD3ZwfakVL3tsVpje+CgoWojwbsdVCYZrN5tsttYSSgJyGQ3nTp2cv14SH8BibtXGlIYcJtMJpPJVHMZcKeCLDfwCUwCxJscFHq7BJVAgNgwbIeD98joAqGs+0zxyZNB7WwmhuE4fhIcrCPAbzgLTQDc1AFv1bKVNLn4ErnUwV+LBx6UxYsWa9uYhp4MMVBNlRIgnIeDWTNnKXADjL16FTlYH6Qe50JBOwrbXA8VRABiyiRyjiwLSQJsJ2W342CbcoBktJnCnfPwOnYSbyUJZ7Y9bOvU7SnYpmLLTAfbYSsJAyl9CcBBQ4bpFO1kr/u7/gC6Ae0MbGdntzt06CjXXXud1jYn8/7ee+/F3icNLQy4TSaTyWSquQy4Q/HBBx8oXAOTZLbJ0gKfBw4cVAuFn5kyGlguAEq2jUKth1kP2GwfB9s+gNvRo8fIk22flPIFC2X8+AnyfKfnFWppG0DM/jOmz5CHHBwOdmBJCUEGTt5x2x0ybtwE9V4fTm0XbQ/h2+3bFoVtgoooTGKzbdt2PW8+2C7ESpIN2xsVqslm08e8z7moy62ebQfhS5ZWaGRqbWcy21lWkohve3zIRsLU7cNHjFLI9pltllHvdvceveXe5vfpzJ4TJkxSP33c/dEQw4DbZDKZTKaay4A7HB9/Iu+fel/hmmwywIiNAgClpB8wTHYZUPXQSrz2WjDpDVDqX4sD3XAAw/nAG4gnI062tWvXbjLKweMLnbsoUJMlX7RwkQ6oJNNN1rtXj55y/733qfeb8x8+HAB0uC2+bUlZ7WBg5CG1jwDWy1eslHXrNuj59u2remabPlHQ3vKiwnZQXWRNkDnngcZtC3x7GwmwDUwzSyQgXVYWzBhJfXFAmZKAUd829bfTsO1geeKkEhk9dpzOIulrbuPbHjZ8VBq2fRlAn93GTtK1aw/32kB3/QfNShIKA26TyWQymWouA+5Q+Kol2ECAZwATqARECQ+egKqH1gBuj6TB00NtOMKgnS88hBMMlOzXr78sdss+ffrLWAeRTHpDtpspy5dXrNAs+PDhwxWSRxePlttubarbbXJAO3v2XJ24B0uIb0c+0PawzQOG92qTjV69Zo2WMtQJbWJg2/u1o6BNANqU/2Mg5yZ3LPYnW8524UGS3kaycNESLXt4ycU/lp/95Kc62+d3v/OfOsU6y+eee14BO2uQpFpJgkGSOjDSPZiQ3SZGhQZKZmB7cLoMYK/eQXYb2O7Ro5d7WFlpVpJIGHCbTCaTyVRzGXDHhK/NDXST1aZChwdSgBsY9VYMD7HYLagrjZUjDNtxEQfb0cAy0trBJ7aS7j166gQ8R92+/rxki5944kl5/NHHtFZ4D7dN01tulebN7pG2T7SV9u2fVTif6eA8CbSjWW0P2mT4uZ5Xdu2SZRXLNcsNKAPvYdAGnH0We+PGoLY2PmwmtdH63W47Bo4C61u3BvW3o+X/yHh7z/awYSPkmquukf/49ncUsr/9b9/KitaPPCYTJ5bI9Chsl0zRAZJjxwVWkqAqSZDdHq5VSYZJn779NaPdb8Cg9EBJygCS3aYaTOnUafKWWUlywoDbZDKZTKaay4A7IT54/wOFZ5/x9UBKhpdMLbDq4RWQBSzxImNFiYPsqobPcAPxI0aMlPbtnlHo9e+TbR85cpQ8eP+DMmb0WJ0kB5tG+CHAw3kyaB9WO0zWgMhUZZa0t3rNWh2AyWBOaoFTSQTAJnifGSQBaiwwHB/rDVaY7dtf0m3YHtCOq7WtsL1ilU6jD9gP6D9QvegXXdhYGn+vsXz/wovkB42/n85yt279uA6IDA+SZJbJSZOmqGVkxMjRqaokDrZHOdgeMUrtI72pQtKth/Ts1UeKUuDtrSTduvV0+42SQ4cPm5UkJgy4TSaTyWSquQy4EwL4wloC2AKRHrzJcAOYvE5mGHAFNFmS/cWrzLqH3jBEVzeA1rlz5+s5w6/jp37ppR1Z5/ORD7SBY/WkA9kO4slE+0w11UmAbTL7bM8xeI2BmDxscP179uzTbDdZboA7OkAyqLWdXf5PYXtdZhbJlSuDSW2A7aUOthkgyfTsfRwcP9HmCZ3Yp2vX7grLN91wk0J327ZPa7m/aL1tIJySf0OHjVDIHjZ8pK4Hs0f20Yx2j569U1nujJUE4GbwJN7zhjx9e74w4DaZTCaTqeYy4M4TWEveeustrVICoGoceC0FnXt1JkKywcHEMIc0801GeteuINPsIwrDYWiubkSPGT5fFLLVm+3arW13IA1gk4EGkvmb9rOfWmbc+5rF37NHl/i1qSDCAEpgGhgPD44sFLbDk9oA2xXAdkUA24uXVKQntaEiia9GwpT6s2bPkccfayM//P4P5Nlnn9Ma2+GZJIFtqpKQ4QbQe/Xuo5DdrWsPzWQD3qwD7gB32EpC2UDa8u675ttOCgNuk8lkMplqLgPuSkL93MeCGSLJCKfB2wUZ5qBqxz4FUeBzy4vbNCMNxKptwwXLdKQg2EMx06Z7UI5CdL7w+xDpY4UgO5PJPqAZeQ/GPCBQwQRoV8B2Dw9afcSHXg/AnRkcyb4LFy2WZcsq9O9wVjsXtl9M20gA7QC2s/3amdJ/QWZ74eJguvasOttz5mmt7bKZs+WhFi3lBxd9X154oWvutO0TJsrY8RPUSoI/m6nZgWumbieA6mwrSR/NbpPlnu/OdeLkSbOS5AkDbpPJZDKZai4D7gKCWSgpFwd0A6hh8PY1ugP4flX/3u0AnCwvmWAPpwS1rbFhkFUGfLVqRwrksasAyQrLh7Mh3QN6FK7DgO3DgzaWEM4FDAPcr7/+hsI9baaNOjDSXUsauGNAOzxAkkw1gAooA9cc14eHbQZKAtsZv3YKtslqhwZH+kltFvlJbVK1tjOZ7Qxs49e++85m8uMfXqx+6zBsk90em566PTVIckRQkYTJbZjYpkevIunTlxKA2EuKNLsNhE+fUablF+M+b4tMGHCbTCaTyVRzGXAXGAyiPHLkiAIpgBoFb4VvB7rEKw5Y167f4ID7lQDE2T4F1gy+9AANHLM9r3vgxY7iIdcH4Ms2Hr7DcB0OtY6447EPEEwbyaj7qiMcwz80JIE2DwIetNPtSFlIsJZg8Vi4cLH6scli6wDKyiwkq7xf24F2KrMNbAPaaiNJyGxT+q/EAfaNN9wkV1x2uRQ5UE5nth1ojx03IQu2w/W2Kf2nmW0H2kxwA2ST2Qa4J5ZM1ocXy2xXHgbcJpPJZDLVXAbcBUYwiPKkZo4ZMMgMjKscSAK2WEqy4fuAWkyYvpysN5VAAG2CyiAaKUBmCSTjr9ZIHSMNx4CyC7LhLDNwfTh9TB8K+65ttMlDug8P2grZEdD2sM0+HrbTwB/xa2umu3yhluZb4MCbzDWAHVhINmWy2g62mcwmMzgyyGpjIckH235SG1/6j8oj1159rdx0w43Sv//ATGbbwXa6IkkEtpnKnUGSvfv00wGTeLfJcvd0rxWPHqN9iVUo7nO2yA4DbpPJZDKZai4D7iqEh26y0NRtvu/e+6TYwd6q1WsUTsOZbEAb8KUmNYAHDPsIA3hlwfYcExDW8nu87vYPH4/wsL5j5y61dQDJPAhkZbOrAdpxVUjIalPejxrhgDE2E0A8O6uNhWSVTibj/dqLQxaSHNiePVdmhmaQxEpSOnWGwvIVl10hd991twwePNTB9qQcG0kYtgcOHBLAdlFftZQA3/2wlrjXRhWP1ms22C48DLhNJpPJZKq5DLirGMFMlCd1cOCkkikyzwEjsxvOnDVby+cpyDqoBW4BczK/2C+A30wGPIgoNMcF2XLgl2MD3uEsOBHOYvtMNtl36mcDxtTEpj1RyPbWEQ/aYdgmO58E2t6n7e0jZLsVuDdsUtD2s0b6gZHprLYDbQZHLlgYwPa8+QsVtH1mOwzbflIbBkh26vi8/LTJT6XVw48oWOeDbSa4waeNlQTQpkIJ0M1rlArcudPK/1U1DLhNJpPJZKq5DLirET7TDYBOm1bmYHKJThk+clSxgikwC9QCt2ScyfyS6SZDHQVkIgzQ0eB9ABjQje7nbSLhAPQB7JccLAPAZKKBac6dD7Q5R1VA21cfCWwlq9VOkh4YGapCEh4Y6bPaPKQA2jo4MmQjicI2AyQfffRx+fmlP9OSgMVjxiXCNtG330D1ajPZja/DTWUSIB0bkMF21cOA22QymUymmsuAuxoBcGNLYGIc6lkDjouXLJVOnZ6X0aPHan1uQBaoBXCBWKwWGzZu1vW0vcMFE89EoTkar7wSlObDphJ+PXwcjVQmW20i7vwAM2UKfVvCoJ2UzY4r8xcdEMngSWw0zA5Jfe5wub/MwMjAq019bbLaVCHxsM0kPn5w5MyZsxNhmwGSjz/+hLRp84QD6mEK26Nc/0Zhm4okms12wM2SyWyAbWwlY90+9MmHH5qNpDphwG0ymUwmU81lwF2D8PYSBjOSAR43brw82vpRhVRA1kMtgAvEAqQbgW4HvUAxWWdv81DbR0KEs9N+nb85jkI0QO2CdYLzeXBme18i0AN2IZC9adMWtYmQISfIZvtp2ZmOfYl7wAC6WY9WIFmyNN6rPXdeeZZfm0okWbCdmj0yXPpPK5G4fi12oB2F7aHDRqaBG683FUj8bJLA94SJk/QhxGC7+mHAbTKZTCZTzWXAXYMg00289+57CrzUqe7Ro5fMnj1P7RwALAMPFXLdklko8TSTLQZ+PSiHs88K0qHwoO3/BqY5FpCsgJwKgJnXAGmAnFrcWE48ZHvAjofswDayiSx2quIIcM2gR6whwDR/U5WF1ykDSLZ++crV+r63j6Sz2imvNqAdHhjp62v7rDYDLhkcmZXVLinV2SQzwD1RLSSDhwxTyAa2qbWdiVFavaS763cy2lhI8G9PnT5DDh85og9FcZ+dRWFhwG0ymUwmU81lwF0b8fEn8v6p92Xbtm0yevQYKSmZIiNHjpY5c+Y7QN2oYAvQEtTnXrx0mWzWSiJBtplBkT4DXWn47UP7pC0i7jVfWSQJsLduTUG2C22Tg2e82WSwly93cF2xXAd5si1tJIPtB0J620hWRjtU6k/tI9EKJKGsdj4LCfW2J00u1aWPia4fx00ocZA9WgY54AauGaA6wsXIUWMEAMc7z+ySXbv10NkjyXhzvqNvvKEPQ7Gfl0XBYcBtMplMJlPNZcBdi8GMlHi6J04s0extv34DZOzYCep1XrGCGRZXqAea2tQrV65SCPZQnI6Xg6nT80ZoewVjHdD4ogK0QnUksgH7Rd0eX7YfBBkMflykVhBfbUTL+1FL2/0draftM9qLl6SqjzjQXhgZFDl3fgq0U1ltBkZiIdH62tPL0rBdMiWwkEyeUipTSllOlQmTJquVhMw2MWTYCBk+slgHTY4qHqNWEkCb/gWyyW736t1HYRt/+cl33jHYrqUw4DaZTCaTqeYy4K7leP+DD9QmMqNspkJk167dZMCAQTpQkIoeq9esVcgFeAFfQJiscxwoEz47HQ7/HjaPqVOnyYQJk2ScA9SSyVMc3M5x0LtAFjkAZkAjAA1Ye7gmGPxIkH0neBCY7wCZgZ/AtQdtHQxJRttBtgdtX+YPwKa03+w582XmrLnqz6ZEoPdqz05ltbXcXySrTX1thW0H2hMmTlYLCVluBe1I2T+820xww9+ANqX/glkki9S+g2+bOtuj3fZk5t955121kRhw104YcJtMJpPJVHMZcJ+F+Oijj3Xq9XIHviUlk+XZZztIx+c6yjwHpEA3MAvwAsEK3uFwEO7tJ/mC7bCv3H/f/fJk2yfliTZPSKuHW0nbJ9pKt67dZYCD0DEOVOc5+CXDTum+YABkANk6EHLterWMLHMQDaiXu/aFrSNANjDO+4D2osVLFarZdpoDZ+qQe491yeRSmTNnXgDbc2LsI6GsdrgKyRidMXK8+rXHuQeHaNk/bCRANuErkVBnm6DG9tDhI7UG+qv791vZv7MQBtwmk8lkMtVcBtxnMd577z2F44EDB0u7p55ROwUgW75gkS6pz+2zzT77XJUgkz1lylQF6jkOcvv3G6CDC31FkSVLlinkAsNkmslKk6Vek7KL6EQ1q9ZoWxSMp89QW4lmslPZ7MVLK7SkHwDNschIk3EGlLGDkL1m4OOo4rFaZQQbibePxHu1w4MiJ8t4B9pkscnQE2HYHjBgsM4Q2e7pZ6Rr1x46VXv37r2kc+eubr27+rm59rfeeiu2/y1qHgbcJpPJZDLVXAbcZznIur755ptaro/JYbSs3srV6n1mwCGZZ3zHmnF2AL5qDVaO1QrN+L0rC7LQ06bPFGZSfKZde+nZo5daTTgW5/L2EDLrwC5QTDUVYDqdyXaB73pK6XTNRAPnVBQhpjtoJpMNZBN4rHk9XOaP9Ykp3zXwDWzHZbWDgZEu3PEIoJsl4D1mLLCdKfuHTaRDh+ek9SOPyp233ylPPvm0PP/8C/Lccx3lmWfau+3H6cyR+Obj+t2idsKA22QymUymmsuA+ysIXzpw7759WoIPrzEQjFWDwYqLlzj4Xlrh/l6ShtjFDsiBYYAZcK4svN9aBzmmMtc62JHXUzYR4BxvOUA7fsIkhWyfzeb8c+dhgSlVWwdWESCYAKbJZPN+usSfgnbKOoJP24E5xwWi8XQD2qUEfm0H8grcLlgGfwf+bTzbDIbMWEiCGttt2z6pVplOnToraLN8pt0z0qtnL83mHz161HzaX0EYcJtMJpPJVHMZcH+Fgbf7xImTqWz3RoVhBiQuXLhYwXVG2WwdiFjhABi7CGBLJhzwTkO0B2qNNQrK7FumlpAymeXgl9fYx0fgxc4MfJw+Y5Z069ZTior6aHYa4Mef7auNkA33FUd8eb90NtsFlUdmcs6QdYQA4qnQQsadtgQZ7iDLXTp1upb9A7LHhQZG6mQ2o8aoFSZdR7v/IGnx4EPSuvWj8vTT7fT1YSNGyYQJE2XHjh3ywQcfxPavRe2HAbfJZDKZTDWXAfc5CGwQBw8e0lkdgwz0Ks1Oa/B3yuoBAGsFEAe8QDHA7LPVGm4bMtaUyGPyl969+0iRCzLSgDXwTPYZWF66rCJdYYTs+cABg+SB+x7QfYBqsusK2ekp2IOKI76OdhS0PWRrpKAbwMYiMt0tsaKQyfYT2ADjHrSxpgDb1NMeMnS4TsWON7tFCwfZj7SWjh2flzZt2kqXLt3VZsKxebg4bl7trzwMuE0mk8lkqrkMuM9RYIdgWnhKCALelAvUiiAVy1MRzODIoEWgF8ilygngHbzntnEATSYc0MUzrYMXRxXLUAexADKT7zzfuYvC+Fi1iUyQ8UCvg9hODmqvvPxKafnQw5qlDkN22Jvt62iHM9o+AG3/N1lzMtiANRP/MDAyDNo6RXuoAgm2EWpnt2vXXp568ml54YWu8lCLltLm8Sd0QOSIEaNktjsnffP222+bfeQchQG3yWQymUw1lwH3OQ5qRgPe+LupaIJVhGy0ZqKXpJYugGHAFgimNB8WEN4neA24BqzJdhcV9VWAbfXwI/JIq9Zar1o90M+0lyfbPiUPt3xYbr/tdrnpxpvlefc6xw1nshW0Hez6IEtOsB2l/jxka1Z72gzNZAPYwaDKUiktnZaV0aaaCOX9GNhJVpvAJvLYY49rWUMgm/b17t1XgZzygsyASfURm5r93IYBt8lkMplMNZcB93kSgOU777wj+/cfkK1bt2npPmZzxMPtZ3Msx+vtYHT69JkOgGdrNhrbiL63YJGD3amaNcb3/LiDWQYdDho0JIBoF0ws44Gcknvjxk9KQ7yH6yhsEzNnO9hOAXcash1UMwjS19MeP6FEhg4boXANZDMdO5DNZDXUz+4/YJBaR8hsMziyZ8/eWoUEK8mQIcM1G07NcB46sI4YaJ8fYcBtMplMJlPNZcB9ngXWiVOnTsnBQ4d16nbK+1FFhIw2PmtfyUTL7ZVO1UGSeK99YA0pd0EWPJhiPYjwdOtAdRisy2bOktJp0/WY6skum53OarOOXYVqI0C2ZrO1tF+pTEzX0y7RbPagwUMV5BkAOWDgEAVsXmPAI5ANjPtKJAA5FVAYTLlw4SK91hMnTph15DwLA26TyWQymWouA+7zLABOHx98+KEcfeMNeWXXLtny4ovq82bgI9ANUJPRZoAkmW8/2JHXmTESb3cauB2gkz2eO2++AjcDGoFrbw3B+81xyFIHtbGp1z09p6SfZrPTkD05ZzAkk98A0gQ+7XQ40Pawje0EyKYSChP+7D/wmj5gxPWFxbkPA27T2dbxDSVS1OJ6afyNr8nXvuai0TelSbMiqTie2sBkMpnqgQy460AA38xaefjIEdmx8xUtKbh8xUq1lVAVJLB9zE1bR4DqsB+bwYc+mz17znyFaKA5yGYHQV1sKoIE2ediB89jdJ3p1rOz2QGYRwdDAtlYR8hoDxk6QoYMCwLfNtsA+DwErF69Rna+skvetmx2nQgD7rBOSUXny+UCB4WN/qWpDN5+JvW6qVo6tU0G33iBg+wL5Pq2beTyRing9tGopZSfTG1rMplMdVwG3HUoAFS8zcD3kSOvK3wDsAvIbs9fqEDN9OwMWmRGSTLJgO7U1BJrCNPLE2S1/ZJa2UD2c891krZPPKkzVlKar337Z6VLl25paA4gOxu0R48JAkAfhJVkwCD1cvM+5weyeUDYvWevvP32CfNm17Ew4M7o4MjLDQhrS6fXS5cL6cdvS/s1wYNLTv+6aLnAHmpMJlP9kAF3HQ9qeh89+obs3btPtmx5UVasXKl2jbJZs3Uq95LJwfTp2EKAbiBYp1rHj53yZJO5ph52hw4d5Ykn2upgS0r1Ma36Y48+Lt2795ThDsg9aPsAwJmuHXCfNRsv+UI9P+1gcp8jr79uU6/X8Tifgfv45OtzAC1/XC8lR1M7V1kHpfjS3GO2WWJAWHUdlJI7GgV92KxMTqVeFdkmRQrhPhpJly2pt0wmk6mOy4C7nkTa9/3BB1q3+sCBA+r73rhps2aYg+nk12jtbmp54/UOSgGWq/WkbOYczYoD59TA7t9vgAwfPlIhG383UD1n7jyZN79cli6tkJWrVsm69Rtk67bt8oqD61f375c33njTZoGsZ3E+A/eZo+ulZGAbaX4htoQwqGVHo3+5XFp2GCwlC7bJ8WrzsYPBb+Ueu8uG1NumghV+ULp+csSofXK9FKnNpJE0eaxczMZtMpnqiwy463F4jzTL06dPy7vvvqsl98iIHzjwmuzd96pmxve4AJpfenlHTuzavUf2ue32O4B/7bWDcuTIETl58h09XvQ8FvUv6oql5NTOYmka9QA7aGs64WBqi5prW9/G2cf/VhdZbwnuKir84GIZbJPJ1HBkwG0RC8wG0RZEXfJwHxzZJBuIv9ZGKmoViDODJi+4rI2UHUq9/JXouJTcGL42B/upd+qUNnSRRulrqInFx2Sqoty9l/n3E/Prisl0lmXAbWFhkRh1CbhzPd11FEpjVT+Ae1vfb4euoX09+nxM570MuE3nWAbcFhYWiWHAfb6oPgD3KSlvUdevwVRnZcBtOscy4LawsEgMA+7zRfUBuOuJLcZUN2XAbTrHMuC2sLBIDAPu80UG3CZTjWTAbTrHMuC2sLBIDAPu80UG3CZTjWTAbTrHMuC2sLBIjIYO3Os7h48XiUZdZFtqu7w6dVDKx7SR5pd8M1Oho9E3pcmNLaVocoXsPnkwANHI8fKeOyluLHFYW0s6c1zWTx4sbZo1kcbfCJ3jG42lSbM2Mnjy+krqmq+XLuG2FRi1Vdtc67T3ainXx/Z7ZW0PyfXDtpnF8f1waXNpM6ZcDmZm74lXBPay4o6yrM/s1P5yGdziemnyL6nJgb7WSL55SXPpQpu/SG1URZ3aUy7FbZtLk3DN+tTnWLxgt5yqynH9/XxpY63Yk2nj9dKyV4msP5qnYwvthy9OuT7vkv43Qy39NnOrWOLzaIlcHz1HAdFlQ2H3bdx9mvvfoHBcLi2vjHs9iKbTMneB3rud3eeVvgcukMb+vq3mPSDHY/49cNzUPby7KrPmVvO/aQ1dBtwWFhaJ0dCBG1BJnlyn8uMfnNlGmqTqgwcT8BRJUa8ihbdv5tQNzz7euQNuBzsDm4ba52DqqpbS3rW7qFd7aXlV+Eu2ibSZ7IAttWe2zhFwn9otJY81ybTRgWXztkG/t29xeea6XNvbL8lHyqdk95jm6e2zP78wbAbH6rImz7FO7pbyyUXS8rKY+8h/Zl8clLJWkVrvkWh0ibtHTusRC9PxitREQqn9k67hG82leE9lTyBBf2T2SehXd780eaxMDsaBYQH9cGZPsTQPP9iko7EUbQ8OU5CqDdynZL2DyaZp2M2OCy50gNprsFTElLQMQDn8bycV37jePTCtlJfXlUlxr/hja8adeyB878ZFo8vz32tRfXFcyjtkjpl8H18g1w/clvBvOaOa/DetocuA28LCIjHMUuJ1Rrb1vbxKxz8+rWnqS66RNB252x0hIsAwC7DyHS8Kr2fpi+z0bin20667aHRJeymPI/hDZdIyNA37Bc2KZXelIPgVWEpcuzKwFvR7DkAcCoNYYwdYcaDpwKdZBgqbx9kP3HGyJ1u6XIr3p95L1BlZ3yFcGtEFoHnafb6X0O9BNruNA5iiBDBr1LYi916K0ZkNXdJgxHW2X5B7DWfWtJdv+2M3aiolibXlw/3RSC7vGwNmp7ZJ0VWhe+eOErdXkuL7Ybdrc2P64NYiKdt+UMrbht530ahb9fOl0f8+VG4pcQ+e7t98Nvy2l4pCMsynKqR9aoKnRnfE/Nv4YrcMvix8XNeegSV6DzRyn//gmdvk4KlTcurUcdcnZTL4viiEu3t7cgEZ//R9xT6NpeXMmH0i/5Ybd16feH/V7n/TGp4MuC0sLBLDgDukMxXSptDju23be9hpVpYna3RQStKAm68u9VcB3OG2uLjQnSMfREeAMz9gobMM3CfLpWWoPYngcLxMmqbb4OKy4px2HxyT/XAV/rk/rCxgddGoXQEwvL9YmoT2+dqlTaW5g6ILbiySipzTnJHdIz3k+CgA7LcXOXD12+eBsy3hiYiS2u/guHMGovIBWTSr3NgBcuK20X74VmNp/I3wrw7R+8WFO3d1VXXgRgelOAuMG0n75ZV+wk7u39J1bvtGbaQi4d/QmSVtQscNjh37IJPSqTU8jIS3/7a0X5OvLeF/z/kBnYezzH3sto2732v9v2kNT3UGuN9//30pKiqS5557LjFeeOEFmT9/fnr7RYsWxW5HcKxXX31Vtz18+LB07NgxdrtBgwbJ8ePH5aOPPpJdu3Ylbkd0795dysvLs9ptUX+De4LPe82aNXq/xW1T18OAO6zCgfHU3JaZ7SqDhDQo5pt58ewDd/bU9d9OyPxmK9rnl4/Mh9xnE7iPS1n4YeFbRYne0VzQaSplWXzBscLvu0j8DMNT1RMFAEaM1QGITQaYU1LWLHv7pAcA1Zlt0iWUscwHRzmzs8Z4bumvNJR/y31meW+LM1KRlZVuLmVJ3uCcfoj+2nBKyluFPlMXzWcm91Jlqh5wu1bMbJ61X37YTMk9TFzutv12rzwZ+Yif/dsd8jzIpHRwcuThKw/QHxwZemis1GrmHiwuDR035t9P7f83reGpzgD3qVOn5KmnnpLrrrtOLrgg2//1a7/2a/Kzn/1M7r//fiktLU1vX1ZWJtdee638wR/8Qda23/72t+Wxxx6T3bt36xTm+/fvl7vvvlsuueQSfZ/tfvM3f1N+8IMfyDPPPCNvvvmmwtX27dulWbNm8vOf/1z++I//WLf7H//jf8jv/u7vyg9/+EM9/9SpU3PablE/Y8uWLfKTn/xE77GDBw/Wy+nwDbjDKhwYs0CmgC/obb34ef0cAvfJMmkePn5M1jdW0ax/o/Z5ptM/e8B9Znn7LBBpkgf8c++T3H5f3zkb9JKtDNFrKgAwoqCZ5+HAKwt2iDzAE83Ot1mSjHG54wSin4l7oAjB+7f7VtZS1yPTmoaOlwdso/0QB4UnK6SL+r0byTfvKyvsnkxQdYE7K7OrkechIqXg338lv0REgLt6GXf3kDsmplciv/a0nFv5g8q2buF7vlHOWIra/29aw1OdAW5g5o033pAXX3xRBgwYIL//+7+f/vB/7/d+T2bPni2vvfaavPPOO+nt3333Xdm4caM88MADCsZsCxw/+uijCkinT5/WbT/88EOFbmD5j/7oj+TXf/3X5eKLL9YMOdlvD1IffPCBHDhwQJYsWSI333yzHu8P//AP5cEHH9Rt9+3blz6/Rf0OHsC4j377t39bfuM3fkMf7upjltuAO6zCgTG7LY0rGZzn5L58G51D4I5CWj5gzVZ09sh8WcizBdzRDPC38w6uy4HXuIeEQ+XSxnuqbx0s2xKtNbUA3JVmH50icFZ4xr2llOe59bKn2ncRfdDS+zLzfvs1qdfzKdrWJM95dfqhBqo2cDsF8JjZNxZy00p9BpVBabWA292/0Yx7zANb9rW6ezLRm59RtH+i/w2o/f+mNTzVSQ/3W2+9lQZe4utf/7pMmzYtdltget26dfJ3f/d3ui1wdOONN8p7772XtR0wDTQD73/9138tEydOzHo/HIcOHZLHH39cwfwXv/iFWk3itrOov8GvI//8z/8s//N//k+9r/jlA+tR3LZ1OQy4w6oCMEZAJQC3Iinfc6rSn43jdTaBO3pdBYJVSjm2hMRBfWcJuE+VS8vw+Su1dZyS9b1SlSSoslLVcnNZOs+Ae3tRlqf8a9dV4qs/vVtK2l4eVKr4xvUyeHv2J5cN5IWBW443O+n66hBwe4tIev98liX9taUAr3c1gTt70C/RJJJJjz4EF+ajzrFaRe+xWv9vWsNTnQRuIBrvLNlFPnhsIDfccENihvHtt99Wf/f/9//9f5rpBqgXLlyYtc2RI0ekZcuW8ju/8zvSvHlz3Sf8vg+y3VgJLrroIvmLv/gLGTZsWOx2FvU7+vTpI3/5l3+pD13cU3/+538uL7/8sma+47avq2HAHVZVgDEyADEcWk6tuIpfVGcTuNdL+6xjR7/A8ysnY3xpkh3lLAF3FEYLsGjUhk7tqZCSztdnlwc8x8Cd82+gRXn+LGte5T6IVSvqA3Dn/IqSBNSp7Qq5B6sL3Dn/LYjahnLfr1bk3GO1/d+0hqc6CdzEsWPH5PLLg59BAZ4//dM/lZUrV8ZuCwRt3bpV/vEf/1G3x5992223pbPcZLcXL16sAPUv//IvsmrVqpxj+Dh58qSMGjVKrSlNmjRRi0ncdhb1N7A2/ehHP5JrrrlGLrzwwjR0Dx8+POeXk7oeBtxhVREYT7kvvvDgtbj4xuXSZkwhk1mcReCOgk9VfwaOwmBi284OcEc9w2cP3M4EkN2rpVyupQcbaQm/67M8tecWuLN9uMnbFaZt0iXLu1zNqBfAnTtOINYykrqmgo5dbeCODHCM7hutwlPdiLt3avW/aQ1PdRa4gWQGSP7v//2/9UP+P//n/8g999yTmGEkY92lS5d0lpuBlwsWLNCMNdntFi1aqJ2EwZRk0OOOQWAluP7666VRo0Z6vPqW0bSoPEpKSvTznzBhgvTr10/HE3BP/fSnP5WjR4/G7lNXw4A7rGoA4xfHpaJXNAsaE5VOPGLAnaScz72Wwc3P0uhnmbzgspZBneSUrzt74OG5Be6cQZA1Au7oPVfF+6Iy1THgTnuz08fIHRSpYyHyDhwOqdrAnfvLQ9a+Of+ea/m/g7X237SGpzoL3IAyXmoyjHy4gDQQTSWRuO0B423btsm//du/6fY+yw2Ik93+q7/6K/mP//gP2bx5c+z+BJYVBmf+v//3/+S//uu/5KWXXtLXOTYDNJOCrKeHeNrNw0LcdkR0W84Ztx3BcQo5JkHVFv9wwGBR1uO288H7flBpUlR2zqTg+mizPw7tqqw9RPgaCg3ORZ/GHY+gf8NtqSw4FpVyqHSDd3/v3r3y93//93r/YUdasWJFpf1Wl8KAO6waAKNOk94lYcZKH42ly5akL6g6BNyJ0zl/RcBdmW+5QJ3aWZIaOBkct9ElbaRkZ65B47wG7g416eFohjv/YNQqq84BdwqoQ8fIKvuXqmaStxRgWGcLuHMy3PkHzlZbNf5vWsNTnQVuAgAbOnSowg4f7m/91m9pGb+4bYkTJ05o/W22JyP5N3/zN5qtpIoJpQM7deqUF5YA/EceeUT+7//9vzpo0oPxzp071f/NcQjKAxJ+vX379mmbClaYyZMnp9/z2/u/n3zySc28s+3rr78uY8aMid2O8wP/bIfNZfr06VnbRdswZMgQrbjC9jt27JBevXrlbO/XCSqvtG7dWp5//nmZNGmSZvajfcP56Y98x4kLfpkIDzDE+9y1a9f0+0nH4VcIKoPwOY0ePVo2bNhQaVWYKVOm6D7+GNFjd+vWTX/hiNs3LpYvX65jAChR6euz33XXXToYl3uQ17nP4vati9EggTs1QCq31nEtAePpg+6LKmF668RyfGcRuKOl/b7WyH1Jpt4rQDke7jvKEsDp7AB3DozWwnGj9Y4bt6tI8EJHa3afW+DO+TdQI4jNBbuqDKatVHUQuHPKZ4ay2UH1kEJmG02p2sAd/W9B9HOJ+WWikMGuNVG1/pvW8FSngZvMJBnGf/3Xf9UPlooRZLAp8Re3PXAE3JHJZnsAncGPeLepuZ2v2gj7MsEJ2UyqU6xevTr9HufDXoKlhfc5tveV81rfvn21nCHbklFnwCdgdtlll2mm3beFbD1w7o8NnI8fPz6dxWdwKOemIgbnI5vKdmRqKVXYrl07ueKKK9Qaw/Z4i8nEA5yAJ8dje8oX4kMHYH3Gn+ABhGMDtDy48Pf3vvc93Qao5EGAhxyOQXB+2nHrrbfqoEGOwXXTRl677777NO644w6tV03tch52gHk+N38cJiAaMWKEwjvn8rXQ/+zP/kyaNm0qHTp00DbxMOLrpX/rW9/SeuhMOETf+mx/NBgcy4BZqtrwoOSv9bvf/a6ej/NSZz1u32hwD9Bn3C8VFRXpBy4ednytd8YJcD9UJWt+PkfDA25m1QsqM0Tr0OYCSM3B7vjyLnJ5VhYx6cvxLAJ3DFgVUrfXK1qlJLlW81kC7kqrNlRR0YoUF+YbABe9pnML3LKmffZ2X2tTmL0hQVFPeOHlIgtQXQRu99+HinbZfRKUwUzVx67KNVQXuHOq8lQ+cVO+Wuy1rcL/m9bwVKeBmwA2meER0OPDZTAjvtok4CH7SB1vvN/sA9wBgryWD5KAVbLCwCzQFx4cx360g4GZZLppB7B71VVXaWaYLKy3QrAtoMbxyPT+0z/9k27/t3/7t9pusq0+k8y2e/bs0UwsQE4JQsCZY3Id4Ywzf1MukfKIjRsHM8aRie3Ro4ceM1zBhbbQfgZ8AuP/63/9L90eKMV2w7VwrFdeeUV/EfjmN7+pDwZXX3111sBUzsm18SBC2ziG/5UBuw1gT/ALAHAO+P7DP/yDQrS34xBcJyDPLwhk1T28/vKXv9RfBsjg0ybAmGPNmzdPnnjiCX1AwN6DxYOSjmzjj+mDNtJXfDZAur9PBg4cqLXYOW++zz0c9AeDahks6X8tIPBtc2we+OhLPqOkijl1LRoccIdgq9rAnQKJQmfFi04PnntedDaBO/en8kYFe3+jX+75bAdnCbhzvLWV1UnOr2ht6vyQeZ4Bdw6MFToVebxyBgrWZrayTgK3U7T0In2Seq1KM2FWF7jdfpUN3sz59xw7ZX8VdFb+m9bwVOeBG3gE3vBg88ECPGStqSSRb/vvfOc7uj0ABgQmZcV9sA+zSQJ5M2bMiN0GiwGAynHx82JdyAdz1Adngh22xxMMSIbfBxYBSaqhkM0li52UyfWBzQIw5rrI/GNfidvOB0COHYLtyfhGyyGSfb799tv1/a9//ev60BGFSeCTjDbXQRa5uLg49rqxyLRq1UpuuukmWbt2bc77BBaPP/mTP9HzsW3S58IkR7SdbDMPTZdeeqnCuc86R4PPnV8xOC7tpF/9Q1AhwfXwYMdER1xfFO55UOBhg+NzffWlJnfDAu7w9OBxWZkCgdFDT97MaFhhmE4C1rML3Dk/lRdaWq9KM1SeLeAW2T0wPC29i0qnIA/JPWQ1f6xEditL5GYH89sootdUjandaxO4HXpFp0OvCsieWdJemvaqyFSYyJllsbAp/73OrOki13coj69YUVeB22ez08f6tjS+0PV5oYMlvaoJ3NmT8CQ8UEV/pSnkQTCkgxOaS/MxuzMgf1b+m9bwVOeBmyAD2rZt2/TNBfSNHTs2dlsCqOzdu7duCyCRCcabG7ctQRZ33LhxCltkrZMsCGSFsY9wXDLtWCfyAff69evlxz/+sW7PAwBWE/8eMLhp0ya1Y5A9BsYrg22iqsDds2fPNHADjVH/MQCLVYWMPe0EggHn8DaFAjfBNbZp0yaxhGOhwE2QEefXBvoa6OaXAB4Q4ralPTUBbq75+9//vvYpD1/RfbGYkG3n+Pxiwi8FVTn++Rp1G7gLm/DBCy9yJnMU9wVVKDBmvmyun1BIPjD05ZT4pR0F7hraJmJ0cGQ4K9aoIFtJ9j6VDZA6e8AdncqaaOygtFL+Oe36lTJn33L3ilYdibaxss9wtwzOKtFWwDWdVeB22l4kjcPbus+y6eQC7sNDJdKUPnTtCW+d8+/qQneNiTNvhuSP16iNVMRtf46BO3mCpsqVM9uji4IHS3pFP9MCpkuP3ueNEsdLZKxxmW0LG0x8xrVL75+sh+ez8d+0hqd6AdxkgoFXgJgPGLvIz372s1iLAYGNgGnc/Y3IBDpMdpNkA8BvzOyU+JTzTXRTm8CNnxzgJAPOrJdh73S+qG3gpv2dO3dOTzIE1JJdDm9TGXDzwMI2LMn88iCRNFCxKsBNMKW6r6+OZ54Hk7gsd02Bm8G1ADVlI+MeuLg2anP7MpXcB2HbUV2Nug3cVfAOejhI7xs3sj9a/7Zy4C5oCuRQNqpxov/5oJRc548ZxLfb1mRSkzhFJrZIQ2iCIt7pygG30P6rnqjHnfVTO6A5cndym05WSHuqkDRqkpW1rXS6c6/Tu6W4WXSQWAH3XG0Ad97qI2dkW7dIxr+S+/DMnmJpTtnDbzSXspz250540uiqItmW7+ajb7Ves3sIS8qIf8XAnetvv14GV7dsXc5A4yoMlvSKfqaVPhhFPgc+q3xZa/8wGTpH41ZlcjBPfWzug+AhqWnkPj4b/01reKoXwE0AcnfeeacCFdGoUSOZO3du7LZ4bu+99970TchAPqAtLstNVnn+/PkKcwzWi8JmOGoDuNkeyGTwJBaWQYMGVcmeUNvADZTSFjLIbBNXhSMK3AzIDF/30qVL9UGF6ijh/eKiqsBN5pnPxVee4eEgzk5UE+DmQYza6/jY8d0D3PyqEg286/7BhGx4fajJXXeA230ZRTKTRON2CT9ne31xRg5uKJaWOZM5xMBg1D7xtW9L+zVxX9jhLyeikVzerUKOx216apsUXRV8iTa6arBsy/P9nwOC7PMvl0vLDkVS1MtFh5Zy/aWNpagmfkkgMvylfmF7KY+hoFM7U4Cm2zWSJt3WF5CdK7T/qisHmn0vj0B3qG72qVOauDi4vVxKOvup3S+Xosh05rk/x/PZtJeSDcGYj1OHtkn5mDY6+Q3VS9ZnZfnJJBan7CnxIoOY5QEuANJzMqqVPQy5fw/lraLQzVTcXaRk+W45rn1xXHZvKJPBLVJTu1/oHjKT2nE6c5+mo9E3pWnnEinf4I8X6dvKIL8a/VAj5fjbiQukcbM2wb8fF22aNZEm9yVljcOKDJ4sJDsdVQ5wE42l5eSQlcPr1G4pCX+e+T6rsA65a47+t+0b7r8ZA8ukYnvqfo7eBw62c+tnn53/pjU01RvgJqtJPW1Alw+aiXAYdBfNWrNOtQ2y1QQeYLbHc032NpodJRNLVpPsJqXr8gF0TYGb7CxVVLBcUB0EK0dVStYRtQ3cwCX9wvv0FzAdBdUocFOqEQAl6wt0Aun42fPVOPdRVeDm1w085r7aC79EMLgxul1NgHvZsmVa4x2o55cTBpfecsstOUE1GV9hBT8392OSp7yuxPkM3GeOOvCZPNh9UbaRpv8SgYFIXHCh+yK9NDv8RCbx4YH7lOxe7iBiYBu5PnZ7IKaNFM8Mf0mmvpwaudcnt5Em6cx5+Mu9vbS8sXFq8ggHrI/lzzypTldI+7xtduG+TIt3pravtk7JtoEemgh3jVe1lPba7jbZdXe/cb0ULc+HJwX0nx67WMocCFYZWmJ0fHlRwrmy44Ibi2T9ydROER2c2zJiy4jGBepxVZaIsbOkw1s/zhyXbcvLpLhD89D9EArgte1gKVmQ6QPu74qZxVLUNmGSEcCplwPePUm95vo+6/5LCu6/EtldmU2k0AlPXFCzPDdT7lRAP1zeor0UDXTXteV48q8T1dTBMdfnPJBlh7sfC/3lKD14spoDUyPA/e07mmfuW50q3T8E+P9OEAV+VmEB6481qeS6g7jgRgfIsRd/lv6b1sBUb4AboALuqFjBjeABEegJb0dGlHJ3gCEVOnxVEWCKiiHhcn8AGQMbyX5TSrCyDG1NgJsMOrAILJOdB8DnzJmTd/+4qE3gBmZnzZql8A9IArbh6iI+wsCN15vtgVKCzPA3vvENLY9IhZHovtGoKnDTP1Qs4fPk/GSWt2zZErtddYCb/bhHeCDjPmA2SQawJgXbMHCX83B/8eARd9y6EuczcOdaSGox0j9vRzM7SRHOiKf2aZH64v7Cgc+Cwe7LqEk2xF5yvQLT+qNV+LJ2X55lnTOzHhI8TDRv64B1ey0Dik5sUaTtjp7v+hZFmik9VekXaqH9R9SixUT7vDjIWIYexnxfle8vAKmOV8jgFteHrt3BxaXNpc2YcjkY3f3keily5/Kfr/7y4D7bikOpTyRqn0iMTB8UfH/n83Oj2M8xdP9V1cdx6qBUJNwX/j5MVMH94OIsWUyOL3f/Fq/6ZgZAHeQ3ubGlFE2ukN0JD2Dx2i2Df+D2r27llghw66BJ91DjP6vY/1bUpEOOb5OyMe6B+dL4Y1fk/TdxFv+b1oBUb4CbIHuNpxeA5AYgyw0I+iwj9hCy28Dtf/7nf2o2mcofZK/ZHqiizrIHMV915I/+6I8UngDQ8PmiURPg/vrXv67l9xhwxzrQjUXB184uNGoC3FgzyGDTR9hoKJUIYPqHAQYGxvncw8DNsSibR+1srCgPP/yw1uXmIedsWEroX2px+37jQYU+iNuuOsDNPUJtcKrTUBOdEog8hCUF94v/lYUHDQZx5rsHzveoSx5uk8lk+sqUsh5VqRRgWHHAbarXqlfADdhQW5kScdzAwBXlAsla8x7Zbap+kA319hAqXTDFO9uS5abOMiDMe1gTAGJAOJz5ToqaADcT5tAmSs8BqNR05jU83IUOmCRqAtzAKploKn8wiJTJbrCC9O/fX7PGSe0IAzc1tKlxjY+aXxwATiwlDz30UHryn3xRHeAG7j1wA9W1meGmPVwT7ed68n2evMf9RJabe4lMNwNe4x5S6koYcJtMJlNUqSogVSk/GZUBd4NTvQJuAiicMGGCAis3Md5e4JGKEWRtyRyT3WZCFr89tonf//3f1+3JNFOPGisAU5qzPYMxC6k4URuDJoE6JsDBW07FC6wsQFtl2XUfNQFuLCOAKEHmn4cMbCDYTPJdRxi4+TWA6ejD2zPpDZ8Jk/iE94uL6gA3nndvKeHayUrHbVdV4OahAYsK9wSfTSFlGTkPv5L4X1mw1ERrm9elMOA2mUymiFLZ7ZpMsGTA3fBU74Ab4AGmmdKcm5hMIz/tA0xksgEzssgeCFmShcUGwfaA+r//+7/LzJkzdSAcg+UA8uh54qI2gJvtmQGSAZNYXLDFsE10UpykqE0Pd6FRGXDz8MKDRCEPLdUBbj5XD7hk02lP3HZVBW4euGgLtpqk+t5xwbH9AwDZcTLuhWTTz8cw4DaZTKawTkl5i0Y1y24jA+4Gp3oH3ATVMcgSe7giy40/GdsB2e0oxFGvmyyyrzABLFNT+S/+4i/ksssuU5AOb58UtQHcvA6cMXEKlg6y3FS8oOLKxo0bc44RjfMRuKMBgG7fvj0WwKsK3FiI6EMerMhET58+PdbCUVXg5pcPBuDSN9h6qjL4kT787ne/qw9vnK9Lly51tia3AbfJZGpwOr1NBt9INZ4L5PK22dU2zixpI42+VtjEUHllwN3gVC+BG5CimgZTtnMjAz1Uz8A2wnTgURhkHb82UM72wBvb/9mf/ZmWuAtvmy9qC7gJ7AuUo6MMHe+TMeV43gqTFOc7cPMwxKygDM6Mg9iqAjeT7DCgke3JdDNhUNx2VQVuPguOS1DOsKoZaq7Rlypk2v642uB1IQy4TSZTQ1O05n0jPytlaoKs5Bkeq6AIcDfqZhPE1HfVS+Am8M0ymM4DFgPYqJOcBHDA3/Dhw9Peb7YH0BgEF7d9XFDVxE8Zjx3kvvvuywvcVLzAI8z23/rWt3Im6gFOsTUAzlwHDwCdOnXKm3GnUsYVV1yh2zP4ksx93HY+sNdgW2F7ALfQbH44sMDcdNNNeh081IwcOTL2uoFWZvgk+ztixIhYX/rzzz+fniKdgYpJDxgcn6opP/nJT7T9fFZAdNLATs510UUXpe8HgDrJF8+9Q0lDgPmGG27QLHrcdklB23hY8uMCeHhjpspCPODnWxhwm0ymhqb1nTMgHEQjaTOhLJg9s9Cp7SvR7qFNss/xrTZSXqWyhKa6pnoL3MAUmUmqlHAzkyHGZpIEwMAgNgdqSLM908QDt/mA2Qf7AtsLFy5U2GV/rCDYUoBq3vOlCTkeUMgAQmA3XAaQwX9k2sNgRmaUrO/v/d7vaeb97/7u79TfDViHs9Hsw8MEZen+9m//Nn0NTNrDMbHN+GuhvezLMfCpc1y2p7rL7NmztZpLIRO2sA3e7NGjR6vv3V83gy8pzwh0+sCDTjYd6OUasH7449AeHngY7Ai4ez829h8eGMig014CuAe0AXMgm2sko8/x4zLmtJH9GbRJtprjEtTu5vNmH85P3wDa/EJApp9MPXDOgxCDbZkACKtKZfcDx6ONgwcP1ocufz4emigryANcXapaYsBtMpkamk7NbRk/UUzs1PeF6owc31IhZWOKpL2f1TEnLpDGN7aU9mdp4h/TuVW9BW6CbO2TTz6pGUasGZVlqwE6/Lp4poG5uGoXcUG5O7zeWAfwEfMPB1jDVgI0AqDUtmZbYJZzMG27n72Q7QFVMthXXnmlZrX9sQE8Ju8hK8x2ZN7JALPus92AIhaNiy++WGGbY7Et2Xom/+FaqFUNCHJMoJLJXDgGwBr8Q/+aQj01p2nDtGnT0m1IinHjxukDBtYdb58gOCbZdfrDB8DJ9fFZ8EsDEO6Ps2nTJs1mA+MedDkO4M1kRFh9eBgguEYGxBJknylBiCc8ySPNlPJcDyUWyYT7NtIWzkdFEfqFY2BJ4bg8nPnPhX2AbjLplG3MN80+dhbaRBt5qOCz8ufjeLQBCxEPTEmZ+PMtDLhNJlND1Kk1RZlZVZn5sXNZ3in7K9dxKbkx+D4oKM7SxD+mc6d6DdxkucnukvX1tbjjtvNBphP7AJnIpUuXFpTlJYBovNJkY+OCKie+JB6ZZoAXqI7bdsaMGTmzOZLlBrqj265cuVLBjYwpwJh0TGL58uXp8nQ8ePAAELcdUVpaWtAkNVu3bpUpU6ak98MuQnUXrjcaHNNvh/Uj7Glm+nosHv79uODa/PXRR3w+ZKi5Jj63cLvCwa8ctCt6PB/0Aw9aZMFpe9w2BOf2/R13HgIYJ3Mft78PjsPDRpKd5XwLA26TyWQymWqueg3cBDAGCBUKOEA5UFUobBPsg6UjKTiWh0K2pS1x2xHhbcPH5/XothzHP0SwT/T9cIS3TTpeOPJBrI/odeTbJ7wt5/ZtIQppTzgKaZsPts13bN8vlW1HsG3cOXwUeh2VHed8CgNuk8lkMplqrnoP3BYWFtUPA26TyWQymWouA24LC4vEMOA2mUwmk6nmMuC2sLBIDANuk8lkMplqLgNuCwuLxDhfgXvC1DkWFhYWFhZ1Jgy4LSwsEsMy3CaTyWQy1VwG3BYWFolhwG0ymUwmU81V54Cb8m2vvvqqlmCrLCjvR/1p6nDHHasmEXc+H3HbfxUR15ZwxO1zvsTevXt1NkgmKqKWdXWmmD9bsXbtWhkyZIg88sgjWvu7LpX1q2kYcJtMJpPJVHPVOeB+55135IEHHpCbb75ZZ3BkdsC4YMa/n/70p/LNb35TZ5msLeBkkhQmXrnvvvuyzkdbfDz77LPpWR2/qmCCH6ZOv+uuu2LbRIwZM0brQMftf66DiXaeeuopnaGRaduZTChuu3MRq1at0vuNGT6ZgMj3IRP/PP3007J79+4q1QavS2HAbTKZTCZTzVXngJuZBZkem9kDmRJ848aNOuX27//+78t1112nr23btk2XzP74j//4jzrVdm0BN9lNYLCkpET++q//WqduX7JkicIXmdB+/fppO5gJMW7/sxXMYMlU9I8//rhOj37vvffqjJZMO89sis2bN5eHH35YZ1SM2/9cB79G8CDDNPAdO3aUo0ePxm53LuLkyZN6jzHle0VFhU5uw+tMbc9U+sySeb4+yNQ0DLhNJpPJZKq56hxwA5ZPPPGELoFo4Afg/a3f+i3NkPpMI++RZf7JT36igF7blgqmUge2v//976dhy9tdhg0bpjAW3edsB+cfPHiw/NVf/ZV07txZ17lupn6fP3++9O7dWx8M4vY9H2LFihXSuHFj6dSpU9bU7+dDDB8+XB9kaKO3lPBQgGXp2LFjtX5/nS9hwG0ymUwmU81VJz3c4Swt8MNP/r/927+tmdEw+Bw5ckR+/vOfp4G7UCgqZDu8vD/60Y/kBz/4QdbrtAcQ279/f9brtRGFtGvkyJHy93//99KtW7es1/llgDaxDL8ejur2T6H7RSO638qVK/MCN9tX5VzVbVc0OM6IESNygJvg76Tz1Nb5z2UYcJtMJpPJVHPVOeCORqHAjfd75syZOigPjzB2i+hx9uzZoxliMugDBgyQffv2ZW0TDoAbq0oYuIFZrCwHDx5UrzcWE47Xt29f/ZtBgT169JCXXnpJtyfzvHnzZunVq5e2a/To0dpmfzyC4yxbtkxeeOEF9YbPmjVLLQ7hbcIxatSoHODetWuXWks8HNLO1atXa9vYnqw3vxLQfwRZ26hFgmMMHTpUPcu0BWsF7cCugnec4Hj+2rguMv28znX7BxCWxcXF8swzz2gWnvNyjbyXBNz8mjF79my9/kcffVQGDhyon43P4NPnY8eO1c+VdgLFHKNDhw56b7z33nvpYxHYV7CBsE27du30Grg/wttwbXje27Ztq9eMJ/53f/d308CNZx7LUvv27WX9+vVpmwnt4bPu3r27/uICqNflDLgBt8lkMplMNVeDAG58wXhwn3vuOYXFf/3Xf5VLL700DXqAL57rX/7yl2q9AE4BsV/84hc6IM4fLxweuL/zne8osLJPWVmZAhrrQBYADUCyDYB59dVXy/e+9z21JwC92E7wWgNxAOz999+v4aH70KFDWmEFyAQq8TgzGJTrAEKjbSIA6G984xvy2GOPpb3swDfQ77fh+MDwRRddpP1A9Q0Plj/84Q+1nbTJb79o0SJ58MEHtVIHPnH6mX1pP/3QrFkz+cu//EsFYv/rA0uAFz87wH38+HEFUa6PtrAfDx+cDwAHeOOAm+O0bt1a28b+PCgxaPaqq67SBxEeDHiQuuSSS/S6aScPSwA45/63f/s39fv7/qIdrVq10vsBWxAPMLSBXwb4TLh/ePBq2rSp9hF9CJDzYPVrv/ZraeBmyfEZSMnnwj3E8QcNGqQPT+zHNWJpok35HpLO5zDgNplMJpOp5qr3wE2lEjzNZDRZJzNKBpsBj2Rh2R6ovvbaaxUYAT/vC/+Lv/gLzVSGz+fDAzfH5rxkOm+55RYFLI5Lu3bu3CktWrSQRo0aKXCzTjYUiOT4V155pWaFybgChAAtgDhp0iR9DaAFfufOnatgyX5kTTlvGIjDAXDTbiqz0K42bdooLHLNfhuuj0w0lUsYVAqg4ndnMCj7/Md//IeMHz9etyWTe/fddyuk4k/nuubMmaMPMv3799f+AqhpN5DvgRsA5cEAAH3zzTf1dR4ugGUeSPznxnHIgvOAEgfc9D99yjnpA9rOtV944YV6PD47Hpxatmwpf/qnf6rne+2119K/NnAt7O8z75yLPgXeORbtB9558CA7Trs4Lp8llVNYJ0PepUsXHTTpgZv9yLTzGtDO9ZJx5+GKzD1tYjvg+0/+5E80s18Xs9wG3CaTyWQy1Vz1HrgBz//6r/9KZzgBJbKZf/7nf66ZW2BqypQp8gd/8Ady+eWXayUP4I1sNzBF+T9/vHB44CZjzXmIdevWaUaazCnbAJlkyr/1rW8pYANktBePN5l2AJEsKTD70EMPKfSRKQYygT/A74ILLpA777xT20VbuBbgtrS0NKdNBMBNaT0eAABosuRcLzAf7htsL8Av/UP/+fewjXz3u9/V7C7rEydO1HNyXbSd1+hLAN1bJbgestxkiulTtqF6DFYZf2yAmUGmAC+fAdvwUMFxAHKOHQVutrv++uvlxhtv1Iwx+xDALUBMP/gHD/r5X/7lX9L9zGsANZ8lWWjaxXloIw8ZlE+k3+lXLDhAMZ8bQSlJ2sD1+XNGB01yTdw3vMa10SZeA/LpD9pALXEedH7zN39TM/O+XXUpDLhNJpPJZKq5GoSlBDD2rwOLeHMBbqwCQBVwxTqZZTKhBFlYoDHJx+2BO+zhBvDIrHp7Aecnsw2wkvX225GVveeeezT7ijfZnxNbCtsB6mvWrFGbBLYWXvPb8DfwiTXCHy8ccR5uwJV2hbcDxAFusuxcp3+d/ckeA96sA8gcz6/HBX0LkAK8PCxwPrLfWGr8edn/b/7mbzQD7cE9GlHgpp/oAzLsZNrD22KD4YEFCxDr9PO///u/52T++/Tpo9uRhSer/c///M96PHzq2GPoUyCZvufewJf9Z3/2Z5q99pYjIm7QJA89YeDmNbLwTNzD5wvM8yDyG7/xG3ptSdd9PocBt8lkMplMNVeDGTRZCHADUBzPBxnJ8PHCEQfc0QgDt896E2HgJiMbd06Au0mTJnLZZZfpLIxx24TP5SMOuH0Av/iTgdl8wA30esDGb439hpKCfpu44Lhko7Fr0I94pLHx+HYCrHisaVeSnzkK3GT5AW7sPjwAhbfFc851Lly4UNeTgJt289liywGsAW782Ul9CixjycFfHp7tshDg5nUeBOgDMto8OPHrwu/8zu9k7VeXwoDbZDKZTKaaq84DN1llBhzmA25qZfvXo8BNNpYBdkARlo0kkI0GWWYGDgLcSVYBoBYPbxS4sXowoBAbA9aS8D4+yL7isQYQsXUU2q4k4GZ/4JQMM3CcBNxkqmmvB24yw//0T/+kfYOH229HJtfbKFgHJvE5Y9egT8hwY1vx25PJ5wGDGRvD9hD6jmOxjAI3dh/sJP/wD/+gMzz6fQjsNjyM+LYnATcPNrSHXwawlGCXAajJdsd9bnjsmcyGvvft5xrx2v/hH/6hDtTknuO1KHDz8MR9xbbcV2zDZxeubhI93/keBtwmk8lkMtVcdR648QED0Pxsz8/3HgBZAkz4p/H6etjBJoDNgIGM2AeALmwFVDIBxIAl4IksLICKzSR8Ph8ezAA44DVuG7KogCEg6L3NBG0h4woYc16qaACdPCBQcYPzAmz4qGknDw1kvGkrsMz2YYuKD/qCjC4QiIeb7ekHf430DzNR8tDBAE4yvQwoxF7h+42MNr5x/Ne8Rjae7QBJHg5oI78KkPEFooFPf36gkqw8gAyMhoEW2AV+sWsAxwwipI85Dn3B3xyP/qCNDHzk/AA/Dx1UavEDD7kWvOc8FHjbB8ek3fPmzdP+ZTv6jIcitiO7T3sYyImnG+88D0G0nwcJBo7yOfLZ33TTTToYluojQL+39/z6r/+6fp589mzHwwsznPLAxnZUqcH3T3acz48M+a233qr74ffm8/H9UVfCgNtkMplMppqrzgI3QAWUAZEA3te//nUFZgbDAbfYEfA/MxgSaAWU+IkfOGJQHGBENhV4BZ7IXDJokSwmWVqqmwCfZFrD5wXcgEAADNji2GSJeS28HaBKBhlwA4AZrEf22L8PKAJh+KU5Blnka665RquD8B7XRyacTDHeaECVhwcyr0AlbQ6fDwilggnbAJQ8ZHAN9AGWGo7BdfOwAaz7tpFlpw+xW/AAwsBGrgvwJVvO9QKYbIO1BKjFSsMgTNpHO30bAHn6mUGeVPgIt4/tyNozUJEHFQaHkknnAYHPEUCn///4j/9YP08GG9KHHJOHniuuuEKtGpQVpCY2oA78+/MD3DwU0M+0AbjH4sJ24XYC/mTQ+YzZnn7C0w1U+z7FvsJnwfv8OkL1GkCdbRncSglJKpHwIMD9xRKvO9dBRh7POPvj4Qba6WfsNEB99HM738OA22QymUymmqtOZ7jJZAJQgDTZSZask0kkc0m1CP86WVm2J/PotwfEADqOxfbANRlksr+8R9Y1DJQEWVL24X1/bM7jj+OD43HO8Lk4t3+f49JO3ud8wKW3UfhzsuS4ZOrZhrZxfXHQxvnIqAKhHJMl56RtLP1rtIFsOoMueY2gnbwWvi6/LW3wxyZjD9iTafbvRdsAnAK5HC/8HkH/A/BklAFyn+X2fRr+vDgfx2M/+onrBmh5n+3C/UQA3NRXJ0vOcTlGtD8J/uacVEfhAYBtObY/F0E76RP6nHPSZtY5N+2i/3mNPvLt5SGJ66BfGWjLfuzDtnx+XLN/kPLnqQthwG0ymUwmU81V5y0ltR0A0VcNRYWc81y0Kxq+DUntYKAg1T3IiMe976Oy4yRFvn3CHu5Cju23ybdd+L3KjheOuONWZf/zKQy467ZOTL9H/vqCv5Fm00+kXnHa0i33tVhtk65uu7++oJtsTb1yThXX7uNTpRltbDZVKruasynfz123pF74ynRCSpvxGQXx1Z+/ocn393nyb6LKSv2bzvr3cp79O6/HMuC2qHGQxSXrjHcZaw1Z5bjtzmYwwQ82EQbQxr1vUb04n4F7a/cMaOTEOQawaikFlMlt91/290jp8dRLEfk+8eBlwP3V6NwAdzZsf/Xnb4gy4DZVXwbcFjUKYJvsMj50fN6US4zb7mwF1hUy6wz+/K3f+i2tVIMVJM7SYlH1MOD+KlXJF5+HSxfxsFzgF2fBwH2e6Vy3O9X/cec/J8Bd6QOaqfZVH4Hb9FXJgNuiRoFVghk2GRyIxxz/c9x2ZyvwTDMQljKLgP/zzz+vlV6SJgayqFqc/8CdnO2ti4pmqMPyUJcIWR7Aum9LvZAgA+7qKc/5zyVw17nPsU7LgNtUfRlwW9Q4GCzIoMNz4VPmnGSzGVjp41y1pT6GAfdXrDzQ7K+3WcIXfsHQZ8BdPRlwmwy4TTWQAbeFhUVi1AfgDsNQJksc/cL0doxwxH2pZn/hZo7nIvwl5sE5FYVDUdIXYub1rbFw59sV6Y84KIsFNb9/+NzxcJENl5F+y/NFntVXVd2WNsS2Oxkg/K8Fmajuw1ncvUFk+iWrT0LWH408vzjktLGyXydQ9Pg+fB+E+yl9H0avPfeaEh8Wcs5X9X4s6LPP+nwLv68S2+dfT9g3+z4OKd1nPsL3f37gzr1vo/drSlnXGvq3pxF/bFVVPouY+6Trlrh/L3muKacvEq7HVJAMuC0sLBKjXgF39/CXRy4sJUU82HaT0rj9AKaYLykiEWiy5I8fua7wF7Q/fhacJYBn1hd7SjGvefDL/jKN/yJO9+f03C/0IKJf3FGgCEdVtg0iu43x150L2z6qDotVAu6kPskB6aRjusgHlygGpLL285+vu98z24Wu298/MZHdt5nriouq3c9xEfns0/fl1Pi+iemXxM9Zt034t6RKvZd1zDxtTX9+fpvofZvn8ySiba/sWmPaXJXPorL/psVfd/znERfR+8RUmAy4LSwsEqOuDpoMfwGFv3xyICEEL8lfWuEvotCXcvhLKwJB4S+k9HEKyV46+e3Dx8h+uIiBzPQXeOSLMO71yGvxsI3iv4jD/Zm9T6Zvwq+nt49AR9x1Zo6d/OWffc5k4I5+nsnXWaCS+tgp3Cfx91729aTv3cg94V/PuU/jVMlnHvteCAyzz+FfD7UzfU9H4M+/HunzOFXls09sd/r1SDuSXuc+7J46XyV9FH498d6jbyoB7vTnmdMnmf5OutakeyDr9ap8FqH/FsV/xpHtE65J2xj9b5ZvdwGfvSlXBtwWFhaJUa+AO/rl4RT7xR9SLgD5L6fol3y+86S+6Ar9kvJfmOnjpM4Z2j9oV6YN/tw5oBYHHKHX8vVN5lqzv4jz91n0WhO+zFXR60ruW1XctVSlb3P6tYqKPX+g5D6Ju6Z8bU69V0gbk9qTej32+Hmuwb/n76HEe8opeC/hc0qrKp+9k293zLVX5d9htlL9GQvIMZ9JbFvDirumSvaNg+I81xp3jqp8Fsn3Ioq79/J9TlFVZVtTVAbcFhYWiVHfPNxRVXqMHEDJ84WTCDNxX3L5FDlH6gs767hZ56pim/yXvY9EuIs/br7+zN3Hw0i+iGyb1E+x/Zu0j29HTJxF4C7oHgtlIBOjkHslqT0FtDNf+P085OaL+HvAqyqfvVOV+rfwf1OJ+4bvg4IfxmL+TVS6b8w+ea4VRe+ZqnwW+f+bFtdv8f/OUfL9krutqXIZcFtYWCSGAXf0izH5yyn5S7RwOPAKtzm2/eEv+Xxf+HFt8q+lPb5JX57x15qvP3P3qQp0VdJPsf0bs08M0Oo+BUNVghI/3/x9knOPxbQvJwq5V5LaU0A784XfryqQF6+qfPZOVerfKvybinzulf57yquYfxOV7huzT55rRdF7piqfRf7/psX1W9y/c/9aKHSfuG1NhcqA28LCIjHqO3D79/J/8YX3zfOFk/glWgU48Eofa1vC+ULtSG0bd32xbQq/lvo7/gs0/lrz9pmHj/S1VuXaPaDFtSXpvLnHT/y8/bWeL8Bd3XZ4JbWnmu2MqtB/X8mq4n1fpXbnv1eiCq6FbVP3dLRNOfdtkuL+TVTSlrhj570Xc49Xlc8i979ZIcVeZ8w1Jd6jVet3U7YMuC0sLBKjvgN3+osl5n2/X6VfTl6JwFBF8FD5fe5J+OLz7fN1uRP6Ia5N0df8l3/ONeUHbiKrzxL60gNA7jUEx4/dNtJX4XNm929u3/pjxG5HVBd080BSvnss9z71/Zp0rxQIuUn3W9LrKP0ZxZyD/cL9nnhfpK63gH6symefr91x/Zu5J6LX4vow+m8tdWxfRSbuHOm2Rq+XPku3P/7fRNJ9G77v4q6VyG5LZvus16vyWaS3jfRL6N9ndjtjrskfI3I9iX1kKkgG3BYWFolR74HbKfPFHRfR48d/4apSX1K5X+apL9GcL+P8yny5JbQ98Qs0pLg2xbyW6YPwdcVfa7o/s8oshiIHrjIQERfZ15a8bTP38KHLOEAJX38aOLIjXbIv3L5UH+Z+ZjEK97dGpl/y3WOx92nOscJR+T2tSrrfEu/DQHnv90TAiomczzlOVfjs87Q7vn/9/RkTOf8ewtsm9W+etlYC3JVdZ05f+WvNKt0Yiph/z1X5LBK39Q/wWcePu6aE6+k+NeH6TYXIgNvCwiIxGgJwq+IAKOZLL/kL1ykRGGKgsBCljpf85Zb5UkwExrg2JbQzA2K+T+OvNas/022spB1OuRCQ9NmF4SiI8Lmyz5HQt5F26f7+Mw7BSXAtBQIuyjpupl/y3WPJ92nudVYJZBI+x8TXw4q735MAOtKXRN5jx6igzz5Pu/P1b+a+9RHfh+ntkq4zpZy2VgqnGeVeZ3ybs641+lnka18VPoucftHjxv17SbqmCHTr/vmv35RfBtwWFhaJcT4Dt+ncKB/81DUpIFX1QchUJ+Vh+Ly4bwt5KDLVOxlwW1hYJIYBtymq+gPcQbbOoKchyGdrz5PMrAF3g5QBt4WFRWIYcJuiqjfArT/lV8FOYqqz8tnt8wZwDbgbpAy4LSwsEsOA2xRVfbKUmOqzIh7k88k6ZMDdIGXAbWFhkRgG3KaoDLhNdUMh4D7ffPoG3A1SBtwWFhaJYcBtMplMJlPNZcBtYWGRGAbcJpPJZDLVXAbcFhYWiWHAbTKZTCZTzWXAbWFhkRgG3CaTyWQy1VwG3BYWFolhwG0ymUwmU81lwG1hYZEYBtwmk8lkMtVcBtwWFhaJYcBtMplMJlPNZcBtYWGRGAbcJpPJZDLVXAbcFhYWiWHAbTKZTCZTzWXAbWFhkRgG3CaTyWQy1VwG3BYWFolhwG0ymUwmU81lwG1hYZEYBtwmk8lkMtVcBtwWFhaJYcBtMplMJlPNZcBtYWGRGAbcJpPJZDLVXAbcFhYWiWHAbTKZTCZTzWXAbWFhkRgG3CaTyWQy1VwG3BYWFolhwG0ymUwmU81lwG1hYZEYBtwmk8lkMtVUIv8/DtPuU0y4nhQAAAAASUVORK5CYII=;" vertex="1" parent="1">
          <mxGeometry x="682.4499999999999" y="210" width="172.91" height="60" as="geometry" />
        </mxCell>
        <mxCell id="uyB1cEWHM_TbsoovECta-6" value="" style="endArrow=classic;html=1;" edge="1" parent="1">
          <mxGeometry width="50" height="50" relative="1" as="geometry">
            <mxPoint x="769.5000000000001" y="290" as="sourcePoint" />
            <mxPoint x="769.5000000000001" y="340" as="targetPoint" />
          </mxGeometry>
        </mxCell>
        <mxCell id="uyB1cEWHM_TbsoovECta-7" value="extract_disease_oncology.py&lt;br&gt;and manually merge." style="text;whiteSpace=wrap;html=1;align=center;" vertex="1" parent="1">
          <mxGeometry x="835" y="300" width="115.34" height="30" as="geometry" />
        </mxCell>
        <mxCell id="uyB1cEWHM_TbsoovECta-8" value="&lt;p style=&quot;margin-top: 0pt ; margin-bottom: 0pt ; margin-left: 0in ; text-align: center ; direction: ltr ; unicode-bidi: embed ; word-break: normal&quot;&gt;&lt;font color=&quot;#ff0000&quot;&gt;cancer synonyms corpus&lt;/font&gt;&lt;/p&gt;" style="text;whiteSpace=wrap;html=1;" vertex="1" parent="1">
          <mxGeometry x="703.9" y="350" width="130" height="50" as="geometry" />
        </mxCell>
        <mxCell id="uyB1cEWHM_TbsoovECta-9" value="" style="shape=note;whiteSpace=wrap;size=16;html=1;dropTarget=0;" vertex="1" parent="1">
          <mxGeometry x="1305" y="430" width="40" height="60" as="geometry" />
        </mxCell>
        <mxCell id="uyB1cEWHM_TbsoovECta-10" value="" style="html=1;shape=singleArrow;arrowWidth=0.4;arrowSize=0.4;outlineConnect=0;" vertex="1" parent="uyB1cEWHM_TbsoovECta-9">
          <mxGeometry width="14" height="14" relative="1" as="geometry">
            <mxPoint x="2" y="2" as="offset" />
          </mxGeometry>
        </mxCell>
        <mxCell id="uyB1cEWHM_TbsoovECta-11" value="" style="html=1;whiteSpace=wrap;shape=parallelMarker;outlineConnect=0;" vertex="1" parent="uyB1cEWHM_TbsoovECta-9">
          <mxGeometry x="0.5" y="1" width="14" height="14" relative="1" as="geometry">
            <mxPoint x="-7" y="-14" as="offset" />
          </mxGeometry>
        </mxCell>
        <mxCell id="uyB1cEWHM_TbsoovECta-12" value="&lt;font face=&quot;helvetica&quot;&gt;pmc_result_for_organoid_full_&lt;br&gt;pattern1_match_omics_cancer_v2.txt&lt;/font&gt;" style="text;whiteSpace=wrap;html=1;align=center;" vertex="1" parent="1">
          <mxGeometry x="1230" y="490" width="190" height="40" as="geometry" />
        </mxCell>
        <mxCell id="uyB1cEWHM_TbsoovECta-13" value="&lt;p style=&quot;margin-top: 0pt ; margin-bottom: 0pt ; margin-left: 0in ; text-align: center ; direction: ltr ; unicode-bidi: embed ; word-break: normal&quot;&gt;&lt;span style=&quot;color: rgb(255 , 0 , 0)&quot;&gt;Extrated&lt;br&gt;&lt;/span&gt;&lt;span style=&quot;color: rgb(255 , 0 , 0)&quot;&gt;&amp;nbsp;cancer synonyms with pmid&lt;/span&gt;&lt;br&gt;&lt;/p&gt;" style="text;whiteSpace=wrap;html=1;" vertex="1" parent="1">
          <mxGeometry x="1255" y="369.41" width="130" height="50" as="geometry" />
        </mxCell>
        <mxCell id="uyB1cEWHM_TbsoovECta-14" value="" style="endArrow=block;endFill=1;endSize=6;html=1;" edge="1" parent="1">
          <mxGeometry width="100" relative="1" as="geometry">
            <mxPoint x="1095" y="480" as="sourcePoint" />
            <mxPoint x="1195" y="480" as="targetPoint" />
          </mxGeometry>
        </mxCell>
        <mxCell id="uyB1cEWHM_TbsoovECta-15" value="inform_extract.TextHandler.&lt;br&gt;pmc_extract_cancer_terms" style="text;whiteSpace=wrap;html=1;align=center;" vertex="1" parent="1">
          <mxGeometry x="1095" y="425" width="120" height="30" as="geometry" />
        </mxCell>
        <mxCell id="uyB1cEWHM_TbsoovECta-16" value="all_cancer_type_synonym.txt" style="text;whiteSpace=wrap;html=1;" vertex="1" parent="1">
          <mxGeometry x="1075" y="395" width="180" height="30" as="geometry" />
        </mxCell>
        <mxCell id="uyB1cEWHM_TbsoovECta-19" value="data_clean_steps_of_pmc_&lt;br&gt;result_for_organoid_&lt;br&gt;full_pattern1_matchlines&lt;br&gt;_omicsterms_v2.txt" style="text;whiteSpace=wrap;html=1;align=center;" vertex="1" parent="1">
          <mxGeometry x="1020" y="790" width="260" height="30" as="geometry" />
        </mxCell>
        <mxCell id="uyB1cEWHM_TbsoovECta-20" value="" style="startArrow=oval;startFill=0;startSize=7;endArrow=block;endFill=0;endSize=10;dashed=1;html=1;" edge="1" parent="1">
          <mxGeometry width="100" relative="1" as="geometry">
            <mxPoint x="1095" y="509.5" as="sourcePoint" />
            <mxPoint x="1205" y="510" as="targetPoint" />
          </mxGeometry>
        </mxCell>
        <mxCell id="uyB1cEWHM_TbsoovECta-21" value="manually remove the&lt;br&gt;false discovered cancer synonyms terms" style="text;whiteSpace=wrap;html=1;align=center;" vertex="1" parent="1">
          <mxGeometry x="1070" y="530" width="160" height="30" as="geometry" />
        </mxCell>
      </root>
    </mxGraphModel>
  </diagram>
</mxfile>
